<svg xmlns="http://www.w3.org/2000/svg" width="32" height="32" viewBox="0 0 32 32">
    <g fill="none" fill-rule="evenodd">
        <path d="M0 0h32v32H0z"/>
        <g fill="#554F51" fill-rule="nonzero" transform="translate(2 2)">
            <path d="M24.782.145H3.951C1.856.145.15 1.798.15 3.827v20.18c0 2.03 1.706 3.683 3.8 3.683h20.832c2.095 0 3.801-1.653 3.801-3.682V3.828c0-2.03-1.706-3.683-3.8-3.683zM3.951 2.204h20.831c.928 0 1.676.724 1.676 1.623v10.757L21.64 8.698c-.57-.724-1.707-.724-2.275 0L12.33 17.31l-2.933-3.103a1.556 1.556 0 0 0-2.245 0L2.275 19.34V3.827c0-.899.748-1.623 1.676-1.623z"/>
            <ellipse cx="7.483" cy="7.249" rx="2.394" ry="2.32"/>
        </g>
    </g>
</svg>
