<svg xmlns="http://www.w3.org/2000/svg" width="24" height="24" viewBox="0 0 24 24">
    <g fill="none" fill-rule="evenodd">
        <path d="M0 0h24v24H0z"/>
        <path d="M3 3.188h17.813v17.813H3z"/>
        <path fill="#000" fill-rule="nonzero" d="M7.083 9c-.25 0-.5-.104-.708-.292a.969.969 0 0 1 0-1.396L11.188 2.5a.969.969 0 0 1 1.395 0 .969.969 0 0 1 0 1.396L7.792 8.708A1.068 1.068 0 0 1 7.083 9z"/>
        <path fill="#000" fill-rule="nonzero" d="M16.708 9c-.25 0-.5-.104-.708-.292l-4.813-4.812a.969.969 0 0 1 0-1.396.969.969 0 0 1 1.396 0l4.813 4.813a.969.969 0 0 1 0 1.395.98.98 0 0 1-.688.292z"/>
        <path fill="#000" fill-rule="nonzero" d="M11.875 18.75a.978.978 0 0 1-.98-.98V3.543a.978.978 0 1 1 1.96 0V17.77c.02.541-.438.979-.98.979z"/>
        <path fill="#000" fill-rule="nonzero" d="M17.563 22H6.229A4.232 4.232 0 0 1 2 17.77a.978.978 0 1 1 1.958 0c0 1.25 1 2.25 2.25 2.25h11.334c1.25 0 2.25-1 2.25-2.25a.978.978 0 1 1 1.958 0c.042 2.334-1.854 4.23-4.188 4.23z"/>
    </g>
</svg>
