<?xml version="1.0" encoding="utf-8"?>
<!-- Generator: Adobe Illustrator 17.1.0, SVG Export Plug-In . SVG Version: 6.00 Build 0)  -->
<!DOCTYPE svg PUBLIC "-//W3C//DTD SVG 1.1//EN" "http://www.w3.org/Graphics/SVG/1.1/DTD/svg11.dtd">
<svg version="1.1" id="Layer_1" xmlns="http://www.w3.org/2000/svg" xmlns:xlink="http://www.w3.org/1999/xlink" x="0px" y="0px"
	 viewBox="0 0 250 210" enable-background="new 0 0 250 210" xml:space="preserve">
<g>
	<path fill-rule="evenodd" clip-rule="evenodd" d="M31.161,70.315c0.145-1.081,0.647-1.997,0.521-2.837
		c-0.077-0.492-0.617-1.139-1.042-1.042c-0.444,0.097-0.617,0.81-1.042,0.926c-0.714,0.193-1.814,0.01-2.606-0.058
		c-0.84-0.068-1.583-0.251-2.258-0.405c-0.618,1.621-0.039,4.082-0.29,6.022c1.998-0.512,4.159-0.859,6.485-1.042
		C31.171,71.386,31.093,70.846,31.161,70.315L31.161,70.315z M32.956,56.708c0.579-0.492,1.284-1.235,0.984-2.2
		c-1.467-0.424-2.731,1.109-3.59,1.795c-0.386,0.309-0.82,0.435-1.216,0.695c-0.193,0.125-0.637,0.868-0.984,0.81
		c-0.27-0.048-0.193-0.299-0.348-0.521c-0.145-0.212-0.279-0.289-0.405-0.463c0.704-1.92,2.432-3.715,2.953-5.732
		c0.116-0.444,0.241-1.148-0.232-1.447c-2.528,1.042-2.799,4.343-4.632,6.079c-0.791-0.598-0.377-1.264-0.173-2.142
		c0.212-0.897,0.154-1.901,0.232-2.895c0.058-0.695,0.443-2.644-0.463-2.143c-0.946,0.521-1.882,2.181-2.027,3.59
		c-0.067,0.647,0.116,1.679,0,2.432c-0.048,0.299-0.319,1.051-0.694,1.042c-0.521-0.01-0.685-1.891-0.811-2.316
		c-0.444-1.534-0.588-2.693-1.736-3.243c-0.879,0.531-1.081,1.844-0.984,3.069c0.144,1.833,1.303,3.474,1.215,5.211
		c-0.203,0.202-0.589,0.222-0.869,0.347c-1.727,2.403-3.31,5.221-4.632,8.28c-1.342,3.117-2.47,6.359-2.201,10.654
		c0.242,3.879,1.255,7.286,2.606,10.306c1.032,2.307,2.171,4.256,3.821,5.906c0.521,0.521,1.158,1.158,1.969,1.274
		c1.254-5.424,2.171-11.184,2.663-17.371c-1.187-1.746-1.563-5.134-1.332-8.106c0.174-2.152,0.695-4.227,1.506-5.501
		c0.164,0.077,0.396-0.077,0.579-0.058c0.27,0.029,0.328,0.241,0.579,0.348c0.386,0.164,1.004,0.202,1.563,0.348
		c1.004,0.251,1.979,0.502,3.185,0.289c-0.531-1.148-2.479-1.679-2.142-3.706C28.989,59.671,31.161,58.262,32.956,56.708
		L32.956,56.708z M33.593,71.588c0.405,0.184,1.062,0.097,1.621,0.116c-0.347-0.666-0.82-1.226-1.331-1.737
		C33.68,70.402,33.554,70.913,33.593,71.588L33.593,71.588z M36.662,144.776c0.125-0.656,0.463-1.37,0.174-2.027
		c-0.521-0.096-1.11-0.116-1.737-0.116c-0.463,0.29-1.418,0.203-2.258,0.232c-2.132,0.097-4.545,0.135-6.369,0.405
		c0.116,0.357,0.058,0.598,0,0.926c-0.434,2.432-0.713,4.806-1.1,7.18c-0.367,2.287-1.042,4.545-1.505,6.832
		c-0.936,4.671-1.477,9.515-1.911,14.716c3.069-0.318,6.813,0.058,9.728-0.415c0.338-1.679,0.675-3.435,0.984-5.028
		c0.135-0.656,0.309-1.158,0.405-1.622c0.077-0.347-0.01-0.743,0.058-1.11c0.213-1.052,0.589-2.142,0.695-3.184
		c0.212-2.027,0.628-3.513,0.985-5.385c0.154-0.81,0.299-1.612,0.405-2.432c0.116-0.869,0.068-1.766,0.174-2.663
		c0.077-0.627,0.318-1.332,0.463-2.027C36.15,147.671,36.401,146.214,36.662,144.776L36.662,144.776z M52.353,25.21
		c0.097,0.173,0.415,0.994,0.289,0.521c-0.289-1.081-0.54-1.293-0.81-1.853c-1.09-2.316-2.432-4.825-3.764-7.005
		c-0.338-0.569-0.647-1.293-1.042-1.68c-0.203-0.203-0.454-0.203-0.695-0.463c-0.376-0.405-0.627-1.023-0.984-1.506
		c-1.062-1.457-2.307-2.769-3.417-4.111c-1.486-1.805-2.596-3.985-4.922-5.095c-0.318,0.405-0.521,0.907-0.695,1.563
		c-0.135,0.521-0.454,1.399-0.348,1.91c0.058,0.28,0.704,0.763,1.1,1.043c0.975,0.676,1.775,1.061,2.548,1.737
		c0.415,0.357,0.618,0.858,0.984,1.216c0.463,0.435,1.1,0.724,1.564,1.1c2.432,1.978,4.362,4.68,6.311,7.122
		c0.81,1.004,1.756,1.921,2.432,2.953C51.456,23.482,51.88,24.341,52.353,25.21L52.353,25.21z M53.511,31
		c0.097-1.255-1.322-2.104-1.331-3.185c-0.753-0.782-1.284-1.717-1.853-2.605c-0.579-0.917-1.255-1.699-1.911-2.548
		c-0.521-0.685-0.936-1.428-1.448-2.085c-3.512-4.535-7.855-8.01-12.391-11.522c-0.801,0.068-1.081-0.386-1.332-0.869
		C32,7.656,31.035,6.845,29.771,6.334c-1.042,3.252-2.577,6.089-3.937,8.974c-0.694,1.467-1.264,2.972-2.142,4.285
		c-0.444,0.666-0.937,1.226-1.39,1.853c-0.482,0.666-0.704,1.399-1.1,2.142c-0.348,0.656-1.023,1.235-1.506,1.911
		c-0.974,1.361-1.843,2.721-2.837,3.995c-2.529,3.233-5.221,6.359-7.701,9.495c1.573,0.897,3.001,1.988,4.169,3.301
		c1.032,1.158,2.133,2.22,3.069,3.416c0.492,0.627,0.83,1.361,1.331,1.911c0.183,0.203,0.83,0.743,1.042,0.753
		c0.348,0.009,0.898-0.608,1.332-0.637c0.415-0.03,0.975,0.299,1.332,0.521c0.222,0.135,0.917,0.811,1.042,0.811
		c0.299-0.019,0.618-1.013,0.926-1.332c0.406-0.415,1.38-1.206,2.432-0.926c0.618,0.164,1.901,1.805,1.564,2.953
		c0.666-0.271,1.264-1.419,2.142-1.738c2.46-0.907,3.455,2.461,2.142,4.111c0.019,0.183,0.328-0.29,0.521-0.463
		c0.26-0.241,0.598-0.454,0.753-0.637c0.811-0.135,0.868-0.762,1.39-1.331c0.714-0.782,1.708-1.409,2.548-2.143
		c0.839-0.733,1.582-1.582,2.374-2.374c2.316-2.316,5.009-4.564,7.411-6.774c1.689-1.554,3.329-2.885,4.864-4.632
		C52.15,33.084,53.453,31.705,53.511,31L53.511,31z M55.074,27.526c-0.077-1.071,0.135-1.756-0.058-2.548
		c-0.251-1.023-1.264-1.659-0.637-2.837c-1.109-3.802-2.596-7.19-4.574-10.133c-0.965-1.448-2.162-2.77-3.185-4.168
		c-1.032-1.428-2.152-2.799-3.474-3.938c-0.039,0-0.077,0-0.116,0c-0.193,0.309-1.004,0.628-0.985,1.216
		c0.01,0.28,0.608,0.878,0.927,1.274c0.376,0.473,0.714,0.888,0.984,1.216c2.046,2.442,3.995,5.047,5.5,7.817
		c1.091,1.997,1.747,4.159,2.78,6.079C53.318,23.492,54.408,25.403,55.074,27.526L55.074,27.526z M61.617,148.019
		c0.01-1.93,0.01-3.86-0.058-5.732c-7.035-0.145-14.33,0.405-21.655,0.347c-0.231,2.22-0.849,4.063-0.81,6.543
		c0.569-0.078,1.09-0.222,1.621-0.348c0.27,0.116,0.367,0.154,0.695,0.174c1.66,0.116,3.417-0.097,5.096-0.174
		c1.65-0.067,3.281-0.367,4.921-0.405C54.891,148.366,58.297,148.472,61.617,148.019L61.617,148.019z M62.312,157.283
		c0.348-2.22-0.299-4.227-0.405-6.369c-0.376-0.164-0.83,0.058-1.042,0.058c-1.245,0.048-2.934-0.039-4.343,0
		c-1.09,0.038-2.229,0.26-3.416,0.347c-2.432,0.183-4.922,0.241-7.237,0.405c-1.197,0.097-2.384,0.318-3.474,0.347
		c-1.418,0.038-2.828-0.202-4.111,0.348c-0.222,1.959-0.666,3.696-0.869,5.674c0.897,0.019,1.959-0.261,2.895-0.231
		c0.386,0.019,0.772,0.164,1.158,0.173c0.926,0.039,1.872-0.184,2.837-0.116c1.602,0.116,3.377-0.029,5.095-0.116
		C53.849,157.601,58.288,157.901,62.312,157.283L62.312,157.283z M77.25,169.799c-0.029-1.92-0.55-3.561-0.811-5.163
		c-0.54-3.3-0.55-6.601-1.1-9.844c-0.173-1.023-0.444-2.026-0.579-3.069c-0.145-1.09-0.184-2.21-0.348-3.3
		c-0.155-1.052-0.415-2.085-0.521-3.127c-0.096-1.062-0.173-2.094-0.579-3.069c-2.876-0.29-6.475-0.212-9.381,0
		c0.618,9.419,1.12,18.963,2.027,28.092C69.473,169.886,73.747,170.224,77.25,169.799L77.25,169.799z M83.736,138.754
		c-0.58-3.908-1.072-7.865-1.622-11.87c-0.54-4.005-0.927-8.078-1.389-12.159c-0.453-4.034-0.956-8.106-1.39-12.159
		c-0.328-3.088-0.694-6.206-0.81-9.322c-0.048-1.467-0.637-2.886-0.289-4.343c-0.956-1.583-1.564-3.532-2.895-4.748
		c-0.02-0.84-0.531-0.975-0.926-1.564c-0.994-1.496-2.074-2.972-3.416-3.937c0.01-0.849-0.656-0.81-1.1-1.274
		c-0.472-0.502-0.502-1.003-1.1-1.1c-0.869-0.136-1.602,0.569-2.374,0.637c-0.704,0.068-1.659-0.125-2.49-0.231
		c-0.82-0.097-1.717-0.251-2.316-0.463c-0.56-0.193-1.158-0.82-1.795-0.753c-0.435,0.049-1.235,0.792-1.795,1.158
		c-1.853,1.216-3.831,2.432-5.443,3.59c-2.49,1.795-4.767,3.493-6.427,5.616c-0.251,0.329-0.386,0.85-0.695,1.042
		c-0.299-0.154-1.062,0.175-1.332-0.057c-0.213-0.184-0.213-0.859-0.348-1.158c-0.414-0.917-1.032-1.843-1.564-2.837
		c-1.515-2.857-3.29-5.974-5.095-8.28c-1.37,0.173-2.992-0.058-4.343,0.116c-0.434,0.058-0.859,0.28-1.274,0.348
		c-1.544,0.26-3.031,0.126-4.516,0.521c-0.309,1.37-0.56,2.75-0.81,4.111c-0.271,1.486-0.357,2.924-0.579,4.401
		c-0.222,1.466-0.541,2.924-0.753,4.4c-0.637,4.517-1.582,8.821-2.374,13.202c-0.54,3.001-0.839,6.031-1.332,9.033
		c-0.241,1.457-0.55,2.905-0.81,4.343c-0.28,1.544-0.328,3.098-0.579,4.632c-0.203,1.254-0.608,2.47-0.81,3.705
		c-0.444,2.702-0.734,5.279-1.332,7.759c-0.309,1.312-0.424,2.615-0.694,3.879c-0.125,0.589-0.347,1.072-0.405,1.621
		c-0.068,0.666,0.01,1.322-0.058,2.026c-0.058,0.589-0.376,1.052-0.347,1.621c0.261,0.212,0.888-0.068,1.158,0.232
		c2.663-0.473,5.424,0,8.164-0.174c2.818-0.164,5.568,0.058,8.396,0.058c2.76,0,5.539-0.212,8.338-0.347
		c2.788-0.125,5.606-0.048,8.337-0.232c5.675-0.357,11.417,0,17.023,0c2.779,0,5.511-0.579,8.222-0.463
		C78.447,139.459,81.168,139.179,83.736,138.754L83.736,138.754z M85.067,52.423c1.486-0.444,2.547-1.322,3.648-2.142
		c-1.661-1.959-3.609-3.638-5.501-5.269c-0.637-0.56-1.206-1.206-1.853-1.795c-0.493-0.453-1.187-0.83-1.795-1.274
		c-0.589-0.435-1.158-0.975-1.737-1.332c-0.724-0.454-1.545-0.82-2.316-1.274c-2.258-1.322-4.651-2.876-7.295-3.589
		c-0.406-0.434-1.072-0.415-1.737-0.637c-0.704-0.231-1.197-0.849-1.795-0.521c-0.029,0-0.067,0.048,0,0.058
		c1.833,1.4,3.793,2.645,5.616,3.995c1.833,1.36,3.512,2.818,5.269,4.285c1.756,1.457,3.087,3.281,4.748,4.806
		c0.82,0.752,1.698,1.505,2.432,2.316C83.503,50.86,84.121,51.825,85.067,52.423L85.067,52.423z M86.572,58.387
		c-0.164-0.502-0.704-0.753-0.984-1.158c-0.444-0.637-0.753-1.312-1.216-1.911c-0.898-1.187-1.959-2.268-2.895-3.358
		c-0.482-0.569-0.878-1.265-1.39-1.795c-0.328-0.348-0.82-0.56-1.158-0.869c-0.647-0.599-1.139-1.342-1.795-1.911
		c-2.027-1.747-3.948-3.465-6.022-5.153c-1.998-1.64-4.121-3.445-6.543-4.574c-1.003-0.473-2.548-0.83-3.126-1.679
		c-0.541,0.01-0.753-0.453-1.158-0.695c-1.882-1.11-4.381-1.322-6.775-1.911c-1.206,1.978-3.059,3.406-4.632,5.037
		c-0.801,0.839-1.409,1.824-2.259,2.606c-1.659,1.544-3.512,3.049-5.037,4.69c-2.354,2.538-5.52,4.217-7.527,7.064
		c0.82,0.222,1.689,1.757,1.621,2.606c-0.029,0.434-0.415,0.715-0.695,1.158c-0.203,0.328-0.309,0.695-0.463,0.926
		c-1.129,1.708-3.532,2.924-4.516,4.459c4.584,5.963,10.007,11.425,13.259,18.76c0.213,0.482,1.265,2.799,1.795,2.779
		c0.077-0.001,0.569-0.54,0.811-0.753c0.955-0.81,1.833-1.534,2.663-2.2c1.235-0.984,2.432-2.055,3.706-2.779
		c0.994-0.56,1.959-0.984,2.837-1.621c2.654-1.911,5.346-3.696,8.28-5.269c-1.284-1.872-2.856-4.131-3.822-6.659
		c-0.28-0.743-0.859-2.046-0.695-2.837c0.087-0.386,0.541-0.676,0.985-0.869c0.434-0.184,1.013-0.54,1.331-0.579
		c1.39-0.155,3.002,1.467,3.358,1.911c-0.299-1.293-0.82-3.349-0.405-4.864c0.145-0.502,0.704-1.023,1.158-1.274
		c0.347-0.183,1.168-0.511,1.679-0.405c0.589,0.126,1.187,1.322,1.505,1.853c0.473,0.772,0.869,1.458,1.216,2.2
		c0.492-1.718,0.598-4.333,2.548-4.342c2.065-0.01,2.191,2.693,2.895,4.285c0.241-0.425,0.048-0.917,0.173-1.332
		c0.261-0.829,1.438-1.486,2.316-1.274c0.801,0.193,1.709,1.968,1.853,2.837c0.135,0.772-0.144,1.718,0.289,2.316
		C81.999,60.645,84.334,59.564,86.572,58.387L86.572,58.387z M87.904,46.517c0.878,0.126,2.007-0.975,2.374-1.39
		c-0.829-1.496-2.277-2.528-3.59-3.59c-2.692-2.181-5.732-3.744-8.569-5.79c-1.438-1.043-2.991-1.998-4.864-2.374
		c-0.164-0.405-0.56-0.348-0.984-0.521c-0.454-0.194-0.656-0.521-1.39-0.348c-0.203-0.038-0.097-0.405-0.405-0.347
		c-1.032-0.27-2.142-0.83-3.358-1.042c-0.482-0.087-1.061-0.251-1.505-0.289c-0.308-0.029-0.646,0.087-0.984,0.058
		c-1.178-0.097-2.451-0.705-3.3-0.116c10.413,2.471,18.644,7.933,25.187,14.475C86.939,45.659,87.518,46.46,87.904,46.517
		L87.904,46.517z M90.684,100.887c0.723-2.837,0.472-6.022-0.001-8.859c-0.454-2.769-1.322-5.163-2.316-7.412
		c-1.495-3.415-3.377-6.31-5.501-9.032c-0.724-0.936-1.554-1.911-2.315-2.548c-0.589-0.492-2.654-1.351-2.837-2.2
		c-0.068-0.338,0.106-0.666,0.116-1.043c0.01-0.203-0.106-0.405-0.116-0.637c-0.039-1.785,0.637-4.034-0.173-5.038
		c0.395-1.612,0.116-3.937-0.348-5.269c-0.705,0.174-0.965,1.331-1.158,2.2c-0.308,1.428,0.405,3.503-0.753,4.169
		c-0.511-0.405-1.109-0.531-1.448-1.042c-0.433-0.666-0.492-2.229-0.579-3.416c-0.096-1.39,0.164-4.188-1.39-3.764
		c-0.54,1.602-0.666,4.179-0.579,6.311c0.02,0.424,0.213,0.965-0.116,1.273c-1.824-0.203-2.422-1.872-3.01-3.417
		c-0.203-0.531-0.473-1.187-0.695-1.853c-0.26-0.782-0.425-2.606-1.621-2.084c-0.521,0.232-0.27,1.38-0.174,2.258
		c0.193,1.737,0.55,3.252,1.042,4.516c0.405,1.033,1.361,2.654,0.173,3.358c-1.65-0.752-2.576-2.171-3.589-3.531
		c-0.531-0.724-1.023-1.843-2.143-1.795c-0.338,0.261-0.28,0.917-0.521,1.274c1.11,1.09,1.844,2.489,2.664,3.821
		c0.82,1.322,1.891,2.509,2.548,3.938c-0.763,1.196-2.422,1.515-3.243,2.663c0.888,0.106,1.805,0.56,2.779,0.463
		c0.82-0.077,1.641-0.579,2.837-0.463c1.64,0.155,2.519,1.197,3.358,2.2c1.245,1.467,3.127,2.895,4.053,4.459
		c0.879,1.467,1.689,2.799,2.663,4.226c0.917,1.342,2.239,3.059,2.432,4.517c0.077,0.521-0.02,1.08,0,1.562
		c0.058,1.206,0.106,2.374,0.173,3.475c0.106,1.582,0.782,3.011,0.579,4.632c0.772,0.762,0.192,2.2,0.347,3.474
		c0.039,0.29,0.203,0.579,0.232,0.869c0.058,0.482-0.077,0.984,0,1.447c0.048,0.289,0.26,0.57,0.348,0.869
		c0.54,1.853,0.086,4.169,0.752,5.964c1.506-0.579,3.262-0.907,3.648-2.606c1.11-0.608,1.467-1.409,1.969-2.49
		c0.521-1.1,0.946-2.123,1.274-3.416C90.23,102.199,90.519,101.533,90.684,100.887L90.684,100.887z M92.073,43.507
		c-0.058,0.849,1.11,1.1,1.1,1.795c0,0.608-1.023,1.109-1.563,1.447c-0.627,0.386-1.612,0.83-1.738,1.274
		c-0.299,1.139,1.37,1.68,1.506,2.78c0.193,1.496-1.313,1.987-2.317,2.489c-0.753,0.386-1.38,0.685-1.853,1.448
		c0.724,1.003,1.448,1.988,2.258,2.895c-0.221,0.454,0.232,1.023,0.116,1.448c-0.135,0.56-1.621,0.975-2.142,1.216
		c-1.65,0.772-2.78,1.467-4.227,2.374c-0.724,0.454-1.37,1.042-1.968,1.332c-0.541,0.27-1.216,0.26-1.39,0.753
		c0.223,1.428,0.425,3.503-0.058,4.806c2.5,2.113,4.382,4.719,6.369,7.353c0.975,1.284,1.698,2.722,2.895,3.764
		c0.27,1.341,1.342,1.862,1.331,3.474c0.792,1.361,1.497,3.165,1.912,5.153c0.405,1.9,0.801,4.063,0.695,6.195
		c-0.202,4.352-0.164,8.974-1.969,12.043c-0.346,0.608-0.897,0.897-0.984,1.737c-1.506,1.699-2.76,3.291-4.748,4.69
		c-0.618,0.435-1.554,0.849-1.738,1.39c-0.164,0.531,0.145,1.428,0.232,2.085c0.241,1.746,0.377,3.522,0.637,5.327
		c0.492,3.368,0.782,7.344,1.274,10.885c0.251,1.776,0.386,3.715,0.926,5.095c0.125,0.328,0.424,0.56,0.463,0.869
		c0.116,0.859-0.781,1.505-0.81,2.142c-1.766,0.202-3.464,0.202-5.327,0.116c-0.55-0.019-1.158-0.212-1.679-0.174
		c-0.289,0.029-0.599,0.202-0.926,0.231c-0.705,0.067-1.418-0.087-2.085,0.058c0.666,8.183,2.365,16.454,3.416,24.675
		c0.155,1.197,0.173,2.451,0.405,3.581c0.087,0.405,0.396,0.753,0.348,1.226c-0.077,0.791-0.782,0.791-1.274,1.264
		c-0.666-0.251-1.033,0.174-1.737,0.241c-1.013,0.096-2.2-0.174-3.416-0.116c-3.204,0.145-7.026,0.135-9.843,0.463
		c-0.772-0.348-1.458-1.361-1.448-2.432c0.01-0.251,0.203-0.482,0.232-0.762c0.087-0.647-0.107-1.563-0.174-2.422
		c-0.164-2.306-0.396-5.067-0.463-7.354c-0.502-0.299-1.071-0.096-1.621-0.116c-2.779-0.135-5.741,0.125-8.627,0.279
		c-0.453,0.029-0.888,0.203-1.332,0.242c-0.734,0.048-1.563-0.067-2.374-0.067c-1.033,0.019-2.278-0.01-3.069,0.232
		c-0.898-0.097-2.123,0.009-3.358,0.058c-0.936,0.048-1.958-0.029-2.779,0.058c-0.309,0.039-0.589,0.203-0.869,0.241
		c-0.598,0.058-1.149-0.164-1.621,0.106c-1.303,3.639-1.592,8.299-2.027,12.797c-0.241,0.26-0.656,0.366-0.463,0.762
		c-1.805,0.839-4.622,0.55-7.585,0.685c-1.236,0.067-2.586,0.135-3.937,0.241c-1.37,0.106-4.101,0.734-3.995-0.637
		c-0.125-0.251-0.425-0.319-0.463-0.647c0.222-0.328,0.55-0.396,0.637-0.801c0.096-0.463-0.087-1.11-0.058-1.573
		c0.039-0.521,0.319-1.1,0.463-1.679c0.994-3.966,1.206-8.599,2.201-12.68c0.589-2.394,1.081-4.739,1.332-7.18
		c0.251-2.47,0.753-4.883,1.1-7.354c-3.464,0.155-7.72,0.193-11.175-0.173c-0.241-0.54-0.232-1.341-0.348-2.027
		c0.087-0.376,0.435-0.743,0.579-1.158c0.261-0.772,0.279-1.718,0.463-2.606c1.178-5.771,2.346-11.85,3.358-17.834
		c0.598-3.532,0.859-7.102,1.505-10.596c0.646-3.464,1.351-6.871,1.853-10.248c-1.216-0.859-2.287-1.525-3.069-2.779
		c-0.241-0.396-0.367-0.84-0.637-1.274c-0.598-0.965-1.921-1.544-1.969-2.895c-0.84-0.984-1.293-2.249-1.737-3.531
		c-0.435-1.255-1.033-2.528-1.389-3.823c-0.82-2.953-0.85-6.272-0.695-9.553c0.087-1.747,0.145-3.291,0.521-4.748
		c0.666-2.606,1.844-5.066,3.126-7.296c0.657-1.139,1.255-2.432,1.969-3.243c0.521-0.589,1.4-0.897,1.564-1.795
		c0.261-1.39-0.685-2.663-0.694-4.169c0-0.405,0.212-0.791,0.231-1.158c0.029-0.618-0.308-1.274,0.174-1.737
		c-3.252-3.928-5.607-8.743-11.002-10.538c-0.174-0.29-0.126-0.801-0.289-1.1v-0.004v-0.004v-0.004v-0.003V39.03v-0.004v-0.004
		v-0.004v-0.003v-0.003v-0.004v-0.003v-0.004v-0.004v-0.004V38.99c0.251-1.148,1.216-1.39,1.911-2.085
		c0.627-0.627,1.206-1.437,1.853-2.2c1.535-1.824,3.078-3.783,4.574-5.559c0.319-0.376,0.511-0.83,0.81-1.216
		c0.859-1.081,1.872-1.93,2.606-3.011c0.27-0.395,0.366-0.888,0.636-1.273c0.222-0.319,0.55-0.435,0.753-0.811
		c0.135-0.251,0.231-0.763,0.405-1.1c0.27-0.531,0.753-1.023,1.1-1.564c1.737-2.721,3.175-5.761,4.516-8.801
		c0.57-1.284,1.226-2.566,1.621-3.764c0.213-0.627,0.289-1.331,0.579-2.084c0.203-0.531,0.637-1.582,1.043-1.679
		c0.425-0.106,0.56,0.28,1.1,0.058c1.264,0.762,2.625,1.428,3.937,2.142c0.068-0.772,0.772-1.448,0.984-2.49
		c0.087-0.415,0.029-0.839,0.116-1.215c0.203-0.917,0.763-1.756,1.563-1.911c0.097,0,0.193,0,0.29,0
		c1.699,0.54,2.412,2.065,3.763,2.953c0.628-0.907,1.178-2.191,2.085-2.606c1.428,0.454,2.403,1.776,3.416,2.779
		c0.357,0.348,0.762,0.589,1.1,0.927c0.627,0.598,1.158,1.438,1.737,2.142c1.158,1.419,2.326,2.818,3.3,4.459
		c0.483,0.81,0.83,1.708,1.332,2.548c1.409,2.335,2.548,5.182,3.358,8.279c0.271,1.033,0.695,2.142,0.753,3.069
		c0.078,1.109-0.125,2.181,0.289,3.242c1.496,0.087,2.905-0.058,4.285,0.058c4.073,0.328,7.817,1.438,11.001,2.722
		c3.947,1.582,7.469,3.068,10.48,5.5c0.406,0.319,0.734,0.792,1.158,1.1c0.647,0.463,1.38,0.82,2.026,1.332
		C88.513,40.351,90.191,42.098,92.073,43.507L92.073,43.507z"/>
	<path fill-rule="evenodd" clip-rule="evenodd" fill="#FFFFFF" d="M90.684,92.028c0.472,2.837,0.723,6.022-0.001,8.859
		c-0.164,0.646-0.454,1.312-0.637,2.026c-0.328,1.293-0.753,2.316-1.274,3.416c-0.501,1.081-0.859,1.882-1.969,2.49
		c-0.386,1.699-2.142,2.026-3.648,2.606c-0.665-1.795-0.212-4.111-0.752-5.964c-0.088-0.299-0.3-0.579-0.348-0.869
		c-0.077-0.463,0.058-0.965,0-1.447c-0.029-0.29-0.194-0.579-0.232-0.869c-0.154-1.274,0.425-2.712-0.347-3.474
		c0.203-1.621-0.473-3.05-0.579-4.632c-0.068-1.101-0.116-2.268-0.173-3.475c-0.02-0.482,0.077-1.041,0-1.562
		c-0.193-1.458-1.515-3.175-2.432-4.517c-0.975-1.427-1.785-2.76-2.663-4.226c-0.926-1.564-2.808-2.992-4.053-4.459
		c-0.839-1.003-1.718-2.045-3.358-2.2c-1.197-0.116-2.017,0.386-2.837,0.463c-0.975,0.097-1.891-0.357-2.779-0.463
		c0.82-1.148,2.48-1.467,3.243-2.663c-0.657-1.428-1.727-2.616-2.548-3.938c-0.82-1.332-1.554-2.731-2.664-3.821
		c0.241-0.357,0.183-1.014,0.521-1.274c1.12-0.048,1.612,1.072,2.143,1.795c1.013,1.36,1.939,2.779,3.589,3.531
		c1.187-0.704,0.232-2.325-0.173-3.358c-0.492-1.264-0.849-2.779-1.042-4.516c-0.096-0.878-0.347-2.027,0.174-2.258
		c1.196-0.521,1.36,1.303,1.621,2.084c0.222,0.666,0.492,1.322,0.695,1.853c0.588,1.544,1.187,3.214,3.01,3.417
		c0.328-0.309,0.135-0.849,0.116-1.273c-0.086-2.133,0.039-4.71,0.579-6.311c1.553-0.425,1.294,2.374,1.39,3.764
		c0.087,1.187,0.145,2.75,0.579,3.416c0.338,0.511,0.937,0.637,1.448,1.042c1.158-0.666,0.445-2.741,0.753-4.169
		c0.193-0.869,0.454-2.026,1.158-2.2c0.464,1.331,0.743,3.657,0.348,5.269c0.81,1.004,0.135,3.252,0.173,5.038
		c0.009,0.231,0.125,0.434,0.116,0.637c-0.009,0.376-0.183,0.705-0.116,1.043c0.183,0.849,2.249,1.708,2.837,2.2
		c0.762,0.637,1.592,1.612,2.315,2.548c2.123,2.722,4.005,5.617,5.501,9.032C89.362,86.865,90.23,89.259,90.684,92.028
		L90.684,92.028z"/>
	<path fill-rule="evenodd" clip-rule="evenodd" fill="#FFFFFF" d="M90.278,45.128c-0.366,0.415-1.496,1.515-2.374,1.39
		c-0.386-0.057-0.965-0.859-1.389-1.274c-6.543-6.542-14.774-12.005-25.187-14.475c0.849-0.589,2.123,0.02,3.3,0.116
		c0.338,0.029,0.676-0.087,0.984-0.058c0.444,0.039,1.023,0.203,1.505,0.289c1.216,0.212,2.326,0.772,3.358,1.042
		c0.309-0.058,0.202,0.309,0.405,0.347c0.734-0.173,0.936,0.154,1.39,0.348c0.425,0.173,0.82,0.116,0.984,0.521
		c1.873,0.376,3.426,1.331,4.864,2.374c2.837,2.046,5.877,3.609,8.569,5.79C88.001,42.599,89.448,43.632,90.278,45.128
		L90.278,45.128z"/>
	<path fill-rule="evenodd" clip-rule="evenodd" fill="#FFFFFF" d="M85.588,57.229c0.28,0.405,0.82,0.656,0.984,1.158
		c-2.238,1.177-4.574,2.258-6.832,3.416c-0.433-0.598-0.154-1.544-0.289-2.316c-0.144-0.869-1.052-2.644-1.853-2.837
		c-0.878-0.212-2.056,0.444-2.316,1.274c-0.125,0.415,0.068,0.907-0.173,1.332c-0.704-1.592-0.829-4.294-2.895-4.285
		c-1.95,0.009-2.056,2.625-2.548,4.342c-0.348-0.743-0.743-1.428-1.216-2.2c-0.319-0.531-0.916-1.727-1.505-1.853
		c-0.511-0.106-1.332,0.222-1.679,0.405c-0.454,0.251-1.014,0.772-1.158,1.274c-0.415,1.515,0.106,3.57,0.405,4.864
		c-0.357-0.444-1.969-2.065-3.358-1.911c-0.318,0.039-0.897,0.395-1.331,0.579c-0.444,0.193-0.898,0.483-0.985,0.869
		c-0.164,0.791,0.415,2.094,0.695,2.837c0.965,2.528,2.538,4.786,3.822,6.659c-2.934,1.573-5.626,3.358-8.28,5.269
		c-0.878,0.637-1.843,1.062-2.837,1.621c-1.274,0.724-2.47,1.795-3.706,2.779c-0.83,0.666-1.708,1.39-2.663,2.2
		c-0.242,0.213-0.734,0.753-0.811,0.753c-0.531,0.02-1.583-2.296-1.795-2.779c-3.252-7.334-8.675-12.796-13.259-18.76
		c0.984-1.535,3.387-2.751,4.516-4.459c0.154-0.232,0.261-0.598,0.463-0.926c0.28-0.444,0.666-0.724,0.695-1.158
		c0.067-0.849-0.801-2.383-1.621-2.606c2.007-2.847,5.173-4.526,7.527-7.064c1.525-1.64,3.378-3.146,5.037-4.69
		c0.85-0.782,1.458-1.766,2.259-2.606c1.573-1.631,3.426-3.059,4.632-5.037c2.394,0.588,4.893,0.801,6.775,1.911
		c0.405,0.241,0.617,0.704,1.158,0.695c0.578,0.849,2.123,1.206,3.126,1.679c2.423,1.129,4.545,2.934,6.543,4.574
		c2.074,1.689,3.995,3.407,6.022,5.153c0.656,0.569,1.148,1.312,1.795,1.911c0.338,0.309,0.83,0.521,1.158,0.869
		c0.512,0.53,0.908,1.225,1.39,1.795c0.936,1.091,1.997,2.171,2.895,3.358C84.835,55.917,85.144,56.592,85.588,57.229L85.588,57.229
		z"/>
	<path fill-rule="evenodd" clip-rule="evenodd" fill="#FFFFFF" d="M88.715,50.281c-1.101,0.82-2.162,1.698-3.648,2.142
		c-0.946-0.598-1.564-1.563-2.316-2.374c-0.733-0.81-1.611-1.563-2.432-2.316c-1.661-1.525-2.992-3.349-4.748-4.806
		c-1.756-1.467-3.436-2.924-5.269-4.285c-1.824-1.351-3.783-2.596-5.616-3.995c-0.067-0.01-0.029-0.058,0-0.058
		c0.598-0.328,1.09,0.29,1.795,0.521c0.666,0.222,1.332,0.203,1.737,0.637c2.644,0.714,5.037,2.268,7.295,3.589
		c0.772,0.454,1.592,0.82,2.316,1.274c0.579,0.357,1.148,0.897,1.737,1.332c0.608,0.444,1.303,0.82,1.795,1.274
		c0.647,0.589,1.216,1.236,1.853,1.795C85.106,46.643,87.055,48.322,88.715,50.281L88.715,50.281z"/>
	<path fill-rule="evenodd" clip-rule="evenodd" fill="#FFDD00" d="M82.114,126.885c0.55,4.005,1.042,7.961,1.622,11.87
		c-2.567,0.425-5.289,0.704-7.991,0.579c-2.712-0.116-5.443,0.463-8.222,0.463c-5.607,0-11.348-0.357-17.023,0
		c-2.731,0.183-5.549,0.106-8.337,0.232c-2.799,0.135-5.578,0.347-8.338,0.347c-2.827,0-5.578-0.222-8.396-0.058
		c-2.74,0.174-5.5-0.299-8.164,0.174c-0.27-0.299-0.897-0.019-1.158-0.232c-0.029-0.57,0.289-1.033,0.347-1.621
		c0.067-0.704-0.01-1.361,0.058-2.026c0.058-0.55,0.28-1.032,0.405-1.621c0.27-1.264,0.386-2.567,0.694-3.879
		c0.599-2.48,0.888-5.057,1.332-7.759c0.202-1.235,0.608-2.451,0.81-3.705c0.251-1.535,0.299-3.088,0.579-4.632
		c0.261-1.438,0.569-2.886,0.81-4.343c0.492-3.001,0.792-6.031,1.332-9.033c0.792-4.381,1.737-8.685,2.374-13.202
		c0.212-1.476,0.531-2.934,0.753-4.4c0.222-1.477,0.308-2.915,0.579-4.401c0.251-1.361,0.502-2.741,0.81-4.111
		c1.486-0.395,2.972-0.261,4.516-0.521c0.415-0.068,0.839-0.29,1.274-0.348c1.351-0.174,2.972,0.058,4.343-0.116
		c1.805,2.306,3.58,5.423,5.095,8.28c0.531,0.994,1.149,1.92,1.564,2.837c0.135,0.3,0.135,0.974,0.348,1.158
		c0.27,0.232,1.032-0.096,1.332,0.057c0.308-0.192,0.444-0.713,0.695-1.042c1.66-2.122,3.937-3.821,6.427-5.616
		c1.612-1.158,3.59-2.374,5.443-3.59c0.56-0.367,1.36-1.109,1.795-1.158c0.637-0.067,1.235,0.56,1.795,0.753
		c0.598,0.212,1.496,0.367,2.316,0.463c0.83,0.106,1.786,0.299,2.49,0.231c0.772-0.067,1.506-0.772,2.374-0.637
		c0.598,0.097,0.628,0.598,1.1,1.1c0.444,0.464,1.11,0.425,1.1,1.274c1.342,0.965,2.422,2.441,3.416,3.937
		c0.396,0.589,0.907,0.724,0.926,1.564c1.331,1.216,1.939,3.165,2.895,4.748c-0.348,1.457,0.241,2.875,0.289,4.343
		c0.116,3.116,0.482,6.234,0.81,9.322c0.435,4.053,0.937,8.125,1.39,12.159C81.187,118.807,81.574,122.88,82.114,126.885
		L82.114,126.885z"/>
	<path fill-rule="evenodd" clip-rule="evenodd" fill="#FFFFFF" d="M76.44,164.636c0.261,1.602,0.782,3.242,0.811,5.163
		c-3.503,0.424-7.778,0.087-11.291,0.521c-0.907-9.129-1.409-18.673-2.027-28.092c2.905-0.212,6.505-0.29,9.381,0
		c0.405,0.975,0.482,2.007,0.579,3.069c0.106,1.042,0.366,2.075,0.521,3.127c0.164,1.09,0.203,2.21,0.348,3.3
		c0.135,1.042,0.405,2.046,0.579,3.069C75.89,158.036,75.9,161.336,76.44,164.636L76.44,164.636z"/>
	<path fill-rule="evenodd" clip-rule="evenodd" fill="#FFFFFF" d="M61.907,150.914c0.106,2.142,0.753,4.149,0.405,6.369
		c-4.024,0.618-8.463,0.319-12.912,0.521c-1.718,0.087-3.493,0.232-5.095,0.116c-0.965-0.068-1.911,0.154-2.837,0.116
		c-0.386-0.01-0.772-0.154-1.158-0.173c-0.936-0.029-1.998,0.251-2.895,0.231c0.203-1.979,0.647-3.716,0.869-5.674
		c1.283-0.55,2.692-0.309,4.111-0.348c1.09-0.029,2.277-0.251,3.474-0.347c2.316-0.164,4.806-0.222,7.237-0.405
		c1.187-0.087,2.326-0.309,3.416-0.347c1.409-0.039,3.098,0.048,4.343,0C61.076,150.972,61.53,150.749,61.907,150.914
		L61.907,150.914z"/>
	<path fill-rule="evenodd" clip-rule="evenodd" fill="#FFFFFF" d="M55.016,24.978c0.194,0.791-0.019,1.477,0.058,2.548
		c-0.666-2.123-1.757-4.034-2.837-6.022c-1.033-1.92-1.689-4.082-2.78-6.079c-1.505-2.77-3.455-5.375-5.5-7.817
		c-0.271-0.328-0.608-0.743-0.984-1.216c-0.319-0.396-0.917-0.994-0.927-1.274c-0.019-0.588,0.791-0.907,0.985-1.216
		c0.039,0,0.077,0,0.116,0c1.322,1.139,2.441,2.51,3.474,3.938c1.023,1.399,2.22,2.721,3.185,4.168
		c1.978,2.943,3.465,6.331,4.574,10.133C53.752,23.318,54.765,23.955,55.016,24.978L55.016,24.978z"/>
	<path fill-rule="evenodd" clip-rule="evenodd" fill="#FFFFFF" d="M52.179,27.815c0.009,1.081,1.428,1.93,1.331,3.185
		c-0.058,0.704-1.361,2.084-1.968,2.779c-1.535,1.747-3.175,3.079-4.864,4.632c-2.402,2.21-5.095,4.458-7.411,6.774
		c-0.792,0.792-1.535,1.641-2.374,2.374c-0.84,0.734-1.834,1.361-2.548,2.143c-0.522,0.569-0.579,1.196-1.39,1.331
		c-0.155,0.183-0.493,0.396-0.753,0.637c-0.192,0.173-0.502,0.646-0.521,0.463c1.313-1.65,0.318-5.018-2.142-4.111
		c-0.878,0.319-1.477,1.467-2.142,1.738c0.338-1.149-0.946-2.789-1.564-2.953c-1.052-0.28-2.026,0.511-2.432,0.926
		c-0.308,0.319-0.627,1.312-0.926,1.332c-0.125,0-0.82-0.675-1.042-0.811c-0.357-0.222-0.917-0.55-1.332-0.521
		c-0.434,0.029-0.984,0.646-1.332,0.637c-0.212-0.01-0.859-0.55-1.042-0.753c-0.502-0.55-0.839-1.283-1.331-1.911
		c-0.936-1.196-2.036-2.258-3.069-3.416c-1.168-1.313-2.596-2.403-4.169-3.301c2.48-3.136,5.173-6.263,7.701-9.495
		c0.994-1.274,1.863-2.635,2.837-3.995c0.482-0.676,1.158-1.254,1.506-1.911c0.396-0.743,0.618-1.476,1.1-2.142
		c0.453-0.627,0.946-1.187,1.39-1.853c0.878-1.312,1.447-2.818,2.142-4.285c1.361-2.885,2.895-5.723,3.937-8.974
		C31.035,6.845,32,7.656,33.245,8.187c0.251,0.482,0.531,0.936,1.332,0.869c4.536,3.513,8.879,6.987,12.391,11.522
		c0.511,0.656,0.927,1.4,1.448,2.085c0.656,0.849,1.332,1.631,1.911,2.548C50.896,26.098,51.426,27.033,52.179,27.815L52.179,27.815
		z"/>
	<path fill-rule="evenodd" clip-rule="evenodd" fill="#FFFFFF" d="M52.642,25.731c0.125,0.473-0.193-0.348-0.289-0.521
		c-0.473-0.869-0.897-1.727-1.448-2.548c-0.675-1.032-1.621-1.949-2.432-2.953c-1.949-2.441-3.879-5.144-6.311-7.122
		c-0.463-0.376-1.1-0.666-1.564-1.1c-0.366-0.357-0.569-0.859-0.984-1.216c-0.772-0.676-1.573-1.061-2.548-1.737
		c-0.396-0.28-1.043-0.763-1.1-1.043c-0.106-0.511,0.213-1.389,0.348-1.91c0.173-0.656,0.376-1.158,0.695-1.563
		c2.326,1.109,3.436,3.29,4.922,5.095c1.11,1.341,2.355,2.654,3.417,4.111c0.357,0.482,0.608,1.1,0.984,1.506
		c0.241,0.26,0.492,0.26,0.695,0.463c0.395,0.386,0.704,1.11,1.042,1.68c1.332,2.18,2.673,4.69,3.764,7.005
		C52.102,24.437,52.353,24.65,52.642,25.731L52.642,25.731z"/>
	<path fill-rule="evenodd" clip-rule="evenodd" fill="#FFFFFF" d="M36.835,142.75c0.289,0.656-0.048,1.37-0.174,2.027
		c-0.261,1.438-0.511,2.895-0.811,4.284c-0.145,0.695-0.386,1.4-0.463,2.027c-0.106,0.897-0.058,1.795-0.174,2.663
		c-0.106,0.82-0.251,1.621-0.405,2.432c-0.357,1.872-0.772,3.358-0.985,5.385c-0.105,1.042-0.482,2.133-0.695,3.184
		c-0.068,0.367,0.019,0.763-0.058,1.11c-0.096,0.463-0.27,0.965-0.405,1.622c-0.309,1.592-0.647,3.349-0.984,5.028
		c-2.914,0.473-6.659,0.097-9.728,0.415c0.435-5.201,0.975-10.046,1.911-14.716c0.463-2.287,1.138-4.545,1.505-6.832
		c0.387-2.374,0.666-4.748,1.1-7.18c0.058-0.328,0.116-0.569,0-0.926c1.824-0.27,4.237-0.309,6.369-0.405
		c0.84-0.029,1.795,0.058,2.258-0.232C35.725,142.634,36.314,142.653,36.835,142.75L36.835,142.75z"/>
	<path fill-rule="evenodd" clip-rule="evenodd" fill="#FFFFFF" d="M35.214,71.704c-0.56-0.019-1.216,0.068-1.621-0.116
		c-0.039-0.675,0.087-1.187,0.29-1.621C34.394,70.479,34.867,71.039,35.214,71.704L35.214,71.704z"/>
	<path fill-rule="evenodd" clip-rule="evenodd" fill="#FFFFFF" d="M33.94,54.508c0.299,0.965-0.406,1.708-0.984,2.2
		c-1.795,1.554-3.967,2.963-5.617,4.632c-0.337,2.027,1.611,2.557,2.142,3.706c-1.206,0.212-2.181-0.039-3.185-0.289
		c-0.559-0.145-1.177-0.183-1.563-0.348c-0.251-0.106-0.309-0.318-0.579-0.348c-0.183-0.019-0.415,0.135-0.579,0.058
		c-0.81,1.274-1.332,3.349-1.506,5.501c-0.231,2.972,0.145,6.36,1.332,8.106c-0.492,6.186-1.409,11.947-2.663,17.371
		c-0.811-0.116-1.448-0.753-1.969-1.274c-1.65-1.65-2.789-3.599-3.821-5.906c-1.351-3.021-2.365-6.427-2.606-10.306
		c-0.27-4.295,0.859-7.537,2.201-10.654c1.322-3.059,2.905-5.877,4.632-8.28c0.28-0.125,0.666-0.145,0.869-0.347
		c0.087-1.737-1.071-3.378-1.215-5.211c-0.097-1.225,0.105-2.538,0.984-3.069c1.148,0.55,1.293,1.708,1.736,3.243
		c0.126,0.425,0.29,2.307,0.811,2.316c0.376,0.009,0.646-0.743,0.694-1.042c0.116-0.753-0.067-1.786,0-2.432
		c0.145-1.409,1.081-3.069,2.027-3.59c0.907-0.502,0.521,1.447,0.463,2.143c-0.078,0.994-0.02,1.997-0.232,2.895
		c-0.203,0.878-0.618,1.544,0.173,2.142c1.833-1.737,2.104-5.037,4.632-6.079c0.473,0.299,0.348,1.004,0.232,1.447
		c-0.521,2.017-2.249,3.812-2.953,5.732c0.125,0.174,0.26,0.251,0.405,0.463c0.155,0.222,0.078,0.473,0.348,0.521
		c0.347,0.058,0.791-0.685,0.984-0.81c0.395-0.261,0.83-0.386,1.216-0.695C31.209,55.617,32.474,54.084,33.94,54.508L33.94,54.508z"
		/>
	<path fill-rule="evenodd" clip-rule="evenodd" d="M73.776,111.135c-0.289,0.154-0.184,0.54-0.348,0.811
		c-0.144,0.26-0.521,0.502-0.752,0.811c-0.608,0.82-1.303,1.969-2.027,2.605c-0.51,0.454-1.177,0.888-1.794,1.332
		c-2.992,2.191-6.331,4.043-10.249,5.385c-1.583,0.55-3.358,1.187-4.922,1.332c-1.505,0.145-3.001-0.135-4.574-0.232
		c-1.477-0.087-3.049-0.029-4.517-0.232c-0.965-0.125-1.833-0.627-2.779-0.869c-0.357-0.087-0.715-0.019-1.042-0.116
		c-0.531-0.154-0.984-0.608-1.794-0.579c-0.271-0.27-0.792-0.28-1.042-0.579c-2.191-0.415-3.639-2.123-5.443-3.011
		c-0.251-0.125-0.56-0.145-0.81-0.289c-1.197-0.685-2.142-1.872-3.068-2.895c-0.946-1.042-1.824-2.171-2.663-3.243
		c-0.791,0.251-0.937,1.351-1.968,1.216c-0.454-0.058-0.521-0.405-0.753-0.926c-0.164-0.367-0.56-0.762-0.521-1.158
		c0.039-0.463,0.656-0.646,0.927-0.984c0.28-0.338,0.473-0.801,0.81-1.216c0.27-0.328,0.637-0.618,0.985-0.984
		c0.598-0.628,1.592-1.843,2.2-1.795c0.646,0.058,0.56,0.888,0.985,1.158c0.241,0.154,0.396,0,0.753,0.173
		c0.54,1.033-0.56,1.293-0.985,1.737c0.376,0.618,0.936,1.1,1.39,1.621c0.907,1.042,1.853,2.21,2.895,3.127
		c0.569,0.502,1.119,0.772,1.795,1.216c0.801,0.531,1.274,1.544,2.084,2.085c0.232,0.154,0.656,0.183,0.985,0.347
		c0.367,0.193,0.627,0.55,0.984,0.753c1.071,0.618,2.248,1.091,3.59,1.506c1.689,0.521,3.648,1.042,5.617,1.216
		c3.271,0.299,6.842-0.126,9.438-0.81c1.273-0.328,2.403-0.907,3.59-1.506c1.216-0.608,2.461-1.032,3.417-1.679
		c1.93-1.284,3.57-2.47,5.095-4.227c0.328-0.376,0.617-0.82,0.984-1.332c0.309-0.415,0.821-0.994,0.811-1.448
		c-0.019-0.994-1.225-1.158-1.216-1.968c0.01-0.386,1.168-2.075,1.68-2.084c0.453,0,1.09,0.578,1.563,0.926
		c0.434,0.328,0.868,0.666,1.332,0.985c0.84,0.579,2.46,1.331,2.606,2.084c0.096,0.492-0.223,1.302-0.406,1.621
		c-0.309,0.55-1.264,1.274-1.795,1.216C74.22,112.178,74.22,111.473,73.776,111.135L73.776,111.135z"/>
	<path fill-rule="evenodd" clip-rule="evenodd" d="M44.768,91.391c-0.01-0.048,0.028-0.048,0.058-0.058
		c0.994,0.772,2.635,1.216,2.837,2.664c0.231,1.601-0.86,2.818-1.853,3.531c-0.753,0.058-1.458,0.164-2.201,0.232
		c-0.628-0.56-1.429-0.666-1.969-1.39c-0.744-0.994-0.531-3.05,0.405-3.764c0.173-0.125,0.435-0.107,0.637-0.232
		c0.193-0.116,0.289-0.357,0.463-0.463C43.551,91.671,44.237,91.632,44.768,91.391L44.768,91.391z"/>
	<path fill-rule="evenodd" clip-rule="evenodd" d="M57.969,96.776c-0.666,0.492-1.998,0.318-3.127,0.347
		c-0.926-1.109-2.162-2.557-1.564-4.574c0.184-0.618,1.033-1.515,1.622-1.737c1.399-0.521,3.59,0.463,4.052,1.622
		C59.649,94.17,58.374,95.464,57.969,96.776L57.969,96.776z"/>
	<path d="M99.3,120.819h9.098c2.064,0,3.704,0.598,4.925,1.799c1.216,1.196,1.824,2.612,1.824,4.247
		c0,1.695-0.603,3.146-1.805,4.352c-1.201,1.206-2.841,1.809-4.915,1.809h-4.043v8.195H99.3V120.819L99.3,120.819z M104.385,124.557
		v4.731h2.363c2.114,0,3.17-0.788,3.17-2.363c0-0.887-0.284-1.5-0.847-1.849c-0.564-0.344-1.53-0.518-2.891-0.518H104.385
		L104.385,124.557z"/>
	<path d="M117.05,120.819h9.112c1.979,0,3.584,0.573,4.821,1.715c1.236,1.147,1.854,2.532,1.854,4.158
		c0,2.248-1.166,3.913-3.504,4.995c1.032,0.459,2.009,1.71,2.926,3.754c0.922,2.044,1.809,3.973,2.667,5.782h-5.593
		c-0.329-0.673-0.907-1.954-1.73-3.844c-0.823-1.884-1.53-3.1-2.119-3.634c-0.588-0.533-1.221-0.803-1.889-0.803h-1.461v8.28h-5.085
		V120.819L117.05,120.819z M122.134,124.557v4.646h2.687c0.857,0,1.535-0.204,2.034-0.608c0.503-0.404,0.753-0.977,0.753-1.73
		c0-1.535-0.967-2.308-2.906-2.308H122.134L122.134,124.557z"/>
	<path d="M148.396,120.819l9.052,20.403h-5.464l-1.68-4.033h-9.127l-1.515,4.033h-5.389l8.22-20.403H148.396L148.396,120.819z
		 M148.805,133.63l-3.29-7.931l-2.991,7.931H148.805L148.805,133.63z"/>
	<polygon points="172.975,120.819 172.975,124.557 165.587,124.557 165.587,141.222 160.503,141.222 160.503,124.557 
		153.115,124.557 153.115,120.819 172.975,120.819 	"/>
	<polygon points="195.598,120.819 195.598,141.222 190.513,141.222 190.513,132.972 180.349,132.972 180.349,141.222 
		175.269,141.222 175.269,120.819 180.349,120.819 180.349,129.014 190.513,129.014 190.513,120.819 195.598,120.819 	"/>
	<path d="M211.257,120.819l9.052,20.403h-5.464l-1.68-4.033h-9.127l-1.515,4.033h-5.389l8.22-20.403H211.257L211.257,120.819z
		 M211.665,133.63l-3.29-7.931l-2.991,7.931H211.665L211.665,133.63z"/>
	<polygon points="232.813,128.386 239.373,120.819 243.794,120.819 243.794,141.222 238.715,141.222 238.715,128.485 
		233.207,134.886 232.434,134.886 226.931,128.485 226.931,141.222 221.846,141.222 221.846,120.819 226.273,120.819 
		232.813,128.386 	"/>
	<path d="M98.265,155.504h8.823c2.099,0,3.754,0.509,4.955,1.52c1.202,1.012,1.805,2.208,1.805,3.594
		c0,1.77-0.932,3.131-2.792,4.073c1.406,0.369,2.478,1.022,3.22,1.959c0.748,0.932,1.122,2.024,1.122,3.27
		c0,1.77-0.613,3.21-1.829,4.322c-1.216,1.112-3.006,1.665-5.374,1.665h-9.93V155.504L98.265,155.504z M103.349,159.242v4.367h2.657
		c0.818,0,1.456-0.209,1.914-0.628c0.454-0.419,0.683-0.942,0.683-1.575c0-0.623-0.229-1.142-0.683-1.55
		c-0.459-0.409-1.097-0.613-1.914-0.613H103.349L103.349,159.242z M103.349,167.348v4.821h2.861c1.351,0,2.328-0.19,2.921-0.563
		c0.593-0.374,0.888-1.022,0.888-1.949c0-0.708-0.279-1.271-0.842-1.685c-0.568-0.414-1.321-0.623-2.268-0.623H103.349
		L103.349,167.348z"/>
	<path d="M127.891,155.239c3.474,0,6.291,1.052,8.44,3.15c2.153,2.099,3.23,4.536,3.23,7.323c0,2.822-1.092,5.274-3.27,7.348
		c-2.184,2.074-4.985,3.111-8.4,3.111c-3.455,0-6.271-1.032-8.439-3.096c-2.174-2.064-3.26-4.521-3.26-7.363
		c0-2.792,1.082-5.239,3.235-7.333C121.585,156.286,124.407,155.239,127.891,155.239L127.891,155.239z M127.891,171.934
		c1.929,0,3.479-0.573,4.661-1.715c1.176-1.147,1.765-2.647,1.765-4.507c0-1.869-0.588-3.375-1.765-4.511
		c-1.182-1.142-2.732-1.71-4.661-1.71c-1.939,0-3.499,0.568-4.681,1.71c-1.181,1.137-1.774,2.642-1.774,4.511
		c0,1.859,0.593,3.36,1.774,4.507C124.392,171.361,125.952,171.934,127.891,171.934L127.891,171.934z"/>
	<path d="M153.231,155.239c3.474,0,6.291,1.052,8.44,3.15c2.153,2.099,3.23,4.536,3.23,7.323c0,2.822-1.092,5.274-3.27,7.348
		c-2.184,2.074-4.985,3.111-8.4,3.111c-3.455,0-6.271-1.032-8.439-3.096c-2.174-2.064-3.26-4.521-3.26-7.363
		c0-2.792,1.082-5.239,3.235-7.333C146.925,156.286,149.747,155.239,153.231,155.239L153.231,155.239z M153.231,171.934
		c1.929,0,3.48-0.573,4.661-1.715c1.176-1.147,1.765-2.647,1.765-4.507c0-1.869-0.588-3.375-1.765-4.511
		c-1.181-1.142-2.732-1.71-4.661-1.71c-1.939,0-3.499,0.568-4.681,1.71c-1.181,1.137-1.775,2.642-1.775,4.511
		c0,1.859,0.593,3.36,1.775,4.507C149.732,171.361,151.292,171.934,153.231,171.934L153.231,171.934z"/>
	<polygon points="183.635,155.504 176.99,165.085 185.998,175.907 179.632,175.907 171.557,166.341 171.557,175.907 
		166.472,175.907 166.472,155.504 171.557,155.504 171.557,164.691 178.037,155.504 183.635,155.504 	"/>
	<path d="M201.024,156.819v3.988c-2.707-1.216-4.86-1.829-6.466-1.829c-0.917,0-1.645,0.154-2.183,0.464
		c-0.543,0.304-0.813,0.713-0.813,1.216c0,0.394,0.194,0.763,0.583,1.112c0.389,0.349,1.341,0.803,2.846,1.361
		c1.511,0.553,2.717,1.067,3.624,1.545c0.907,0.479,1.685,1.152,2.343,2.014c0.658,0.867,0.987,1.964,0.987,3.29
		c0,1.884-0.718,3.39-2.153,4.511c-1.435,1.117-3.33,1.68-5.673,1.68c-2.533,0-4.985-0.658-7.363-1.974V169.8
		c1.366,0.917,2.572,1.585,3.624,2.004c1.052,0.419,2.163,0.628,3.345,0.628c1.994,0,2.991-0.628,2.991-1.884
		c0-0.429-0.199-0.832-0.598-1.211c-0.399-0.384-1.361-0.842-2.886-1.391c-1.521-0.543-2.727-1.052-3.619-1.515
		c-0.892-0.469-1.66-1.137-2.308-2.004c-0.648-0.867-0.972-1.974-0.972-3.33c0-1.75,0.708-3.165,2.119-4.242
		c1.411-1.077,3.3-1.615,5.668-1.615C196.298,155.239,198.601,155.768,201.024,156.819L201.024,156.819z"/>
	<path d="M21.222,200.922l1.441,4.245h1.862l-4.605-13.496h-2.083l-4.605,13.496h1.803l1.4-4.245H21.222L21.222,200.922z
		 M16.797,199.56l1.321-3.903c0.141-0.414,0.264-0.825,0.371-1.239c0.109-0.409,0.213-0.813,0.309-1.205h0.041
		c0.096,0.387,0.202,0.788,0.313,1.195c0.111,0.406,0.241,0.828,0.387,1.268l1.342,3.883H16.797L16.797,199.56z M30.328,205.127
		c0.289,0.04,0.663,0.077,1.117,0.109c0.455,0.031,0.985,0.047,1.586,0.051c1.102,0,2.035-0.101,2.803-0.308
		c0.77-0.207,1.385-0.524,1.841-0.954c0.354-0.32,0.638-0.705,0.845-1.155c0.207-0.451,0.313-0.968,0.318-1.548
		c-0.005-0.502-0.091-0.945-0.254-1.328c-0.167-0.384-0.384-0.719-0.658-0.992c-0.274-0.277-0.571-0.501-0.899-0.674
		c-0.323-0.174-0.65-0.298-0.974-0.371v-0.06c0.471-0.17,0.874-0.404,1.215-0.697c0.34-0.293,0.604-0.635,0.788-1.022
		c0.183-0.387,0.277-0.801,0.28-1.244c-0.003-0.53-0.107-0.998-0.306-1.395c-0.204-0.397-0.48-0.727-0.835-0.988
		c-0.27-0.227-0.58-0.414-0.931-0.557c-0.35-0.143-0.754-0.251-1.205-0.32c-0.453-0.071-0.971-0.104-1.547-0.104
		c-0.404,0-0.801,0.013-1.192,0.037c-0.39,0.027-0.754,0.06-1.094,0.107c-0.344,0.044-0.641,0.096-0.897,0.157V205.127
		L30.328,205.127z M32.07,193.033c0.136-0.034,0.326-0.059,0.574-0.084c0.247-0.023,0.57-0.037,0.967-0.037
		c0.591-0.003,1.108,0.074,1.546,0.224c0.439,0.15,0.784,0.387,1.028,0.714c0.244,0.323,0.367,0.744,0.37,1.264
		c0,0.438-0.116,0.828-0.347,1.172c-0.23,0.34-0.56,0.611-0.994,0.806c-0.431,0.201-0.951,0.3-1.562,0.305H32.07V193.033
		L32.07,193.033z M32.07,198.7h1.442c0.48,0,0.927,0.049,1.348,0.15c0.417,0.1,0.788,0.256,1.108,0.468
		c0.32,0.21,0.57,0.48,0.751,0.811c0.18,0.326,0.274,0.72,0.277,1.174c-0.003,0.488-0.101,0.901-0.288,1.239
		c-0.186,0.337-0.443,0.608-0.767,0.811c-0.327,0.204-0.694,0.35-1.108,0.44c-0.414,0.091-0.848,0.136-1.301,0.133
		c-0.311,0-0.587-0.007-0.828-0.017c-0.244-0.012-0.454-0.032-0.634-0.062V198.7L32.07,198.7z M45.092,195.276
		c-0.67,0-1.294,0.117-1.875,0.347c-0.577,0.231-1.087,0.567-1.525,1.008c-0.441,0.44-0.781,0.978-1.028,1.608
		c-0.247,0.634-0.374,1.355-0.377,2.163c0.003,0.767,0.123,1.459,0.36,2.072c0.237,0.611,0.564,1.134,0.988,1.569
		c0.421,0.434,0.911,0.767,1.471,0.998c0.564,0.23,1.172,0.343,1.826,0.346c0.468,0,0.935-0.062,1.395-0.19
		c0.461-0.13,0.899-0.323,1.308-0.591c0.411-0.264,0.775-0.596,1.096-1.003c0.316-0.408,0.567-0.891,0.747-1.448
		c0.184-0.557,0.278-1.195,0.281-1.912c-0.003-0.739-0.113-1.412-0.337-2.02c-0.224-0.604-0.54-1.128-0.951-1.568
		c-0.414-0.44-0.904-0.778-1.475-1.018C46.425,195.399,45.79,195.28,45.092,195.276L45.092,195.276z M45.053,196.598
		c0.417,0.003,0.784,0.079,1.101,0.227c0.32,0.15,0.594,0.35,0.821,0.604c0.227,0.254,0.414,0.54,0.561,0.861
		c0.143,0.318,0.249,0.652,0.32,0.998c0.067,0.344,0.099,0.684,0.099,1.015c-0.003,0.547-0.077,1.052-0.223,1.508
		c-0.147,0.458-0.352,0.854-0.618,1.192c-0.264,0.337-0.574,0.597-0.931,0.784c-0.357,0.184-0.747,0.278-1.171,0.281
		c-0.431-0.003-0.828-0.096-1.185-0.283c-0.354-0.187-0.665-0.448-0.924-0.781c-0.258-0.337-0.458-0.731-0.601-1.182
		c-0.14-0.454-0.214-0.944-0.214-1.478c0-0.461,0.057-0.91,0.174-1.355c0.116-0.439,0.293-0.841,0.533-1.201
		c0.241-0.36,0.551-0.645,0.926-0.862C44.095,196.711,44.538,196.6,45.053,196.598L45.053,196.598z M55.873,195.276
		c-0.67,0-1.294,0.117-1.875,0.347c-0.577,0.231-1.087,0.567-1.525,1.008c-0.441,0.44-0.781,0.978-1.028,1.608
		c-0.247,0.634-0.374,1.355-0.377,2.163c0.003,0.767,0.123,1.459,0.36,2.072c0.237,0.611,0.564,1.134,0.988,1.569
		c0.421,0.434,0.911,0.767,1.471,0.998c0.564,0.23,1.172,0.343,1.826,0.346c0.468,0,0.935-0.062,1.395-0.19
		c0.461-0.13,0.899-0.323,1.308-0.591c0.411-0.264,0.775-0.596,1.096-1.003c0.316-0.408,0.567-0.891,0.747-1.448
		c0.184-0.557,0.278-1.195,0.281-1.912c-0.003-0.739-0.113-1.412-0.337-2.02c-0.224-0.604-0.54-1.128-0.951-1.568
		c-0.414-0.44-0.904-0.778-1.475-1.018C57.205,195.399,56.57,195.28,55.873,195.276L55.873,195.276z M55.833,196.598
		c0.417,0.003,0.784,0.079,1.101,0.227c0.32,0.15,0.594,0.35,0.821,0.604c0.227,0.254,0.414,0.54,0.561,0.861
		c0.143,0.318,0.249,0.652,0.32,0.998c0.067,0.344,0.099,0.684,0.099,1.015c-0.003,0.547-0.077,1.052-0.223,1.508
		c-0.147,0.458-0.352,0.854-0.618,1.192c-0.264,0.337-0.574,0.597-0.931,0.784c-0.357,0.184-0.747,0.278-1.171,0.281
		c-0.431-0.003-0.828-0.096-1.185-0.283c-0.354-0.187-0.665-0.448-0.924-0.781c-0.258-0.337-0.458-0.731-0.601-1.182
		c-0.14-0.454-0.214-0.944-0.214-1.478c0-0.461,0.057-0.91,0.174-1.355c0.116-0.439,0.293-0.841,0.533-1.201
		c0.241-0.36,0.551-0.645,0.925-0.862C54.875,196.711,55.318,196.6,55.833,196.598L55.833,196.598z M64.29,190.951h-1.742v14.216
		h1.742v-3.644l0.901-1.001l3.324,4.644h2.163l-4.265-5.706l3.723-3.984h-2.102l-2.863,3.343c-0.143,0.173-0.288,0.357-0.438,0.55
		c-0.146,0.194-0.279,0.377-0.403,0.552H64.29V190.951L64.29,190.951z M77.521,205.167v-9.69h-1.762v9.69H77.521L77.521,205.167z
		 M76.641,191.671c-0.221,0.005-0.414,0.054-0.581,0.15c-0.163,0.101-0.291,0.234-0.38,0.399c-0.094,0.166-0.14,0.35-0.14,0.553
		c0,0.204,0.047,0.384,0.133,0.548c0.086,0.163,0.21,0.289,0.367,0.387c0.16,0.096,0.347,0.143,0.561,0.146
		c0.232-0.003,0.434-0.049,0.6-0.146c0.167-0.098,0.298-0.224,0.388-0.387c0.086-0.164,0.133-0.344,0.133-0.548
		c0-0.21-0.047-0.397-0.137-0.56c-0.089-0.167-0.217-0.298-0.38-0.394C77.044,191.722,76.855,191.676,76.641,191.671L76.641,191.671
		z M80.232,205.167h1.761v-5.826c0-0.153,0.011-0.3,0.031-0.441c0.02-0.143,0.05-0.269,0.09-0.38c0.11-0.33,0.278-0.635,0.5-0.904
		c0.227-0.27,0.498-0.488,0.815-0.647c0.317-0.163,0.663-0.247,1.047-0.251c0.414,0.005,0.764,0.078,1.052,0.228
		c0.286,0.149,0.518,0.355,0.694,0.616c0.173,0.264,0.3,0.567,0.38,0.912c0.081,0.347,0.121,0.714,0.116,1.108v5.585h1.763V199.4
		c-0.004-0.663-0.081-1.23-0.228-1.705c-0.146-0.473-0.343-0.867-0.59-1.18c-0.246-0.315-0.521-0.564-0.821-0.744
		c-0.3-0.18-0.605-0.307-0.916-0.384c-0.306-0.076-0.597-0.113-0.87-0.111c-0.534,0.007-1.015,0.094-1.436,0.268
		c-0.424,0.173-0.784,0.393-1.08,0.668c-0.297,0.273-0.527,0.56-0.687,0.867h-0.041l-0.099-1.602h-1.562
		c0.029,0.397,0.049,0.803,0.062,1.227c0.011,0.423,0.017,0.887,0.017,1.395V205.167L80.232,205.167z M102.192,197.399h-5.226
		v-4.265h5.546v-1.463h-7.308v13.496h7.608v-1.461h-5.846v-4.866h5.226V197.399L102.192,197.399z M103.461,195.477l3.684,9.69h1.682
		l3.804-9.69h-1.843l-1.882,5.426c-0.16,0.446-0.31,0.877-0.446,1.288c-0.14,0.41-0.264,0.818-0.374,1.215h-0.06
		c-0.101-0.397-0.214-0.805-0.344-1.215c-0.13-0.411-0.276-0.842-0.437-1.288l-1.902-5.426H103.461L103.461,195.477z
		 M121.669,200.642c0.02-0.099,0.037-0.217,0.047-0.35c0.01-0.133,0.013-0.29,0.013-0.471c0.003-0.36-0.033-0.747-0.111-1.158
		c-0.077-0.411-0.203-0.814-0.383-1.212c-0.177-0.4-0.421-0.76-0.724-1.087c-0.308-0.328-0.692-0.591-1.148-0.788
		c-0.458-0.193-1.005-0.297-1.638-0.3c-0.707,0.004-1.342,0.137-1.902,0.404c-0.561,0.264-1.035,0.631-1.429,1.102
		c-0.394,0.473-0.694,1.024-0.901,1.655c-0.207,0.628-0.31,1.311-0.313,2.045c0.003,0.734,0.111,1.402,0.323,2
		c0.217,0.599,0.531,1.117,0.941,1.548c0.411,0.434,0.911,0.768,1.498,1.001c0.589,0.238,1.256,0.354,2.003,0.357
		c0.514-0.003,0.978-0.037,1.389-0.099c0.41-0.064,0.77-0.141,1.08-0.234c0.31-0.096,0.568-0.19,0.775-0.287l-0.32-1.261
		c-0.211,0.094-0.445,0.181-0.702,0.253c-0.254,0.078-0.544,0.138-0.867,0.181c-0.323,0.042-0.697,0.067-1.114,0.067
		c-0.448,0-0.872-0.064-1.266-0.192c-0.397-0.126-0.744-0.326-1.05-0.596c-0.305-0.271-0.545-0.621-0.722-1.045
		c-0.18-0.426-0.273-0.938-0.288-1.532H121.669L121.669,200.642z M114.881,199.38c0.033-0.311,0.109-0.631,0.227-0.961
		c0.119-0.328,0.286-0.634,0.5-0.917c0.217-0.287,0.488-0.517,0.814-0.692c0.325-0.176,0.712-0.269,1.162-0.273
		c0.394,0.004,0.734,0.066,1.018,0.19c0.284,0.125,0.517,0.287,0.704,0.494c0.187,0.204,0.333,0.434,0.439,0.68
		c0.108,0.251,0.184,0.505,0.224,0.761c0.044,0.253,0.064,0.494,0.057,0.717H114.881L114.881,199.38z M123.698,205.167h1.762v-5.166
		c0-0.143,0.004-0.283,0.014-0.427c0.01-0.14,0.027-0.273,0.047-0.394c0.079-0.443,0.23-0.835,0.444-1.168
		c0.214-0.337,0.484-0.598,0.808-0.788c0.323-0.187,0.694-0.283,1.111-0.286c0.12,0,0.227,0,0.323,0.003
		c0.096,0.007,0.187,0.017,0.278,0.037v-1.661c-0.081-0.011-0.157-0.021-0.234-0.027c-0.076-0.01-0.157-0.014-0.247-0.014
		c-0.398,0.004-0.775,0.091-1.128,0.261c-0.354,0.173-0.668,0.417-0.941,0.734c-0.274,0.317-0.485,0.69-0.635,1.128h-0.06
		l-0.079-1.922h-1.542c0.03,0.446,0.05,0.92,0.062,1.421c0.011,0.496,0.017,1.031,0.017,1.602V205.167L123.698,205.167z
		 M129.253,195.477l3.565,8.929c0.05,0.111,0.086,0.2,0.106,0.273c0.024,0.077,0.034,0.138,0.034,0.187
		c0,0.05-0.014,0.111-0.041,0.18c-0.026,0.071-0.06,0.15-0.099,0.241c-0.217,0.451-0.454,0.843-0.717,1.175
		c-0.264,0.333-0.517,0.594-0.765,0.787c-0.264,0.221-0.53,0.401-0.801,0.544c-0.269,0.14-0.517,0.247-0.74,0.318l0.439,1.461
		c0.15-0.027,0.337-0.08,0.561-0.16c0.224-0.084,0.473-0.204,0.747-0.36c0.274-0.155,0.558-0.354,0.855-0.601
		c0.298-0.264,0.581-0.571,0.848-0.929c0.271-0.357,0.53-0.774,0.791-1.257c0.261-0.481,0.527-1.042,0.805-1.68
		c0.274-0.641,0.567-1.375,0.88-2.203l2.643-6.906h-1.862l-1.922,5.686c-0.12,0.353-0.231,0.707-0.334,1.055
		c-0.099,0.35-0.196,0.673-0.286,0.967h-0.04c-0.054-0.196-0.113-0.403-0.184-0.631c-0.069-0.222-0.143-0.449-0.22-0.68
		c-0.077-0.234-0.157-0.454-0.237-0.67l-2.103-5.726H129.253L129.253,195.477z M152.915,203.344
		c-0.237,0.113-0.507,0.214-0.814,0.298c-0.308,0.084-0.635,0.147-0.982,0.194c-0.35,0.046-0.703,0.069-1.067,0.069
		c-1.091-0.007-2.023-0.227-2.789-0.667c-0.768-0.441-1.355-1.065-1.763-1.875c-0.407-0.808-0.609-1.769-0.614-2.883
		c0.005-0.888,0.13-1.675,0.377-2.367c0.251-0.687,0.608-1.271,1.069-1.744c0.464-0.478,1.018-0.838,1.661-1.085
		c0.648-0.248,1.365-0.371,2.16-0.371c0.564,0.005,1.074,0.057,1.531,0.16c0.458,0.103,0.848,0.237,1.172,0.401l0.441-1.421
		c-0.155-0.084-0.377-0.17-0.668-0.264c-0.291-0.091-0.648-0.17-1.069-0.234c-0.424-0.066-0.914-0.1-1.468-0.103
		c-1.05,0.003-2.005,0.173-2.866,0.51c-0.861,0.337-1.602,0.818-2.227,1.441c-0.624,0.625-1.104,1.372-1.441,2.237
		c-0.34,0.867-0.51,1.836-0.513,2.9c0.006,1.111,0.173,2.092,0.503,2.947c0.33,0.85,0.794,1.565,1.395,2.143
		c0.598,0.579,1.298,1.018,2.106,1.314c0.804,0.294,1.685,0.444,2.643,0.444c0.55-0.003,1.055-0.033,1.515-0.094
		c0.461-0.062,0.867-0.143,1.215-0.24c0.347-0.096,0.624-0.197,0.833-0.307L152.915,203.344L152.915,203.344z M155.186,205.167
		h1.762v-5.846c0-0.16,0.007-0.308,0.024-0.444c0.017-0.137,0.047-0.268,0.096-0.397c0.113-0.317,0.283-0.608,0.51-0.871
		c0.224-0.261,0.495-0.47,0.808-0.628c0.315-0.16,0.665-0.239,1.045-0.242c0.414,0.003,0.764,0.077,1.052,0.227
		c0.286,0.15,0.517,0.357,0.695,0.616c0.173,0.264,0.3,0.567,0.38,0.912c0.081,0.347,0.121,0.714,0.116,1.108v5.566h1.763V199.4
		c-0.004-0.663-0.081-1.23-0.228-1.705c-0.146-0.473-0.343-0.867-0.59-1.18c-0.244-0.315-0.515-0.564-0.815-0.744
		c-0.296-0.18-0.597-0.307-0.9-0.384c-0.305-0.076-0.588-0.113-0.852-0.111c-0.33,0-0.651,0.044-0.954,0.128
		c-0.305,0.083-0.588,0.202-0.848,0.353c-0.271,0.155-0.514,0.337-0.728,0.554c-0.213,0.221-0.393,0.454-0.533,0.707h-0.041v-6.066
		h-1.762V205.167L155.186,205.167z M167.847,205.167v-9.69h-1.762v9.69H167.847L167.847,205.167z M166.967,191.671
		c-0.221,0.005-0.414,0.054-0.581,0.15c-0.163,0.101-0.291,0.234-0.38,0.399c-0.094,0.166-0.14,0.35-0.14,0.553
		c0,0.204,0.047,0.384,0.133,0.548c0.086,0.163,0.21,0.289,0.367,0.387c0.16,0.096,0.347,0.143,0.561,0.146
		c0.232-0.003,0.434-0.049,0.6-0.146c0.167-0.098,0.298-0.224,0.388-0.387c0.086-0.164,0.133-0.344,0.133-0.548
		c0-0.21-0.047-0.397-0.138-0.56c-0.089-0.167-0.217-0.298-0.38-0.394C167.37,191.722,167.181,191.676,166.967,191.671
		L166.967,191.671z M170.558,205.167h1.762v-14.216h-1.762V205.167L170.558,205.167z M181.678,190.951v5.787h-0.04
		c-0.147-0.258-0.354-0.498-0.621-0.719c-0.264-0.219-0.591-0.397-0.975-0.533c-0.383-0.137-0.826-0.207-1.328-0.211
		c-0.59,0.004-1.148,0.12-1.668,0.357c-0.524,0.236-0.988,0.578-1.388,1.027c-0.404,0.448-0.719,0.992-0.948,1.633
		c-0.227,0.637-0.34,1.361-0.34,2.169c0.003,0.737,0.111,1.409,0.32,2.013c0.21,0.601,0.507,1.121,0.884,1.555
		c0.377,0.434,0.818,0.768,1.321,1.001c0.505,0.238,1.052,0.354,1.638,0.357c0.527-0.003,1.008-0.087,1.436-0.254
		c0.427-0.163,0.794-0.389,1.104-0.673c0.308-0.288,0.551-0.611,0.724-0.975h0.06l0.081,1.682h1.562
		c-0.014-0.224-0.027-0.473-0.041-0.751c-0.01-0.276-0.02-0.567-0.026-0.867c-0.01-0.3-0.014-0.594-0.014-0.884v-11.713H181.678
		L181.678,190.951z M181.678,201.102c0,0.141-0.003,0.271-0.017,0.394c-0.013,0.128-0.033,0.247-0.062,0.367
		c-0.111,0.437-0.295,0.811-0.551,1.125c-0.254,0.313-0.557,0.553-0.907,0.72c-0.35,0.17-0.728,0.253-1.125,0.256
		c-0.471-0.003-0.884-0.096-1.242-0.283c-0.357-0.187-0.653-0.443-0.897-0.771c-0.24-0.33-0.421-0.71-0.54-1.141
		c-0.123-0.431-0.184-0.895-0.184-1.388c0-0.534,0.067-1.024,0.197-1.478c0.13-0.451,0.32-0.845,0.571-1.182
		c0.249-0.333,0.554-0.594,0.914-0.781c0.357-0.187,0.764-0.281,1.222-0.283c0.444,0.003,0.838,0.096,1.188,0.281
		c0.35,0.18,0.641,0.424,0.874,0.727c0.23,0.303,0.393,0.645,0.48,1.015c0.03,0.113,0.05,0.236,0.062,0.37
		c0.014,0.133,0.017,0.257,0.017,0.371V201.102L181.678,201.102z M185.711,191.311l0.322,4.807h1.08l0.342-4.807H185.711
		L185.711,191.311z M189.043,204.706c0.344,0.204,0.751,0.367,1.217,0.49c0.468,0.123,0.972,0.187,1.505,0.19
		c0.758-0.003,1.406-0.129,1.939-0.373c0.537-0.248,0.948-0.591,1.234-1.027c0.285-0.438,0.428-0.946,0.431-1.522
		c0-0.478-0.096-0.899-0.291-1.255c-0.193-0.361-0.476-0.675-0.853-0.941c-0.377-0.268-0.845-0.505-1.399-0.709
		c-0.421-0.163-0.764-0.32-1.035-0.476c-0.266-0.154-0.466-0.324-0.594-0.51c-0.13-0.187-0.193-0.411-0.193-0.675
		c0-0.244,0.06-0.463,0.183-0.664c0.123-0.197,0.303-0.357,0.54-0.473c0.238-0.121,0.531-0.18,0.879-0.183
		c0.3,0.003,0.577,0.033,0.831,0.096c0.251,0.064,0.473,0.136,0.668,0.227c0.197,0.087,0.357,0.173,0.483,0.257l0.421-1.281
		c-0.264-0.173-0.601-0.317-1.008-0.427c-0.407-0.113-0.862-0.17-1.355-0.174c-0.517,0.004-0.981,0.077-1.392,0.224
		c-0.414,0.147-0.764,0.35-1.055,0.611s-0.51,0.564-0.663,0.904c-0.154,0.343-0.234,0.71-0.234,1.104
		c-0.004,0.581,0.207,1.106,0.631,1.566c0.424,0.464,1.074,0.853,1.952,1.178c0.427,0.156,0.771,0.316,1.032,0.483
		c0.264,0.163,0.454,0.35,0.574,0.554c0.119,0.207,0.18,0.446,0.176,0.724c0,0.277-0.067,0.524-0.203,0.737
		c-0.133,0.217-0.34,0.387-0.614,0.515c-0.278,0.123-0.625,0.187-1.045,0.19c-0.298-0.003-0.591-0.037-0.879-0.107
		c-0.289-0.066-0.56-0.15-0.814-0.253c-0.251-0.104-0.468-0.211-0.651-0.32L189.043,204.706L189.043,204.706z M201.492,191.671
		v13.496h1.762v-6.327h6.527v6.327h1.762v-13.496h-1.762v5.647h-6.527v-5.647H201.492L201.492,191.671z M221.101,199.22
		c0.004-0.486-0.05-0.961-0.16-1.427c-0.109-0.465-0.299-0.889-0.57-1.266c-0.271-0.377-0.648-0.68-1.128-0.904
		c-0.48-0.227-1.089-0.34-1.825-0.347c-0.411,0-0.808,0.037-1.195,0.108c-0.387,0.069-0.754,0.166-1.094,0.293
		c-0.34,0.126-0.645,0.274-0.914,0.441l0.4,1.18c0.231-0.153,0.48-0.283,0.758-0.389c0.276-0.111,0.564-0.192,0.867-0.248
		c0.303-0.057,0.611-0.082,0.917-0.082c0.394,0,0.724,0.045,0.992,0.146c0.264,0.1,0.48,0.234,0.641,0.401
		c0.163,0.166,0.283,0.35,0.367,0.55c0.084,0.197,0.136,0.394,0.167,0.591c0.026,0.197,0.04,0.374,0.035,0.534v0.2
		c-1.252-0.007-2.309,0.13-3.173,0.404c-0.867,0.277-1.525,0.683-1.976,1.222c-0.447,0.537-0.673,1.198-0.677,1.979
		c0,0.353,0.064,0.697,0.187,1.028c0.123,0.327,0.31,0.624,0.561,0.887c0.247,0.268,0.554,0.474,0.924,0.63
		c0.37,0.155,0.801,0.234,1.291,0.237c0.461-0.003,0.882-0.073,1.261-0.203c0.381-0.133,0.714-0.31,1.002-0.527
		c0.286-0.217,0.52-0.454,0.7-0.712h0.06l0.14,1.222h1.582c-0.05-0.333-0.086-0.697-0.106-1.094
		c-0.023-0.394-0.034-0.805-0.034-1.229V199.22L221.101,199.22z M219.4,201.903c0,0.081-0.007,0.17-0.017,0.264
		c-0.014,0.098-0.034,0.197-0.064,0.298c-0.094,0.276-0.247,0.54-0.456,0.784c-0.211,0.247-0.478,0.448-0.801,0.601
		c-0.322,0.153-0.699,0.234-1.125,0.237c-0.298,0-0.571-0.06-0.818-0.177c-0.247-0.119-0.444-0.303-0.594-0.553
		c-0.15-0.248-0.227-0.564-0.23-0.952c0.003-0.372,0.082-0.693,0.242-0.954c0.157-0.261,0.374-0.473,0.648-0.638
		c0.274-0.166,0.588-0.294,0.938-0.383c0.35-0.088,0.72-0.147,1.111-0.177c0.39-0.029,0.778-0.04,1.165-0.029V201.903L219.4,201.903
		z M223.732,205.167h1.762v-5.826c0-0.153,0.011-0.3,0.031-0.441c0.02-0.143,0.05-0.269,0.089-0.38
		c0.111-0.33,0.278-0.635,0.5-0.904c0.227-0.27,0.497-0.488,0.815-0.647c0.317-0.163,0.663-0.247,1.047-0.251
		c0.414,0.005,0.764,0.078,1.052,0.228c0.286,0.149,0.517,0.355,0.695,0.616c0.173,0.264,0.3,0.567,0.38,0.912
		c0.081,0.347,0.12,0.714,0.116,1.108v5.585h1.763V199.4c-0.004-0.663-0.081-1.23-0.228-1.705c-0.146-0.473-0.343-0.867-0.59-1.18
		c-0.247-0.315-0.522-0.564-0.821-0.744c-0.3-0.18-0.605-0.307-0.916-0.384c-0.306-0.076-0.597-0.113-0.87-0.111
		c-0.534,0.007-1.015,0.094-1.436,0.268c-0.424,0.173-0.784,0.393-1.08,0.668c-0.298,0.273-0.527,0.56-0.687,0.867h-0.041
		l-0.099-1.602h-1.562c0.03,0.397,0.05,0.803,0.062,1.227c0.011,0.423,0.017,0.887,0.017,1.395V205.167L223.732,205.167z
		 M241.238,190.951v5.787h-0.04c-0.147-0.258-0.354-0.498-0.621-0.719c-0.264-0.219-0.591-0.397-0.975-0.533
		c-0.383-0.137-0.826-0.207-1.328-0.211c-0.59,0.004-1.148,0.12-1.668,0.357c-0.524,0.236-0.988,0.578-1.388,1.027
		c-0.404,0.448-0.719,0.992-0.948,1.633c-0.227,0.637-0.34,1.361-0.34,2.169c0.003,0.737,0.111,1.409,0.32,2.013
		c0.21,0.601,0.507,1.121,0.884,1.555c0.377,0.434,0.818,0.768,1.321,1.001c0.505,0.238,1.052,0.354,1.638,0.357
		c0.527-0.003,1.008-0.087,1.436-0.254c0.427-0.163,0.794-0.389,1.104-0.673c0.308-0.288,0.551-0.611,0.724-0.975h0.06l0.081,1.682
		h1.562c-0.014-0.224-0.027-0.473-0.041-0.751c-0.01-0.276-0.02-0.567-0.026-0.867c-0.01-0.3-0.014-0.594-0.014-0.884v-11.713
		H241.238L241.238,190.951z M241.238,201.102c0,0.141-0.003,0.271-0.017,0.394c-0.013,0.128-0.033,0.247-0.062,0.367
		c-0.111,0.437-0.295,0.811-0.551,1.125c-0.254,0.313-0.557,0.553-0.907,0.72c-0.35,0.17-0.729,0.253-1.125,0.256
		c-0.471-0.003-0.884-0.096-1.242-0.283c-0.357-0.187-0.653-0.443-0.897-0.771c-0.24-0.33-0.421-0.71-0.54-1.141
		c-0.123-0.431-0.184-0.895-0.184-1.388c0-0.534,0.067-1.024,0.197-1.478c0.13-0.451,0.32-0.845,0.571-1.182
		c0.249-0.333,0.554-0.594,0.914-0.781c0.357-0.187,0.764-0.281,1.222-0.283c0.444,0.003,0.838,0.096,1.188,0.281
		c0.35,0.18,0.641,0.424,0.875,0.727c0.23,0.303,0.393,0.645,0.48,1.015c0.03,0.113,0.05,0.236,0.062,0.37
		c0.014,0.133,0.017,0.257,0.017,0.371V201.102L241.238,201.102z"/>
</g>
</svg>
