<svg width="44" height="32" viewBox="0 0 44 32" xmlns="http://www.w3.org/2000/svg" xmlns:xlink="http://www.w3.org/1999/xlink"><title>50% Image Top</title><defs><path id="a" d="M0 0h42v30H0z"/><mask id="c" x="-.5" y="-.5" width="43" height="31"><path fill="#fff" d="M-.5-.5h43v31h-43z"/><use xlink:href="#a"/></mask><path id="b" d="M0 1h42v30H0z"/><mask id="e" x="-1.5" y="-1.5" width="45" height="33"><path fill="#fff" d="M-1.5-.5h45v33h-45z"/><use xlink:href="#b"/></mask></defs><g transform="translate(1 1)" fill="none" fill-rule="evenodd"><mask id="d" fill="#fff"><use xlink:href="#a"/></mask><use fill="#D8D8D8" xlink:href="#a"/><use stroke="#4A4A4A" mask="url(#c)" xlink:href="#a"/><g mask="url(#d)"><g transform="translate(0 -1)"><use fill="#9B9B9B" xlink:href="#b"/><use stroke="#F37021" mask="url(#e)" stroke-width="3" xlink:href="#b"/><path fill="#D9D9D9" d="M41.964 26.98V14.333L26.396 3 0 26.986"/><circle fill="#D9D9D9" cx="8.5" cy="4.5" r="4.5"/></g><path fill="#FFF" d="M0 18h42v12H0z"/><g fill="#000"><path d="M4 20.905h34v.952H4zM4 22.81h34v.952H4zM4 24.714h34v.952H4zM4 26.62h34v.95H4z"/></g></g></g></svg>