<svg width="44" height="32" viewBox="0 0 44 32" xmlns="http://www.w3.org/2000/svg" xmlns:xlink="http://www.w3.org/1999/xlink"><title>50% Image Bottom</title><defs><path id="a" d="M0 0h42v30H0z"/><mask id="b" x="-.5" y="-.5" width="43" height="31"><path fill="#fff" d="M-.5-.5h43v31h-43z"/><use xlink:href="#a"/></mask></defs><g transform="translate(1 1)" fill="none" fill-rule="evenodd"><mask id="c" fill="#fff"><use xlink:href="#a"/></mask><use fill="#D8D8D8" xlink:href="#a"/><use stroke="#4A4A4A" mask="url(#b)" xlink:href="#a"/><g mask="url(#c)"><g transform="translate(0 11)"><path fill="#9B9B9B" d="M0 0h42v30H0z"/><path fill="#D9D9D9" d="M41.964 26.98V14.333L26.396 3 0 26.986"/><circle fill="#D9D9D9" cx="8.5" cy="4.5" r="4.5"/></g><path fill="#FFF" d="M0 0h42v12.5H0z"/><g fill="#000"><path d="M4 3h34v.952H4zM4 4.905h34v.952H4zM4 6.81h34v.952H4zM4 8.714h34v.952H4z"/></g></g></g></svg>