<svg width="44" height="32" viewBox="0 0 44 32" xmlns="http://www.w3.org/2000/svg" xmlns:xlink="http://www.w3.org/1999/xlink"><title>50% Image Left</title><defs><path id="a" d="M0 0h42v30H0z"/><mask id="b" x="-.5" y="-.5" width="43" height="31"><path fill="#fff" d="M-.5-.5h43v31h-43z"/><use xlink:href="#a"/></mask></defs><g transform="translate(1 1)" fill="none" fill-rule="evenodd"><mask id="c" fill="#fff"><use xlink:href="#a"/></mask><use fill="#D8D8D8" xlink:href="#a"/><use stroke="#4A4A4A" mask="url(#b)" xlink:href="#a"/><g transform="translate(-10)" mask="url(#c)"><path fill="#9B9B9B" d="M10 0h42v30H10z"/><path fill="#D9D9D9" d="M41.964 29.98V17.333L26.396 6 0 29.986"/><circle fill="#D9D9D9" cx="9.5" cy="8.5" r="4.5"/></g><path fill="#FFF" mask="url(#c)" d="M21 0h21v30H21z"/><g mask="url(#c)" fill="#000"><path d="M25 5h13v.952H25zM25 6.905h13v.952H25zM25 8.81h13v.952H25zM25 10.714h13v.952H25zM25 12.62h13v.95H25zM25 14.524h13v.952H25zM25 16.43h13v.95H25zM25 18.333h13v.952H25zM25 20.238h13v.952H25zM25 22.143h13v.952H25zM25 24.048h13V25H25z"/></g></g></svg>