<svg width="44" height="32" viewBox="0 0 44 32" xmlns="http://www.w3.org/2000/svg" xmlns:xlink="http://www.w3.org/1999/xlink"><title>Text Only</title><defs><path id="a" d="M0 0h42v30H0z"/><mask id="b" x="-.5" y="-.5" width="43" height="31"><path fill="#fff" d="M-.5-.5h43v31h-43z"/><use xlink:href="#a"/></mask></defs><g fill="none" fill-rule="evenodd"><g transform="translate(1 1)"><use fill="#FFF" xlink:href="#a"/><use stroke="#4A4A4A" mask="url(#b)" xlink:href="#a"/></g><g fill="#000"><path d="M5 6h34v.952H5zM5 7.905h34v.952H5zM5 9.81h34v.952H5zM5 11.714h34v.952H5zM5 13.62h34v.95H5zM5 15.524h34v.952H5zM5 17.43h34v.95H5zM5 19.333h34v.952H5zM5 21.238h34v.952H5zM5 23.143h34v.952H5zM5 25.048h34V26H5z"/></g></g></svg>