<svg width="44" height="32" viewBox="0 0 44 32" xmlns="http://www.w3.org/2000/svg" xmlns:xlink="http://www.w3.org/1999/xlink"><title>Image with Max Text</title><defs><path id="a" d="M0 0h42v30H0z"/><mask id="b" x="-.5" y="-.5" width="43" height="31"><path fill="#fff" d="M-.5-.5h43v31h-43z"/><use xlink:href="#a"/></mask></defs><g fill="none" fill-rule="evenodd"><g transform="translate(1 1)"><use fill="#9B9B9B" xlink:href="#a"/><use stroke="#000" mask="url(#b)" xlink:href="#a"/><path fill="#D9D9D9" d="M41.964 29.98V17.333L26.396 6 0 29.986"/><circle fill="#D9D9D9" cx="9.5" cy="8.5" r="4.5"/></g><g fill="#000"><path d="M10 7.905h25v.952H10zM10 9.81h25v.952H10zM10 11.714h25v.952H10zM10 13.62h25v.95H10zM10 15.524h25v.952H10zM10 17.43h25v.95H10zM10 19.333h25v.952H10zM10 21.238h25v.952H10zM10 23.143h25v.952H10z"/></g></g></svg>