<svg width="44" height="32" viewBox="0 0 44 32" xmlns="http://www.w3.org/2000/svg" xmlns:xlink="http://www.w3.org/1999/xlink"><title>70% Image Left</title><defs><path id="a" d="M0 0h42v30H0z"/><mask id="b" x="-.5" y="-.5" width="43" height="31"><path fill="#fff" d="M-.5-.5h43v31h-43z"/><use xlink:href="#a"/></mask></defs><g transform="translate(1 1)" fill="none" fill-rule="evenodd"><mask id="c" fill="#fff"><use xlink:href="#a"/></mask><use fill="#D8D8D8" xlink:href="#a"/><use stroke="#4A4A4A" mask="url(#b)" xlink:href="#a"/><g transform="translate(-10)" mask="url(#c)"><path fill="#9B9B9B" d="M10 0h42v30H10z"/><path fill="#D9D9D9" d="M41.964 29.98V17.333L26.396 6 0 29.986"/><circle fill="#D9D9D9" cx="9.5" cy="8.5" r="4.5"/></g><path fill="#FFF" mask="url(#c)" d="M27 0h15v30H27z"/><g mask="url(#c)" fill="#000"><path d="M31 5h7v.952h-7zM31 6.905h7v.952h-7zM31 8.81h7v.952h-7zM31 10.714h7v.952h-7zM31 12.62h7v.95h-7zM31 14.524h7v.952h-7zM31 16.43h7v.95h-7zM31 18.333h7v.952h-7zM31 20.238h7v.952h-7zM31 22.143h7v.952h-7zM31 24.048h7V25h-7z"/></g></g></svg>