<svg width="32" height="44" viewBox="0 0 32 44" xmlns="http://www.w3.org/2000/svg" xmlns:xlink="http://www.w3.org/1999/xlink"><title>75% Image Top</title><defs><path id="a" d="M-6 6h42v30H-6z"/><mask id="c" x="-.5" y="-.5" width="43" height="31"><path fill="#fff" d="M-6.5 5.5h43v31h-43z"/><use xlink:href="#a"/></mask><path id="b" d="M0 6h42v30H0z"/><mask id="e" x="-.5" y="-.5" width="43" height="31"><path fill="#fff" d="M-.5 5.5h43v31h-43z"/><use xlink:href="#b"/></mask></defs><g fill="none" fill-rule="evenodd"><g transform="translate(1 1)"><mask id="d" fill="#fff"><use xlink:href="#a"/></mask><g transform="rotate(90 15 21)"><use fill="#9B9B9B" xlink:href="#a"/><use stroke="#4A4A4A" mask="url(#c)" xlink:href="#a"/></g><g transform="translate(-6)" mask="url(#d)"><g transform="rotate(90 21 21)"><use fill="#9B9B9B" xlink:href="#b"/><use stroke="#4A4A4A" mask="url(#e)" xlink:href="#b"/></g><path fill="#D9D9D9" d="M41.964 32.98V17.333L26.396 6 0 32.986"/><circle fill="#D9D9D9" cx="13.5" cy="6.5" r="4.5"/></g></g><path fill="#FFF" d="M1 29h30v14H1z"/><g fill="#000"><path d="M5 38.18h22v.95H5zM5 36.274h22v.952H5zM5 34.18h22v.95H5zM5 32.274h22v.952H5z"/></g></g></svg>