<svg width="32" height="44" viewBox="0 0 32 44" xmlns="http://www.w3.org/2000/svg" xmlns:xlink="http://www.w3.org/1999/xlink"><title>Text Only</title><defs><path id="a" d="M0 0h42v30H0z"/><mask id="b" x="-.5" y="-.5" width="43" height="31"><path fill="#fff" d="M-.5-.5h43v31h-43z"/><use xlink:href="#a"/></mask></defs><g fill="none" fill-rule="evenodd"><g transform="rotate(90 15 16)"><use fill="#FFF" xlink:href="#a"/><use stroke="#4A4A4A" mask="url(#b)" xlink:href="#a"/></g><g fill="#000"><path d="M27 26H5v-.952h22zM27 24.095H5v-.952h22zM27 28.095H5v-.952h22zM27 30.095H5v-.952h22zM27 32.095H5v-.952h22zM27 34.095H5v-.952h22zM27 36.095H5v-.952h22zM27 38.095H5v-.952h22zM27 22.19H5v-.952h22zM27 20.286H5v-.952h22zM27 18.38H5v-.95h22zM27 16.476H5v-.952h22zM27 14.57H5v-.95h22zM27 12.667H5v-.952h22zM27 10.762H5V9.81h22zM27 8.857H5v-.952h22zM27 6.952H5V6h22z"/></g></g></svg>