<svg xmlns="http://www.w3.org/2000/svg" width="40" height="42" viewBox="0 0 40 42">
    <g fill="none" fill-rule="evenodd">
        <path fill="#FFF" d="M-522-506h984V65h-984z"/>
        <path d="M-157-7H97v56h-254z"/>
        <g stroke-linecap="round" stroke-linejoin="round" stroke-width="2">
            <path fill="#B0BEC5" fill-rule="nonzero" stroke="#37474F" d="M22.942 7.466l3.31 6.571a3.016 3.016 0 0 0 2.329 1.586l7.722 1.133c2.452.34 3.432 3.172 1.716 4.758l-5.76 5.438c-.736.68-.982 1.586-.859 2.38l1.348 7.59c.368 2.379-2.329 4.078-4.535 2.945l-6.62-3.399c-.98-.453-2.083-.453-2.941 0l-6.62 3.4C9.826 41 7.13 39.3 7.497 36.921l1.348-7.59c.123-.907-.122-1.813-.858-2.38l-5.761-5.438c-1.716-1.7-.736-4.418 1.716-4.758l7.723-1.133c.98-.113 1.838-.793 2.329-1.586l3.31-6.57c1.225-2.153 4.535-2.153 5.638 0z"/>
            <path fill="#ECEFF1" fill-rule="nonzero" stroke="#37474F" d="M22.942 2.935l3.31 6.57a3.016 3.016 0 0 0 2.329 1.587l7.722 1.132c2.452.34 3.432 3.173 1.716 4.759l-5.76 5.437c-.736.68-.982 1.587-.859 2.38l1.348 7.59c.368 2.38-2.329 4.078-4.535 2.946l-6.62-3.4c-.98-.452-2.083-.452-2.941 0l-6.62 3.4c-2.206 1.132-4.903-.567-4.535-2.946l1.348-7.59c.123-.907-.122-1.813-.858-2.38l-5.761-5.437c-1.716-1.7-.736-4.419 1.716-4.759l7.723-1.132c.98-.114 1.838-.794 2.329-1.587l3.31-6.57c1.225-2.153 4.535-2.153 5.638 0z"/>
            <path stroke="#FFF" d="M5.224 15.275l7.723-1.133c1.838-.227 3.432-1.36 4.167-2.833l3.31-6.57"/>
        </g>
    </g>
</svg>
