<?xml version="1.0" encoding="utf-8"?>
<!-- Generator: Adobe Illustrator 22.0.1, SVG Export Plug-In . SVG Version: 6.00 Build 0)  -->
<svg version="1.1" id="Layer_1" xmlns="http://www.w3.org/2000/svg" xmlns:xlink="http://www.w3.org/1999/xlink" x="0px" y="0px"
	 viewBox="0 0 79 79" style="enable-background:new 0 0 79 79;" xml:space="preserve">
<style type="text/css">
	.st0{fill:#CCCCCC;}
</style>
<g>
	<path class="st0" d="M63.4,67.9c1.4-9.4,2.7-18.6,4.2-27.8c0.2-0.9,1.3-1.7,2.4-3.1c-0.8-5.4-2.1-11.5-6.3-16.5
		c-1.5-1.8-2.7-2.3-5-0.9c-1.2,0.7-3.5,0.8-4.7,0.1c-9.2-5.7-18.4-5.6-27.8-0.4c-1.2,0.7-3.6,0.4-4.7-0.3c-2.1-1.5-3.5-1.2-4.7,0.6
		c-1.9,3-3.8,6-5.3,9.3c-1.1,2.4-1.4,5.1-2,7.3c1,1.2,2.4,2.2,2.5,3.3c1.1,9.1,2.1,18.2,3.1,27.5c-3.2,1.1-6,0.9-8.6-1.6
		c-7.1-6.8-7.2-20.7-0.2-27.5c0.7-0.7,1.2-1.9,1.3-2.9c2.4-23.9,27-37.2,48.1-25.6C66.1,15,70.7,24.6,72.2,36
		c0.1,1.1,0.7,2.3,1.5,3.2c6.3,6.8,5.7,20.9-1.3,27.1C69.6,68.7,68.1,69,63.4,67.9z"/>
	<path class="st0" d="M17.3,65.5c-1.1-9.5-2.2-18.9-3.3-28.4c2.4-0.9,3.9-0.4,4.2,2.2c0.9,7.5,1.9,14.9,2.8,22.4
		C21.2,63.9,20.8,65.9,17.3,65.5z"/>
	<path class="st0" d="M61.9,66.3c-3-0.1-3.8-1.7-3.5-3.8c1.2-7.8,2.4-15.6,3.8-23.3c0.2-0.9,1.9-1.5,3-2.3c0.3,0.3,0.6,0.6,1,0.8
		C64.8,47.3,63.3,56.7,61.9,66.3z"/>
</g>
</svg>
