<?xml version="1.0" encoding="utf-8"?>
<!-- Generator: Adobe Illustrator 17.1.0, SVG Export Plug-In . SVG Version: 6.00 Build 0)  -->
<!DOCTYPE svg PUBLIC "-//W3C//DTD SVG 1.1//EN" "http://www.w3.org/Graphics/SVG/1.1/DTD/svg11.dtd">
<svg version="1.1" id="Layer_1" xmlns="http://www.w3.org/2000/svg" xmlns:xlink="http://www.w3.org/1999/xlink" x="0px" y="0px"
	 viewBox="0 0 72 72" enable-background="new 0 0 72 72" xml:space="preserve">
<path fill="#F37021" d="M0.118,64.307c-0.488-5.127,0.55-10.364,2.795-15.327c2.245-4.928,6.113-9.651,11.435-12.763
	c5.295-3.171,11.716-4.345,17.606-4.011c5.921,0.326,11.377,1.954,16.323,4.087L36.471,44.24c-0.005-2.802,0.196-4.901,0.474-7.32
	c0.348-2.33,0.76-4.669,1.44-6.981c1.319-4.606,3.282-9.262,6.538-13.38c3.202-4.096,7.991-7.593,13.219-8.537
	C63.356,7.042,68.243,8.335,72,10.79c-4.396,1.145-8.148,2.641-10.652,4.906c-2.549,2.209-3.994,4.799-5.071,7.799
	c-1.069,3.003-1.82,6.328-2.254,9.836c-0.219,1.751-0.447,3.524-0.51,5.335c-0.165,1.706-0.219,3.761-0.188,5.111l-11.801,7.94
	c-3.819-1.71-7.593-2.96-11.215-3.662c-3.613-0.659-7.057-0.729-10.505,0.163c-3.439,0.829-6.914,2.761-10.245,5.583
	C6.218,56.618,3.105,60.191,0.118,64.307"/>
</svg>
