<?xml version="1.0" encoding="UTF-8"?>
<svg width="24px" height="23px" viewBox="0 0 24 23" version="1.1" xmlns="http://www.w3.org/2000/svg" xmlns:xlink="http://www.w3.org/1999/xlink">
    <!-- Generator: Sketch 47.1 (45422) - http://www.bohemiancoding.com/sketch -->
    <title>Icon/Download</title>
    <desc>Created with Sketch.</desc>
    <defs></defs>
    <g id="09-Static-Pages" stroke="none" stroke-width="1" fill="none" fill-rule="evenodd">
        <g id="Web/09-Static/09g--Campaign-Page" transform="translate(-463.000000, -1068.000000)">
            <g id="Stacked-Group" transform="translate(20.000000, 413.000000)">
                <g id="Group-11">
                    <g id="Group-7" transform="translate(356.000000, 24.000000)">
                        <g id="Stacked-Group">
                            <g id="Group-3" transform="translate(0.000000, 614.000000)">
                                <g transform="translate(87.000000, 17.000000)" id="Icon/Download">
                                    <g>
                                        <g id="Group-5">
                                            <rect id="Rectangle-7" x="0" y="0" width="24" height="24"></rect>
                                        </g>
                                        <g id="ear-icons-" fill-rule="nonzero" fill="#4990e2">
                                            <path d="M18.9428571,9.98693878 C19.2093037,10.1155217 19.5204392,10.1126617 19.7844771,9.97920257 C20.048515,9.84574342 20.2353245,9.59691484 20.2897959,9.30612245 C20.5978963,7.61560219 19.9236361,5.89620714 18.5485106,4.86576332 C17.1733851,3.83531951 15.3338346,3.67100236 13.7978486,4.44141225 C12.2618625,5.21182213 11.2935397,6.78449409 11.2971429,8.50285714 L11.2971429,11.402449 C11.2984442,12.7572338 12.3913796,13.8578198 13.7461224,13.8685714 C13.8968124,13.8666103 14.0421083,13.9245973 14.1500401,14.0297734 C14.257972,14.1349496 14.3196967,14.2786975 14.3216327,14.4293878 L14.3216327,14.7428571 C14.3271354,15.0552168 14.0804318,15.3139281 13.7681633,15.3232653 C13.5125263,15.3212802 13.2668183,15.4221227 13.0862806,15.6031209 C12.905743,15.7841191 12.8055268,16.0300832 12.8081633,16.2857143 C12.8212784,16.5529689 12.9418192,16.8035869 13.1424176,16.9806669 C13.3430161,17.1577469 13.6066523,17.2462645 13.8734694,17.2261224 C15.1897826,17.1646804 16.2257574,16.0801948 16.2269388,14.762449 L16.2269388,14.4293878 C16.2256374,13.0746029 15.132702,11.9740169 13.7779592,11.9632653 C13.6272692,11.9652265 13.4819734,11.9072395 13.3740415,11.8020633 C13.2661096,11.6968871 13.204385,11.5531393 13.202449,11.402449 L13.202449,8.59102041 C13.1920111,7.82689718 13.5019673,7.09330452 14.0571429,6.56816327 C14.8016383,5.88825895 15.8695069,5.69427894 16.8055601,6.06890894 C17.7416133,6.44353895 18.380781,7.32071408 18.4506122,8.32653061 C18.4638613,8.53278413 18.4531779,8.73987816 18.4187755,8.94367347 C18.3376384,9.36990345 18.5524776,9.79757398 18.9428571,9.98693878 Z" id="Shape"></path>
                                            <path d="M21.4040816,2.36816327 C19.7492019,0.812374402 17.5173527,0.0225201439 15.2522449,0.191020408 C12.2731341,0.403238237 9.64561086,2.21998288 8.39510204,4.9322449 C8.19204108,5.41223208 8.41125799,5.96638898 8.88773223,6.17756129 C9.36420647,6.3887336 9.92200157,6.17894668 10.1412245,5.70612245 C10.9842828,3.88406069 12.650149,2.57694604 14.6204534,2.19151494 C16.5907578,1.80608384 18.6263742,2.38911417 20.0938776,3.75918367 C21.3828584,4.95164418 22.1063121,6.63436382 22.084898,8.39020408 C22.0524659,10.0749427 21.3573388,11.6790145 20.1502041,12.8546939 L19.0138776,13.9836735 C18.3979351,14.5995353 18.0510006,15.4342913 18.0489796,16.3053061 L18.0489796,17.5934694 C18.0588246,18.5095208 17.7016581,19.3914135 17.0571429,20.042449 C16.4375871,20.6705658 15.5738072,20.9954902 14.6938776,20.9314286 C13.6296764,20.8364207 12.6880967,20.2034647 12.1983673,19.2538776 C11.9542349,18.7886058 11.3791493,18.609337 10.9138776,18.8534694 C10.4486058,19.0976018 10.269337,19.6726875 10.5134694,20.1379592 C11.3060767,21.6635383 12.8222859,22.6792692 14.5346939,22.8318367 C14.675102,22.8432653 14.8146939,22.8489796 14.9534694,22.8489796 C16.2541685,22.843197 17.4994866,22.3218191 18.4163265,21.3991837 C19.4211945,20.3823414 19.9776202,19.0058272 19.9616327,17.5763265 L19.9616327,16.3077551 C19.9590886,15.9401662 20.1047475,15.5870539 20.3657143,15.3281633 L21.5902041,14.1036735 C23.1636518,12.5400361 24.0322393,10.4029039 23.9957353,8.18493932 C23.9592313,5.96697471 23.020786,3.85958328 21.3967347,2.34857143 L21.4040816,2.36816327 Z" id="Shape"></path>
                                            <path d="M1.44734694,10.8244898 C1.00492517,10.6132079 0.474386732,10.7722231 0.221114888,11.1920212 C-0.0321569572,11.6118193 0.0745537711,12.1552985 0.467755102,12.4481633 C1.24009705,12.9253872 1.48008125,13.9379233 1.00408163,14.7110204 C0.787527826,15.0017664 0.754765958,15.3902256 0.919565386,15.7131341 C1.08436481,16.0360426 1.41815876,16.2374266 1.7806583,16.2326472 C2.14315785,16.2278678 2.47152634,16.0177534 2.6277551,15.6906122 C3.12309031,14.8851959 3.27398748,13.9145123 3.04653061,12.9967347 C2.82264433,12.089225 2.24739407,11.307836 1.44734694,10.8244898 L1.44734694,10.8244898 Z" id="Shape"></path>
                                            <path d="M3.49714286,8.24326531 C3.05472109,8.03198341 2.52418265,8.1909986 2.27091081,8.61079668 C2.01763896,9.03059476 2.12434969,9.57407401 2.51755102,9.86693878 C3.57707807,10.5094331 4.33548332,11.5491538 4.62367347,12.7542857 C4.91620661,13.9590727 4.71424264,15.2308284 4.06285714,16.2857143 C3.84630334,16.5764602 3.81354147,16.9649195 3.9783409,17.287828 C4.14314032,17.6107365 4.47693427,17.8121205 4.83943381,17.8073411 C5.20193336,17.8025616 5.53030185,17.5924473 5.68653061,17.2653061 C6.59845035,15.7790977 6.87799017,13.9898665 6.46285714,12.2963265 C6.05422808,10.6039224 4.98657315,9.14482336 3.49714286,8.24326531 L3.49714286,8.24326531 Z" id="Shape"></path>
                                            <path d="M5.56653061,5.63265306 C5.12410885,5.42137116 4.59357041,5.58038635 4.34029856,6.00018444 C4.08702672,6.41998252 4.19373744,6.96346177 4.58693878,7.25632653 C8.22245892,9.48561556 9.36732527,14.2370848 7.14612245,17.877551 C6.92956864,18.168297 6.89680677,18.5567562 7.0616062,18.8796647 C7.22640563,19.2025732 7.56019958,19.4039572 7.92269912,19.3991778 C8.28519866,19.3943984 8.61356716,19.184284 8.76979592,18.8571429 C10.1065157,16.6796838 10.5165742,14.0579551 9.90857143,11.5763265 C9.31194298,9.09525727 7.74872291,6.95541795 5.56653061,5.63265306 Z" id="Shape"></path>
                                        </g>
                                    </g>
                                </g>
                            </g>
                        </g>
                    </g>
                </g>
            </g>
        </g>
    </g>
</svg>