<?xml version="1.0" encoding="utf-8"?>
<!-- Generator: Adobe Illustrator 17.1.0, SVG Export Plug-In . SVG Version: 6.00 Build 0)  -->
<!DOCTYPE svg PUBLIC "-//W3C//DTD SVG 1.1//EN" "http://www.w3.org/Graphics/SVG/1.1/DTD/svg11.dtd">
<svg version="1.1" id="Layer_1" xmlns="http://www.w3.org/2000/svg" xmlns:xlink="http://www.w3.org/1999/xlink" x="0px" y="0px"
	 viewBox="0 0 672.105 149.357" enable-background="new 0 0 672.105 149.357" xml:space="preserve">
<g>
	<path d="M50.064,102.324c0,4.854-1.778,8.797-5.329,11.829c-3.556,3.034-8.832,4.551-15.834,4.551
		c-3.918,0-7.402-0.355-10.452-1.065c-3.052-0.71-6.38-1.726-9.985-3.043v-13.312c3.154,1.803,5.893,3.173,8.214,4.107
		c2.324,0.937,4.871,1.404,7.647,1.404c4.679,0,7.021-1.281,7.021-3.849c0-0.866-0.341-1.638-1.015-2.313
		c-0.676-0.676-1.855-1.438-3.538-2.289c-1.68-0.848-3.925-1.862-6.734-3.041c-3.466-1.523-6.414-3.568-8.839-6.137
		c-2.428-2.564-3.641-5.701-3.641-9.41c0-2.635,0.808-5.166,2.419-7.593c1.612-2.426,4.047-4.411,7.305-5.956
		c3.26-1.539,7.194-2.312,11.805-2.312c1.109,0,2.521,0.077,4.238,0.233c1.716,0.157,3.881,0.564,6.5,1.223
		c2.617,0.658,5.104,1.596,7.462,2.808v12.948c-1.11-0.657-2.036-1.213-2.781-1.664c-0.747-0.451-1.743-0.953-2.989-1.51
		c-1.25-0.553-2.715-1.047-4.397-1.48c-1.681-0.433-3.406-0.65-5.174-0.65c-2.148,0-3.621,0.416-4.42,1.25
		c-0.796,0.83-1.195,1.662-1.195,2.494c0,0.868,0.414,1.674,1.249,2.42c0.832,0.744,2.687,1.67,5.563,2.781
		c4.161,1.596,7.489,3.232,9.984,4.912c2.495,1.684,4.272,3.53,5.331,5.539C49.536,97.212,50.064,99.587,50.064,102.324"/>
	<path d="M101.96,114.7c-1.941,0.936-4.62,1.838-8.033,2.704c-3.415,0.866-6.682,1.3-9.802,1.3c-13.487,0-20.229-6.586-20.229-19.76
		V77.832h-8.475v-3.276l25.116-25.584h2.132v15.86h17.888v13H82.669v16.953c0,1.976,0.12,3.569,0.362,4.783
		c0.243,1.214,0.929,2.228,2.056,3.042c1.126,0.814,2.833,1.221,5.121,1.221c2.981,0,6.898-1.248,11.752-3.742V114.7z"/>
	<path d="M259.314,67.693l-6.918,18.773c-2.841-2.707-5.717-4.057-8.63-4.057c-2.636,0-4.915,0.891-6.838,2.678
		c-1.925,1.787-3.77,5.086-5.538,9.905v22.775h-18.721V64.833h18.721v12.793c1.18-3.158,3.258-6.231,6.24-9.231
		c2.98-2.999,6.482-4.498,10.505-4.498c2.113,0,3.959,0.312,5.538,0.937C255.25,65.456,257.13,66.411,259.314,67.693"/>
	<polygon points="326.073,64.832 290.088,141.843 271.161,141.843 285.721,110.853 264.765,64.832 284.887,64.832 295.652,91.144 
		307.872,64.832 	"/>
	<polygon points="411.133,64.3 388.02,118.816 385.293,118.816 368.852,75.4 352.257,118.816 349.691,118.816 326.804,64.3 
		332.414,64.3 350.662,107.888 367.449,64.3 370.552,64.3 386.81,107.888 405.479,64.3 	"/>
	<path d="M462.216,89.059h-42.133c-0.116,0.929-0.176,1.858-0.176,2.79c0,5.967,2.131,11.023,6.392,15.168
		c4.262,4.146,9.301,6.218,15.111,6.218c6.779,0,13.404-2.653,19.877-7.962v6.45c-6.125,4.729-12.981,7.091-20.574,7.091
		c-7.711,0-14.083-2.674-19.119-8.02c-5.04-5.348-7.557-12.146-7.557-20.398c0-7.826,2.325-14.307,6.973-19.441
		c4.649-5.133,10.5-7.7,17.551-7.7c6.627,0,12.227,2.316,16.797,6.944C459.931,74.829,462.216,81.116,462.216,89.059 M420.84,84.467
		h34.636c-2.013-10.422-7.651-15.633-16.913-15.633c-4.377,0-8.164,1.364-11.359,4.097C424.006,75.661,421.884,79.508,420.84,84.467
		"/>
	<path d="M516.383,108.469v4.766c-4.919,3.721-8.523,5.581-10.81,5.581c-1.317,0-2.228-0.438-2.732-1.31
		c-0.504-0.87-0.871-2.643-1.103-5.316c-5.619,4.416-11.197,6.626-16.74,6.626c-4.027,0-7.437-1.318-10.228-3.952
		c-2.788-2.634-4.183-5.831-4.183-9.591c0-5.811,2.692-10.395,8.078-13.744c5.384-3.352,13.076-5.279,23.072-5.781v-6.801
		c0-7.285-3.953-10.928-11.856-10.928c-5.039,0-10.482,2.268-16.331,6.8V68.95c6.045-3.797,11.797-5.697,17.262-5.697
		c4.842,0,8.834,1.191,11.971,3.576c3.14,2.381,4.709,5.84,4.709,10.375v33.299c0,1.822,0.425,2.731,1.278,2.731
		C509.854,113.235,512.392,111.646,516.383,108.469 M501.738,107.191v-16.68c-7.323-0.271-13.397,1.018-18.219,3.865
		c-4.824,2.848-7.237,6.48-7.237,10.896c0,2.48,1.008,4.572,3.022,6.276c2.014,1.707,4.534,2.559,7.555,2.559
		C491.742,114.108,496.701,111.802,501.738,107.191"/>
	<polygon points="564.969,64.3 541.948,118.816 538.515,118.816 514.117,64.3 519.906,64.3 540.066,109.341 559.401,64.3 	"/>
	<path d="M616.054,89.059h-42.134c-0.117,0.929-0.175,1.858-0.175,2.79c0,5.967,2.13,11.023,6.393,15.168
		c4.261,4.146,9.297,6.218,15.109,6.218c6.779,0,13.404-2.653,19.877-7.962v6.45c-6.123,4.729-12.981,7.091-20.572,7.091
		c-7.711,0-14.086-2.674-19.123-8.02c-5.036-5.348-7.554-12.146-7.554-20.398c0-7.826,2.323-14.307,6.974-19.441
		c4.649-5.133,10.5-7.7,17.553-7.7c6.623,0,12.223,2.316,16.794,6.944C613.767,74.829,616.054,81.116,616.054,89.059
		 M574.675,84.467h34.637c-2.014-10.422-7.652-15.633-16.91-15.633c-4.379,0-8.167,1.364-11.363,4.097
		C577.841,75.661,575.721,79.508,574.675,84.467"/>
	<path d="M664.525,69.589l-3.313,5.348c-4.456-4.07-8.04-6.103-10.751-6.103c-5.348,0-11.062,5.112-17.145,15.342v33.592h-5.695
		V64.302h5.695v14.061h0.232c6.393-10.07,12.631-15.108,18.713-15.108C655.75,63.254,659.836,65.364,664.525,69.589"/>
	<path d="M464.812,43.953V28.148h5.004c1.508,0,2.708,0.406,3.605,1.22c0.896,0.813,1.344,1.907,1.344,3.276
		c0,0.918-0.23,1.732-0.688,2.441c-0.46,0.707-1.091,1.221-1.888,1.542c-0.798,0.319-1.943,0.479-3.434,0.479h-1.674v6.847H464.812z
		 M469.422,30.157h-2.34v4.937h2.475c0.918,0,1.627-0.215,2.124-0.65c0.497-0.432,0.746-1.051,0.746-1.855
		C472.426,30.97,471.426,30.157,469.422,30.157"/>
	<path d="M476.799,43.952V28.17h3.955c1.596,0,2.864,0.397,3.803,1.187c0.938,0.793,1.404,1.859,1.404,3.209
		c0,0.918-0.228,1.713-0.688,2.383c-0.459,0.67-1.119,1.172-1.977,1.504c0.504,0.33,0.996,0.783,1.478,1.355
		c0.483,0.572,1.16,1.57,2.035,2.994c0.549,0.895,0.988,1.57,1.322,2.021l0.834,1.129h-2.687l-0.689-1.038
		c-0.022-0.038-0.066-0.103-0.136-0.193l-0.44-0.62l-0.699-1.154l-0.754-1.23c-0.469-0.648-0.895-1.166-1.283-1.549
		s-0.738-0.66-1.051-0.829c-0.314-0.169-0.84-0.253-1.58-0.253h-0.588v6.867H476.799z M479.737,30.092h-0.679v4.981h0.858
		c1.146,0,1.931-0.098,2.355-0.295c0.427-0.195,0.757-0.49,0.995-0.886c0.237-0.396,0.355-0.845,0.355-1.351
		c0-0.496-0.131-0.947-0.396-1.35c-0.263-0.402-0.634-0.685-1.112-0.854C481.637,30.175,480.842,30.092,479.737,30.092"/>
	<path d="M495.75,28.079h1.59l7.076,15.875h-2.314l-2.104-4.678h-6.731l-1.974,4.678h-2.322L495.75,28.079z M499.07,37.266
		l-2.546-5.717l-2.361,5.717H499.07z"/>
	<polygon points="502.508,28.148 515.693,28.148 515.693,30.157 510.191,30.157 510.191,43.954 507.922,43.954 507.922,30.157 
		502.508,30.157 	"/>
	<polygon points="528.957,28.17 531.216,28.17 531.216,43.953 528.957,43.953 528.957,37.085 520.088,37.085 520.088,43.953 
		517.829,43.953 517.829,28.17 520.088,28.17 520.088,34.994 528.957,34.994 	"/>
	<path d="M539.736,28.079h1.588l7.078,15.875h-2.315l-2.103-4.678h-6.732l-1.974,4.678h-2.322L539.736,28.079z M543.056,37.266
		l-2.547-5.717l-2.362,5.717H543.056z"/>
	<polygon points="562.681,28.17 564.795,28.17 564.795,43.953 562.523,43.953 562.523,31.673 557.67,37.775 557.253,37.775 
		552.344,31.673 552.344,43.953 550.084,43.953 550.084,28.17 552.222,28.17 557.466,34.652 	"/>
	<path d="M579.967,43.954h-5.343V28.169h4.133c1.305,0,2.32,0.176,3.051,0.526c0.731,0.351,1.289,0.833,1.672,1.445
		c0.384,0.614,0.576,1.323,0.576,2.132c0,1.551-0.801,2.66-2.406,3.332c1.152,0.219,2.068,0.693,2.752,1.423
		c0.682,0.729,1.021,1.604,1.021,2.622c0,0.805-0.207,1.523-0.621,2.156c-0.414,0.635-1.023,1.15-1.824,1.548
		C582.175,43.753,581.174,43.954,579.967,43.954 M578.826,30.181h-1.943v4.746h1.504c1.203,0,2.061-0.23,2.57-0.689
		c0.508-0.458,0.762-1.055,0.762-1.785C581.719,30.938,580.754,30.181,578.826,30.181 M578.996,36.938h-2.113v5.005h2.227
		c1.234,0,2.072-0.096,2.512-0.289c0.442-0.191,0.797-0.49,1.065-0.898c0.268-0.406,0.4-0.842,0.4-1.31
		c0-0.483-0.141-0.922-0.425-1.321c-0.282-0.4-0.683-0.697-1.203-0.894C580.939,37.034,580.117,36.938,578.996,36.938"/>
	<path d="M595.394,27.945c2.438,0,4.469,0.773,6.09,2.317c1.623,1.543,2.436,3.477,2.436,5.806c0,2.328-0.82,4.254-2.457,5.779
		c-1.637,1.524-3.701,2.287-6.193,2.287c-2.379,0-4.359-0.764-5.944-2.287c-1.584-1.525-2.376-3.438-2.376-5.734
		c0-2.357,0.797-4.308,2.392-5.851C590.938,28.718,592.955,27.945,595.394,27.945 M595.486,30.092c-1.809,0-3.292,0.563-4.454,1.694
		c-1.163,1.129-1.745,2.572-1.745,4.326c0,1.703,0.583,3.119,1.75,4.25c1.167,1.129,2.625,1.693,4.379,1.693
		c1.762,0,3.23-0.578,4.41-1.73c1.176-1.151,1.764-2.588,1.764-4.303c0-1.672-0.588-3.08-1.764-4.221
		C598.646,30.661,597.199,30.092,595.486,30.092"/>
	<path d="M614.441,27.945c2.438,0,4.469,0.773,6.09,2.317c1.623,1.543,2.435,3.477,2.435,5.806c0,2.328-0.818,4.254-2.457,5.779
		c-1.637,1.524-3.701,2.287-6.191,2.287c-2.379,0-4.361-0.764-5.945-2.287c-1.584-1.525-2.377-3.438-2.377-5.734
		c0-2.357,0.797-4.308,2.395-5.851C609.986,28.718,612.002,27.945,614.441,27.945 M614.533,30.092c-1.807,0-3.291,0.563-4.453,1.694
		c-1.164,1.129-1.746,2.572-1.746,4.326c0,1.703,0.584,3.119,1.75,4.25c1.168,1.129,2.627,1.693,4.381,1.693
		c1.762,0,3.229-0.578,4.408-1.73c1.178-1.151,1.766-2.588,1.766-4.303c0-1.672-0.588-3.08-1.766-4.221
		C617.693,30.661,616.248,30.092,614.533,30.092"/>
	<polygon points="634.672,28.17 637.494,28.17 630.648,35.661 639.179,43.953 636.094,43.953 628.027,36.157 628.027,43.953 
		625.769,43.953 625.769,28.17 628.027,28.17 628.027,35.39 	"/>
	<path d="M644.828,37.341l-1.719-1.045c-1.076-0.656-1.842-1.303-2.299-1.939c-0.455-0.638-0.684-1.369-0.684-2.197
		c0-1.244,0.432-2.252,1.295-3.028c0.861-0.776,1.982-1.163,3.361-1.163c1.316,0,2.527,0.368,3.625,1.109v2.564
		c-1.137-1.095-2.361-1.641-3.672-1.641c-0.736,0-1.344,0.17-1.816,0.512c-0.477,0.342-0.713,0.778-0.713,1.311
		c0,0.473,0.174,0.916,0.523,1.328c0.35,0.414,0.912,0.844,1.686,1.301l1.727,1.019c1.924,1.151,2.889,2.615,2.889,4.391
		c0,1.266-0.424,2.295-1.272,3.086c-0.848,0.789-1.949,1.186-3.305,1.186c-1.559,0-2.98-0.48-4.26-1.439v-2.869
		c1.221,1.548,2.633,2.32,4.238,2.32c0.707,0,1.295-0.197,1.768-0.59c0.469-0.394,0.705-0.888,0.705-1.48
		C646.906,39.114,646.213,38.2,644.828,37.341"/>
	<g>
		<path fill="#F9ED25" d="M145.192,50.037c-0.567,0.163-1.113,0.42-1.628,0.767c-1.352,0.909-2.331,2.321-3.21,3.819
			c-0.267,0.454-0.523,0.92-0.778,1.38c-0.453,0.811-0.909,1.639-1.386,2.35c-0.48,0.709-0.977,1.308-1.508,1.664
			c-0.269,0.183-0.595,0.332-0.961,0.461l-0.201,0.613c-0.277,0.858-0.484,1.928-0.68,2.961c-0.048,0.254-0.098,0.506-0.149,0.758
			c1.519-0.26,2.982-0.666,4.214-1.494c1.51-1.016,2.564-2.596,3.512-4.246c0.214-0.379,0.425-0.758,0.636-1.137
			c0.496-0.896,1.002-1.807,1.526-2.547c0.39-0.548,0.793-1.004,1.208-1.281c0.169-0.115,0.331-0.195,0.497-0.242
			c0.349-0.1,0.753-0.083,1.191,0.01l0.528-0.416c0.613-0.482,1.254-1.08,1.933-1.713c0.326-0.303,0.627-0.581,0.93-0.855
			C149.053,50.04,147.132,49.482,145.192,50.037"/>
		<path fill="#F9ED25" d="M134.059,65.429l0.161-0.826c0.043-0.215,0.088-0.428,0.127-0.643c0.203-1.06,0.408-2.14,0.697-3.024
			l0.274-0.851l0.237-0.082c0.342-0.119,0.629-0.256,0.848-0.404c0.42-0.281,0.867-0.78,1.368-1.527
			c0.467-0.689,0.92-1.511,1.358-2.301c0.282-0.51,0.532-0.957,0.794-1.4c0.82-1.404,1.861-2.976,3.36-3.984
			c0.56-0.375,1.153-0.654,1.771-0.83c1.439-0.412,2.995-0.299,4.759,0.346c0.402,0.146,0.818,0.32,1.266,0.531l0.684,0.32
			l-0.559,0.506c-0.303,0.273-0.602,0.553-0.922,0.852c-0.689,0.641-1.336,1.244-1.967,1.741l-0.713,0.559l-0.228-0.049
			c-0.387-0.081-0.707-0.087-0.95-0.017c-0.118,0.033-0.234,0.09-0.357,0.175c-0.328,0.22-0.682,0.599-1.078,1.157
			c-0.51,0.721-1.013,1.623-1.498,2.498c-0.209,0.381-0.422,0.764-0.641,1.145c-0.945,1.648-2.044,3.323-3.666,4.413
			c-1.125,0.759-2.484,1.244-4.408,1.571L134.059,65.429z M136.121,60.862l-0.123,0.383c-0.268,0.826-0.468,1.873-0.661,2.889
			c-0.004,0.015-0.006,0.03-0.009,0.045c1.401-0.295,2.435-0.701,3.296-1.279c1.451-0.975,2.469-2.538,3.355-4.08
			c0.217-0.376,0.426-0.753,0.635-1.131c0.496-0.896,1.013-1.826,1.557-2.59c0.469-0.661,0.902-1.121,1.334-1.411
			c0.214-0.144,0.425-0.245,0.642-0.308c0.349-0.1,0.745-0.115,1.197-0.043l0.348-0.276c0.598-0.47,1.233-1.06,1.902-1.683
			c0.125-0.119,0.248-0.231,0.366-0.343c-0.167-0.067-0.328-0.132-0.491-0.19c-1.559-0.568-2.913-0.676-4.141-0.324
			c-0.514,0.148-1.013,0.383-1.485,0.697c-1.331,0.898-2.29,2.354-3.056,3.66c-0.254,0.435-0.5,0.877-0.773,1.368
			c-0.456,0.821-0.92,1.659-1.409,2.384c-0.586,0.869-1.105,1.439-1.642,1.801C136.723,60.591,136.446,60.735,136.121,60.862"/>
		<path fill="#F9ED25" d="M124.234,64.142c-0.362,0.464-0.651,0.994-0.865,1.575c-0.559,1.532-0.521,3.25-0.353,4.978
			c0.056,0.527,0.117,1.051,0.182,1.574c0.113,0.922,0.226,1.856,0.259,2.715c0.032,0.855-0.02,1.631-0.24,2.231
			c-0.113,0.307-0.29,0.62-0.509,0.938l0.199,0.614c0.281,0.86,0.746,1.845,1.191,2.797c0.11,0.231,0.219,0.468,0.326,0.699
			c1.077-1.103,2.021-2.29,2.532-3.685c0.623-1.709,0.545-3.607,0.342-5.5c-0.045-0.432-0.1-0.864-0.151-1.293
			c-0.125-1.018-0.251-2.052-0.264-2.957c-0.006-0.674,0.051-1.279,0.223-1.748c0.07-0.191,0.154-0.352,0.262-0.486
			c0.223-0.287,0.56-0.512,0.97-0.695l0.182-0.646c0.211-0.75,0.379-1.609,0.556-2.519c0.087-0.437,0.165-0.839,0.248-1.241
			C127.362,61.87,125.481,62.551,124.234,64.142"/>
		<path fill="#F9ED25" d="M124.276,83.137l-0.374-0.808c-0.084-0.184-0.168-0.367-0.256-0.551c-0.46-0.976-0.928-1.971-1.215-2.855
			l-0.277-0.851l0.142-0.204c0.207-0.299,0.36-0.576,0.451-0.826c0.174-0.476,0.241-1.143,0.206-2.041
			c-0.028-0.836-0.142-1.77-0.253-2.67c-0.068-0.564-0.131-1.071-0.179-1.586c-0.162-1.621-0.241-3.504,0.376-5.199
			c0.231-0.631,0.548-1.209,0.942-1.713c1.483-1.895,3.788-2.523,5.392-2.834l0.743-0.141l-0.156,0.738
			c-0.083,0.4-0.162,0.8-0.246,1.232c-0.182,0.926-0.351,1.793-0.569,2.562l-0.245,0.871l-0.215,0.096
			c-0.36,0.161-0.621,0.346-0.78,0.545c-0.073,0.094-0.133,0.209-0.186,0.35c-0.135,0.373-0.196,0.885-0.189,1.57
			c0.009,0.881,0.136,1.908,0.256,2.899c0.053,0.433,0.109,0.866,0.153,1.304c0.202,1.891,0.298,3.893-0.37,5.725
			c-0.467,1.275-1.281,2.467-2.643,3.863L124.276,83.137z M123.262,78.231l0.124,0.382c0.27,0.824,0.724,1.79,1.162,2.725
			c0.006,0.014,0.012,0.029,0.02,0.043c0.959-1.062,1.56-1.998,1.916-2.973c0.598-1.641,0.506-3.504,0.316-5.275
			c-0.046-0.428-0.099-0.859-0.15-1.285c-0.127-1.021-0.257-2.077-0.266-3.012c-0.008-0.809,0.071-1.439,0.25-1.926
			c0.088-0.242,0.199-0.445,0.34-0.623c0.225-0.287,0.534-0.533,0.941-0.742l0.121-0.426c0.205-0.73,0.372-1.576,0.545-2.471
			c0.037-0.174,0.067-0.34,0.1-0.502c-1.908,0.463-3.176,1.188-4.051,2.307c-0.328,0.422-0.594,0.905-0.791,1.438
			c-0.547,1.506-0.47,3.248-0.322,4.756c0.053,0.506,0.111,1.006,0.182,1.562c0.111,0.922,0.227,1.877,0.259,2.758
			c0.04,1.043-0.047,1.812-0.269,2.422C123.591,77.657,123.449,77.935,123.262,78.231"/>
		<path fill="#F9ED25" d="M115.571,87.87c-0.018,0.588,0.056,1.188,0.226,1.783c0.447,1.566,1.486,2.936,2.641,4.232
			c0.352,0.395,0.713,0.783,1.071,1.17c0.634,0.678,1.277,1.367,1.805,2.043c0.527,0.672,0.943,1.332,1.119,1.946
			c0.089,0.313,0.13,0.671,0.14,1.058l0.521,0.381c0.733,0.529,1.686,1.055,2.608,1.562c0.224,0.124,0.451,0.248,0.676,0.376
			c0.221-1.527,0.285-3.044-0.121-4.468c-0.501-1.752-1.678-3.243-2.954-4.651c-0.291-0.324-0.59-0.644-0.884-0.959
			c-0.698-0.748-1.407-1.511-1.949-2.24c-0.401-0.541-0.711-1.064-0.848-1.541c-0.056-0.197-0.08-0.377-0.076-0.549
			c0.014-0.363,0.154-0.742,0.377-1.131l-0.231-0.629c-0.27-0.736-0.639-1.529-1.032-2.369c-0.186-0.4-0.36-0.773-0.526-1.148
			C116.767,84.196,115.645,85.851,115.571,87.87"/>
		<path fill="#F9ED25" d="M126.77,103.214l-0.639-0.355c-0.224-0.123-0.445-0.25-0.671-0.375c-0.944-0.518-1.906-1.049-2.661-1.595
			l-0.722-0.524l-0.006-0.252c-0.007-0.36-0.051-0.676-0.12-0.93c-0.142-0.488-0.476-1.068-1.032-1.775
			c-0.516-0.657-1.158-1.346-1.778-2.012c-0.337-0.359-0.718-0.77-1.077-1.176c-1.08-1.216-2.255-2.691-2.75-4.428
			c-0.186-0.646-0.267-1.301-0.245-1.939c0.085-2.404,1.581-4.268,2.699-5.461l0.514-0.552l0.31,0.688
			c0.166,0.373,0.336,0.744,0.524,1.144c0.396,0.849,0.767,1.649,1.049,2.405l0.312,0.85l-0.117,0.203
			c-0.198,0.342-0.302,0.646-0.309,0.9c-0.007,0.119,0.014,0.25,0.055,0.393c0.106,0.38,0.357,0.832,0.77,1.381
			c0.525,0.707,1.229,1.467,1.912,2.196c0.297,0.319,0.592,0.64,0.889,0.964c1.273,1.408,2.525,2.975,3.062,4.852
			c0.374,1.303,0.415,2.746,0.135,4.676L126.77,103.214z M123.065,99.84l0.325,0.237c0.7,0.508,1.638,1.022,2.542,1.521
			c0.014,0.007,0.029,0.015,0.041,0.022c0.151-1.424,0.085-2.533-0.198-3.529c-0.48-1.68-1.651-3.134-2.843-4.453
			c-0.291-0.32-0.586-0.639-0.881-0.953c-0.699-0.751-1.423-1.529-1.982-2.281c-0.483-0.648-0.787-1.205-0.928-1.705
			c-0.072-0.246-0.103-0.477-0.096-0.705c0.015-0.363,0.122-0.742,0.329-1.151l-0.153-0.416c-0.263-0.718-0.629-1.5-1.015-2.329
			c-0.073-0.156-0.142-0.305-0.211-0.455c-1.274,1.496-1.871,2.827-1.92,4.248c-0.022,0.533,0.049,1.082,0.205,1.628
			c0.441,1.542,1.526,2.904,2.534,4.034c0.353,0.396,0.714,0.786,1.065,1.16c0.631,0.681,1.288,1.385,1.831,2.076
			c0.644,0.822,1.027,1.494,1.205,2.117C122.994,99.183,123.044,99.491,123.065,99.84"/>
		<path fill="#F9ED25" d="M122.511,112.159c0.328,0.487,0.742,0.928,1.229,1.311c1.283,1.004,2.93,1.502,4.626,1.871
			c0.515,0.113,1.038,0.216,1.554,0.314c0.91,0.178,1.835,0.359,2.661,0.593c0.823,0.236,1.544,0.524,2.047,0.919
			c0.256,0.2,0.502,0.465,0.737,0.773h0.646c0.904,0,1.981-0.136,3.027-0.27c0.254-0.031,0.51-0.062,0.766-0.093
			c-0.719-1.363-1.557-2.631-2.723-3.544c-1.432-1.123-3.261-1.637-5.124-2.027c-0.425-0.089-0.853-0.173-1.276-0.255
			c-1.006-0.195-2.029-0.395-2.893-0.666c-0.644-0.201-1.201-0.44-1.593-0.748c-0.163-0.127-0.288-0.259-0.385-0.401
			c-0.201-0.298-0.312-0.688-0.36-1.135l-0.558-0.375c-0.648-0.433-1.414-0.858-2.227-1.31c-0.385-0.214-0.745-0.414-1.099-0.618
			C121.318,108.483,121.382,110.485,122.511,112.159"/>
		<path fill="#F9ED25" d="M125.844,115.157L125.844,115.157c-0.961-0.35-1.75-0.773-2.414-1.292
			c-0.527-0.414-0.978-0.895-1.336-1.427c-1.343-1.994-1.23-4.381-1.029-6.002l0.094-0.75l0.653,0.376
			c0.356,0.204,0.712,0.403,1.097,0.616c0.818,0.453,1.59,0.883,2.264,1.332l0.751,0.503l0.024,0.232
			c0.043,0.394,0.136,0.698,0.279,0.91c0.067,0.099,0.156,0.193,0.276,0.286c0.244,0.189,0.593,0.367,1.045,0.533
			c0.123,0.044,0.254,0.09,0.39,0.132c0.838,0.263,1.854,0.461,2.838,0.652c0.426,0.082,0.855,0.167,1.283,0.256
			c0.783,0.166,1.809,0.399,2.791,0.758c1.003,0.366,1.838,0.813,2.541,1.365c1.068,0.837,1.951,1.98,2.858,3.706l0.34,0.645
			l-0.78,0.095c-0.236,0.026-0.47,0.056-0.709,0.085c-1.068,0.135-2.157,0.272-3.09,0.273h-0.892l-0.153-0.197
			c-0.218-0.29-0.437-0.521-0.646-0.686c-0.399-0.312-1.002-0.579-1.875-0.829c-0.805-0.229-1.728-0.407-2.621-0.582
			c-0.484-0.093-1.029-0.2-1.565-0.317C127.287,115.619,126.52,115.404,125.844,115.157 M121.985,107.313
			c-0.15,1.96,0.148,3.388,0.939,4.564c0.302,0.446,0.68,0.848,1.125,1.198c0.581,0.453,1.279,0.824,2.141,1.14
			c0.63,0.229,1.358,0.434,2.285,0.636c0.524,0.115,1.063,0.221,1.541,0.312c0.911,0.178,1.856,0.363,2.703,0.604
			c0.282,0.079,0.533,0.16,0.772,0.247c0.604,0.222,1.08,0.469,1.446,0.756c0.226,0.178,0.448,0.397,0.67,0.668h0.403
			c0.868-0.002,1.926-0.135,2.952-0.264c0.016-0.002,0.031-0.004,0.044-0.007c-0.712-1.237-1.417-2.099-2.234-2.737
			c-0.621-0.486-1.362-0.883-2.266-1.213c-0.923-0.336-1.904-0.562-2.653-0.72c-0.422-0.088-0.847-0.171-1.27-0.253
			c-1.008-0.197-2.052-0.402-2.948-0.68c-0.148-0.047-0.293-0.096-0.433-0.147c-0.557-0.203-0.988-0.427-1.319-0.687
			c-0.203-0.158-0.364-0.326-0.49-0.515c-0.204-0.303-0.337-0.671-0.412-1.126l-0.368-0.246c-0.636-0.427-1.392-0.844-2.192-1.288
			C122.272,107.475,122.128,107.394,121.985,107.313"/>
		<path fill="#F9ED25" d="M142.398,127.73c0.554,0.202,1.147,0.315,1.768,0.338c1.628,0.059,3.251-0.509,4.842-1.204
			c0.485-0.212,0.962-0.437,1.442-0.657c0.842-0.393,1.695-0.792,2.5-1.086c0.802-0.294,1.559-0.484,2.199-0.462
			c0.324,0.011,0.676,0.083,1.048,0.194l0.523-0.38c0.73-0.533,1.523-1.278,2.291-1.997c0.188-0.176,0.377-0.35,0.568-0.525
			c-1.385-0.682-2.807-1.214-4.289-1.267c-1.818-0.066-3.603,0.593-5.336,1.372c-0.398,0.177-0.793,0.361-1.184,0.543
			c-0.93,0.432-1.871,0.872-2.732,1.162c-0.639,0.215-1.23,0.348-1.729,0.331c-0.205-0.006-0.385-0.04-0.547-0.101
			c-0.341-0.123-0.656-0.373-0.961-0.705l-0.668,0.024c-0.78,0.031-1.65,0.138-2.57,0.251c-0.44,0.054-0.848,0.1-1.256,0.146
			C139.274,125.458,140.502,127.038,142.398,127.73"/>
		<path fill="#F9ED25" d="M142.226,128.201L142.226,128.201c-2.259-0.825-3.571-2.822-4.358-4.252l-0.365-0.661l0.752-0.08
			c0.405-0.043,0.812-0.092,1.248-0.146c0.928-0.113,1.803-0.22,2.612-0.253l0.908-0.033l0.154,0.173
			c0.265,0.292,0.517,0.485,0.756,0.572c0.116,0.041,0.244,0.063,0.396,0.069c0.391,0.015,0.899-0.087,1.55-0.306
			c0.833-0.28,1.772-0.717,2.679-1.141c0.392-0.184,0.793-0.367,1.191-0.547c1.733-0.777,3.607-1.486,5.56-1.414
			c0.892,0.029,1.815,0.224,2.821,0.593c0.518,0.188,1.062,0.425,1.67,0.725l0.652,0.323l-0.609,0.564
			c-0.162,0.151-0.326,0.302-0.488,0.454c-0.781,0.733-1.584,1.489-2.339,2.037l-0.725,0.526l-0.238-0.072
			c-0.347-0.105-0.657-0.161-0.923-0.174c-0.506-0.017-1.162,0.123-2.006,0.432c-0.783,0.286-1.63,0.682-2.451,1.063
			c-0.457,0.212-0.963,0.447-1.465,0.668c-1.486,0.653-3.254,1.312-5.06,1.247C143.476,128.545,142.831,128.422,142.226,128.201
			 M139.129,124.119c1.028,1.673,2.108,2.651,3.442,3.138l-0.172,0.473l0.172-0.471c0.504,0.184,1.045,0.285,1.614,0.307
			c1.602,0.058,3.234-0.557,4.623-1.162c0.49-0.215,0.992-0.448,1.434-0.654c0.846-0.396,1.715-0.801,2.538-1.101
			c0.98-0.358,1.739-0.515,2.386-0.491c0.288,0.01,0.598,0.058,0.932,0.146l0.327-0.235c0.702-0.514,1.483-1.244,2.239-1.953
			c0.01-0.008,0.02-0.017,0.029-0.027c-0.316-0.141-0.618-0.264-0.908-0.37c-0.903-0.33-1.725-0.504-2.512-0.533
			c-1.746-0.062-3.491,0.602-5.113,1.329c-0.396,0.176-0.787,0.359-1.177,0.541c-0.933,0.437-1.897,0.884-2.782,1.183
			c-0.767,0.259-1.388,0.376-1.909,0.358c-0.257-0.01-0.485-0.053-0.702-0.131c-0.34-0.124-0.666-0.345-0.992-0.668l-0.444,0.018
			c-0.765,0.027-1.622,0.134-2.529,0.246C139.456,124.081,139.29,124.101,139.129,124.119"/>
		<path fill="#F9ED25" d="M167.642,128.638c0.564-0.162,1.112-0.421,1.629-0.767c1.35-0.909,2.331-2.321,3.209-3.819
			c0.265-0.457,0.523-0.92,0.778-1.379c0.448-0.812,0.91-1.636,1.389-2.348c0.479-0.711,0.974-1.311,1.504-1.666
			c0.271-0.183,0.6-0.332,0.963-0.461l0.201-0.614c0.276-0.858,0.481-1.929,0.681-2.962c0.043-0.252,0.098-0.506,0.145-0.758
			c-1.52,0.26-2.98,0.668-4.211,1.494c-1.51,1.017-2.561,2.598-3.51,4.247c-0.221,0.376-0.43,0.761-0.641,1.136
			c-0.494,0.896-1.001,1.808-1.525,2.545c-0.392,0.551-0.792,1.008-1.207,1.287c-0.168,0.113-0.332,0.191-0.498,0.239
			c-0.348,0.099-0.752,0.085-1.191-0.01l-0.529,0.415c-0.611,0.483-1.253,1.081-1.93,1.713c-0.326,0.303-0.625,0.582-0.929,0.857
			C163.778,128.636,165.703,129.193,167.642,128.638"/>
		<path fill="#F9ED25" d="M163.02,128.775L163.02,128.775c-0.404-0.148-0.818-0.322-1.265-0.532l-0.684-0.321l0.561-0.507
			c0.302-0.272,0.601-0.55,0.924-0.851c0.685-0.637,1.329-1.24,1.965-1.737l0.712-0.562l0.227,0.049
			c0.388,0.08,0.709,0.086,0.951,0.016c0.115-0.032,0.23-0.09,0.359-0.175c0.324-0.22,0.678-0.599,1.074-1.157
			c0.512-0.721,1.011-1.624,1.499-2.498c0.21-0.381,0.423-0.764,0.642-1.143c0.945-1.649,2.045-3.324,3.663-4.414
			c1.125-0.758,2.487-1.242,4.409-1.572l0.719-0.125l-0.162,0.815c-0.043,0.218-0.088,0.438-0.127,0.657
			c-0.201,1.053-0.408,2.133-0.695,3.021l-0.277,0.853l-0.234,0.083c-0.344,0.117-0.629,0.253-0.848,0.401
			c-0.422,0.282-0.869,0.782-1.369,1.529c-0.466,0.69-0.92,1.51-1.36,2.303c-0.277,0.504-0.528,0.948-0.791,1.397
			c-0.819,1.403-1.861,2.976-3.36,3.982c-0.559,0.378-1.154,0.656-1.769,0.834C166.345,129.531,164.786,129.418,163.02,128.775
			 M162.876,127.64c0.165,0.068,0.329,0.131,0.489,0.191c1.56,0.568,2.913,0.674,4.139,0.323c0.517-0.147,1.015-0.381,1.487-0.698
			c1.33-0.896,2.291-2.353,3.055-3.658c0.259-0.439,0.502-0.881,0.774-1.37c0.456-0.818,0.921-1.657,1.408-2.384
			c0.585-0.867,1.106-1.439,1.642-1.802c0.24-0.161,0.519-0.303,0.844-0.429l0.123-0.384c0.268-0.825,0.469-1.877,0.664-2.894
			c0.002-0.014,0.003-0.026,0.007-0.041c-1.402,0.297-2.436,0.699-3.298,1.281c-1.449,0.974-2.469,2.537-3.357,4.079
			c-0.213,0.376-0.424,0.755-0.634,1.131c-0.497,0.897-1.013,1.826-1.556,2.591c-0.467,0.659-0.903,1.122-1.332,1.411
			c-0.215,0.144-0.425,0.244-0.643,0.307c-0.35,0.1-0.744,0.114-1.196,0.044l-0.351,0.275c-0.601,0.473-1.23,1.062-1.9,1.683
			C163.116,127.414,162.994,127.528,162.876,127.64"/>
		<path fill="#F9ED25" d="M188.599,114.533c0.361-0.464,0.656-0.993,0.868-1.576c0.56-1.528,0.522-3.247,0.35-4.977
			c-0.054-0.525-0.114-1.052-0.179-1.574c-0.113-0.921-0.228-1.856-0.26-2.715c-0.031-0.854,0.02-1.632,0.239-2.231
			c0.111-0.308,0.287-0.621,0.508-0.939l-0.198-0.614c-0.277-0.858-0.742-1.843-1.19-2.796c-0.108-0.232-0.218-0.465-0.328-0.699
			c-1.073,1.104-2.019,2.291-2.526,3.684c-0.625,1.711-0.548,3.608-0.347,5.5c0.048,0.434,0.101,0.865,0.153,1.293
			c0.123,1.019,0.251,2.052,0.26,2.957c0.01,0.675-0.047,1.28-0.219,1.748c-0.07,0.192-0.156,0.352-0.263,0.488
			c-0.225,0.285-0.558,0.51-0.972,0.693l-0.182,0.646c-0.211,0.753-0.378,1.61-0.557,2.521c-0.084,0.436-0.164,0.84-0.248,1.241
			C185.474,116.804,187.354,116.123,188.599,114.533"/>
		<path fill="#F9ED25" d="M182.862,117.819l0.156-0.74c0.083-0.399,0.162-0.8,0.244-1.232c0.182-0.919,0.35-1.786,0.569-2.562
			l0.247-0.872l0.213-0.094c0.359-0.164,0.623-0.347,0.78-0.546c0.073-0.096,0.134-0.209,0.185-0.352
			c0.138-0.371,0.197-0.885,0.19-1.569c-0.011-0.885-0.136-1.911-0.259-2.901c-0.053-0.43-0.105-0.865-0.152-1.303
			c-0.201-1.889-0.298-3.89,0.374-5.725c0.464-1.275,1.278-2.467,2.642-3.861l0.508-0.524l0.365,0.79
			c0.088,0.19,0.176,0.38,0.268,0.569c0.453,0.969,0.923,1.967,1.211,2.854l0.276,0.851l-0.14,0.205
			c-0.209,0.299-0.359,0.576-0.451,0.824c-0.174,0.477-0.244,1.145-0.207,2.04c0.027,0.835,0.14,1.765,0.253,2.665
			c0.055,0.469,0.128,1.042,0.183,1.595c0.16,1.617,0.24,3.502-0.381,5.198c-0.231,0.631-0.547,1.209-0.941,1.713
			c-1.482,1.894-3.787,2.523-5.393,2.832L182.862,117.819z M184.918,113.131l-0.119,0.426c-0.208,0.733-0.372,1.583-0.548,2.481
			c-0.033,0.167-0.066,0.33-0.096,0.49c1.906-0.46,3.174-1.188,4.048-2.305c0.331-0.42,0.597-0.904,0.792-1.438
			c0.55-1.507,0.472-3.249,0.322-4.755c-0.051-0.5-0.109-0.985-0.18-1.562c-0.114-0.931-0.229-1.885-0.262-2.758
			c-0.039-1.045,0.049-1.812,0.27-2.424c0.1-0.27,0.239-0.547,0.428-0.842l-0.125-0.381c-0.268-0.828-0.725-1.797-1.166-2.734
			c-0.004-0.01-0.011-0.023-0.016-0.034c-0.959,1.062-1.559,1.997-1.914,2.974c-0.602,1.639-0.506,3.506-0.316,5.273
			c0.047,0.43,0.099,0.86,0.148,1.287c0.127,1.019,0.254,2.073,0.268,3.012c0.008,0.808-0.074,1.438-0.252,1.925
			c-0.09,0.241-0.199,0.447-0.34,0.626C185.638,112.678,185.327,112.919,184.918,113.131"/>
		<path fill="#F9ED25" d="M197.262,90.804c0.02-0.587-0.054-1.186-0.224-1.783c-0.447-1.566-1.486-2.936-2.641-4.232
			c-0.352-0.395-0.714-0.783-1.074-1.168c-0.633-0.678-1.277-1.369-1.804-2.043c-0.526-0.676-0.941-1.332-1.116-1.946
			c-0.092-0.317-0.134-0.673-0.143-1.06l-0.521-0.379c-0.729-0.531-1.685-1.056-2.606-1.562c-0.226-0.123-0.451-0.249-0.677-0.375
			c-0.223,1.525-0.287,3.041,0.121,4.467c0.5,1.751,1.677,3.242,2.955,4.652c0.291,0.324,0.588,0.642,0.883,0.957
			c0.697,0.748,1.407,1.512,1.949,2.24c0.402,0.541,0.711,1.063,0.85,1.543c0.055,0.195,0.079,0.377,0.073,0.549
			c-0.013,0.361-0.151,0.742-0.375,1.131l0.231,0.628c0.27,0.733,0.641,1.528,1.031,2.368c0.186,0.402,0.359,0.775,0.529,1.15
			C196.068,94.479,197.189,92.823,197.262,90.804"/>
		<path fill="#F9ED25" d="M194.552,96.834l-0.309-0.688c-0.166-0.373-0.339-0.744-0.523-1.143c-0.396-0.85-0.77-1.65-1.049-2.406
			l-0.311-0.85l0.115-0.203c0.195-0.342,0.301-0.646,0.309-0.898c0.005-0.121-0.012-0.25-0.055-0.395
			c-0.109-0.38-0.359-0.831-0.77-1.382c-0.524-0.706-1.232-1.462-1.912-2.194c-0.297-0.318-0.596-0.64-0.887-0.963
			c-1.278-1.41-2.529-2.975-3.067-4.852c-0.374-1.305-0.415-2.748-0.133-4.678l0.104-0.722l0.776,0.433
			c0.176,0.1,0.354,0.198,0.533,0.297c0.941,0.519,1.907,1.049,2.659,1.596l0.726,0.525l0.005,0.25
			c0.007,0.363,0.048,0.676,0.12,0.931c0.14,0.487,0.475,1.067,1.033,1.774c0.511,0.655,1.148,1.34,1.766,2.004
			c0.344,0.367,0.723,0.774,1.09,1.186c1.08,1.215,2.25,2.689,2.748,4.428c0.185,0.646,0.267,1.301,0.245,1.939
			c-0.087,2.402-1.581,4.267-2.698,5.46L194.552,96.834z M193.462,91.833l0.15,0.415c0.266,0.719,0.629,1.501,1.017,2.331
			c0.069,0.154,0.142,0.305,0.21,0.453c1.273-1.496,1.872-2.827,1.922-4.245c0.019-0.535-0.05-1.083-0.208-1.63
			c-0.438-1.541-1.526-2.904-2.532-4.036c-0.356-0.399-0.733-0.804-1.063-1.157c-0.643-0.689-1.295-1.389-1.832-2.076
			c-0.645-0.824-1.029-1.496-1.209-2.119c-0.076-0.278-0.125-0.586-0.146-0.934l-0.327-0.236c-0.701-0.511-1.639-1.025-2.546-1.523
			c-0.012-0.008-0.024-0.014-0.036-0.021c-0.151,1.422-0.089,2.533,0.198,3.531c0.479,1.68,1.651,3.132,2.844,4.452
			c0.29,0.321,0.585,0.639,0.878,0.952c0.701,0.752,1.426,1.531,1.984,2.281c0.482,0.65,0.785,1.207,0.93,1.705
			c0.07,0.248,0.098,0.479,0.091,0.705C193.778,91.044,193.668,91.424,193.462,91.833"/>
		<path fill="#F9ED25" d="M190.323,66.516c-0.326-0.487-0.742-0.929-1.23-1.31c-1.283-1.006-2.927-1.502-4.625-1.873
			c-0.513-0.111-1.036-0.215-1.55-0.314c-0.913-0.178-1.839-0.357-2.664-0.593c-0.821-0.234-1.546-0.522-2.047-0.917
			c-0.259-0.202-0.504-0.467-0.735-0.774h-0.648c-0.903,0.001-1.981,0.138-3.026,0.269c-0.255,0.033-0.511,0.062-0.766,0.094
			c0.718,1.365,1.554,2.631,2.724,3.545c1.435,1.122,3.262,1.635,5.123,2.025c0.424,0.09,0.854,0.174,1.275,0.256
			c1.008,0.195,2.028,0.395,2.895,0.664c0.645,0.203,1.2,0.441,1.594,0.75c0.16,0.125,0.287,0.259,0.384,0.402
			c0.201,0.299,0.312,0.689,0.358,1.135l0.559,0.373c0.652,0.434,1.416,0.858,2.227,1.31c0.388,0.217,0.746,0.414,1.102,0.618
			C191.517,70.19,191.454,68.191,190.323,66.516"/>
		<path fill="#F9ED25" d="M191.673,72.988l-0.652-0.378c-0.354-0.203-0.71-0.4-1.096-0.615c-0.817-0.453-1.593-0.883-2.26-1.331
			l-0.754-0.503l-0.025-0.232c-0.043-0.393-0.135-0.699-0.279-0.91c-0.066-0.1-0.154-0.191-0.274-0.285
			c-0.243-0.189-0.593-0.369-1.044-0.533c-0.125-0.047-0.257-0.092-0.391-0.133c-0.84-0.262-1.857-0.459-2.838-0.65
			c-0.428-0.084-0.857-0.168-1.285-0.259c-0.782-0.163-1.809-0.399-2.791-0.759c-1.006-0.367-1.837-0.814-2.537-1.364
			c-1.072-0.836-1.953-1.979-2.861-3.704l-0.338-0.645l0.936-0.113c0.183-0.022,0.367-0.045,0.551-0.069
			c1.068-0.134,2.161-0.272,3.092-0.271l0.892-0.002l0.152,0.199c0.219,0.289,0.438,0.52,0.646,0.682
			c0.399,0.313,1.007,0.582,1.876,0.83c0.801,0.228,1.717,0.408,2.607,0.582c0.572,0.111,1.072,0.209,1.579,0.32
			c0.971,0.211,1.737,0.426,2.412,0.672c0.958,0.351,1.748,0.772,2.413,1.293c0.531,0.416,0.982,0.895,1.338,1.426
			c1.341,1.994,1.229,4.382,1.027,6.004L191.673,72.988z M187.853,69.584l0.368,0.246c0.637,0.425,1.39,0.844,2.189,1.287
			c0.15,0.083,0.295,0.164,0.439,0.243c0.146-1.959-0.149-3.387-0.943-4.563c-0.299-0.442-0.674-0.847-1.123-1.196
			c-0.578-0.453-1.279-0.826-2.139-1.142c-0.633-0.229-1.358-0.433-2.283-0.635c-0.492-0.107-0.99-0.206-1.542-0.312
			c-0.925-0.181-1.863-0.363-2.704-0.605c-1.008-0.286-1.711-0.604-2.219-1.002c-0.229-0.178-0.449-0.399-0.67-0.668h-0.402
			c-0.868,0-1.926,0.132-2.949,0.264c-0.018,0-0.033,0.004-0.048,0.005c0.714,1.239,1.418,2.101,2.235,2.739
			c0.619,0.486,1.359,0.881,2.264,1.211c0.924,0.338,1.902,0.562,2.652,0.72c0.424,0.089,0.849,0.173,1.271,0.253
			c1.01,0.198,2.053,0.402,2.945,0.682c0.15,0.046,0.296,0.096,0.436,0.146c0.558,0.203,0.987,0.428,1.319,0.686
			c0.203,0.16,0.361,0.328,0.489,0.517C187.643,68.761,187.781,69.13,187.853,69.584"/>
		<path fill="#F15A29" d="M181.611,57.155c-0.463-0.361-0.992-0.654-1.574-0.867c-1.528-0.559-3.249-0.521-4.977-0.35
			c-0.524,0.052-1.052,0.115-1.575,0.18c-0.92,0.112-1.858,0.227-2.713,0.26c-0.857,0.031-1.631-0.021-2.234-0.24
			c-0.307-0.113-0.619-0.287-0.939-0.508l-0.613,0.199c-0.857,0.279-1.842,0.743-2.794,1.189c-0.233,0.109-0.468,0.219-0.702,0.326
			c1.104,1.076,2.295,2.021,3.684,2.529c1.711,0.625,3.61,0.549,5.502,0.344c0.433-0.045,0.864-0.1,1.296-0.15
			c1.014-0.125,2.05-0.251,2.954-0.262c0.676-0.008,1.279,0.047,1.748,0.22c0.192,0.069,0.354,0.155,0.488,0.263
			c0.285,0.223,0.512,0.559,0.693,0.971l0.646,0.181c0.751,0.212,1.611,0.381,2.521,0.557c0.434,0.087,0.836,0.164,1.24,0.25
			C183.884,60.28,183.202,58.401,181.611,57.155"/>
		<path fill="#F15A29" d="M167.031,60.268c-1.263-0.462-2.444-1.271-3.832-2.622l-0.436-0.426l0.592-0.273
			c0.222-0.1,0.439-0.203,0.657-0.304c0.964-0.456,1.962-0.925,2.845-1.213l0.812-0.264l0.172,0.12
			c0.303,0.209,0.586,0.365,0.841,0.457c0.488,0.179,1.166,0.248,2.073,0.216c0.842-0.031,1.776-0.144,2.68-0.257
			c0.488-0.061,1.043-0.127,1.586-0.18c1.607-0.16,3.48-0.242,5.161,0.375c0.622,0.226,1.19,0.539,1.688,0.928
			c1.871,1.465,2.494,3.75,2.803,5.341l0.117,0.618l-0.613-0.129c-0.4-0.084-0.803-0.164-1.234-0.248
			c-0.919-0.18-1.784-0.346-2.556-0.565l-0.832-0.235l-0.081-0.178c-0.168-0.374-0.36-0.646-0.57-0.811
			c-0.357-0.279-1.002-0.404-1.975-0.394c-0.887,0.01-1.913,0.137-2.91,0.26c-0.432,0.051-0.865,0.105-1.299,0.15
			C170.841,60.837,168.85,60.931,167.031,60.268 M164.225,57.465c1.109,1.018,2.079,1.646,3.092,2.017
			c1.657,0.604,3.532,0.512,5.312,0.32c0.431-0.045,0.861-0.1,1.29-0.15c1.015-0.123,2.065-0.252,2.999-0.264
			c1.193-0.015,1.98,0.165,2.5,0.572c0.285,0.221,0.526,0.533,0.732,0.945l0.464,0.131c0.736,0.207,1.586,0.375,2.488,0.551
			c0.213,0.041,0.416,0.082,0.616,0.12c-0.463-1.997-1.203-3.313-2.362-4.222c-0.432-0.336-0.922-0.607-1.463-0.805
			c-1.521-0.556-3.277-0.477-4.792-0.326c-0.533,0.053-1.081,0.12-1.563,0.178c-0.923,0.113-1.875,0.232-2.753,0.262
			c-1.033,0.04-1.793-0.044-2.391-0.264c-0.274-0.1-0.558-0.246-0.857-0.441l-0.423,0.137c-0.832,0.272-1.804,0.729-2.746,1.172
			C164.323,57.42,164.272,57.443,164.225,57.465"/>
		<path fill="#F15A29" d="M133.595,55.43c-0.486,0.329-0.926,0.744-1.311,1.232c-1.002,1.285-1.498,2.929-1.869,4.623
			c-0.114,0.518-0.215,1.037-0.316,1.555c-0.176,0.91-0.359,1.836-0.592,2.662c-0.232,0.824-0.525,1.544-0.918,2.048
			c-0.203,0.259-0.465,0.502-0.776,0.735l0.003,0.646c0,0.9,0.136,1.982,0.267,3.025c0.033,0.256,0.061,0.513,0.094,0.769
			c1.365-0.718,2.631-1.557,3.545-2.724c1.121-1.434,1.637-3.262,2.024-5.123c0.092-0.428,0.177-0.852,0.259-1.278
			c0.193-1.005,0.393-2.026,0.662-2.894c0.203-0.644,0.444-1.2,0.75-1.592c0.125-0.162,0.258-0.289,0.401-0.385
			c0.3-0.201,0.689-0.312,1.135-0.361l0.374-0.558c0.436-0.647,0.861-1.413,1.308-2.224c0.216-0.389,0.415-0.748,0.62-1.104
			C137.27,54.237,135.272,54.303,133.595,55.43"/>
		<path fill="#F15A29" d="M127.833,73.378l-0.093-0.779c-0.025-0.197-0.047-0.394-0.072-0.59c-0.136-1.058-0.271-2.15-0.272-3.078
			l-0.001-0.854l0.166-0.125c0.297-0.225,0.531-0.445,0.697-0.66c0.32-0.41,0.596-1.031,0.844-1.906
			c0.231-0.807,0.412-1.732,0.586-2.627c0.102-0.531,0.205-1.051,0.318-1.562c0.344-1.581,0.846-3.387,1.95-4.794
			c0.408-0.523,0.883-0.968,1.406-1.318c1.973-1.33,4.336-1.217,5.943-1.017l0.627,0.08l-0.312,0.545
			c-0.205,0.354-0.406,0.711-0.619,1.097c-0.452,0.82-0.883,1.592-1.325,2.256l-0.484,0.719l-0.191,0.021
			c-0.408,0.043-0.726,0.142-0.95,0.29c-0.106,0.073-0.203,0.169-0.306,0.296c-0.247,0.318-0.469,0.797-0.678,1.461
			c-0.263,0.848-0.463,1.862-0.653,2.846c-0.085,0.438-0.169,0.861-0.258,1.285c-0.388,1.85-0.914,3.771-2.108,5.295
			c-0.827,1.061-1.962,1.934-3.676,2.836L127.833,73.378z M128.231,68.487v0.443c0,0.873,0.137,1.941,0.266,2.972
			c0.009,0.054,0.014,0.106,0.019,0.16c1.309-0.741,2.209-1.47,2.874-2.319c1.087-1.389,1.579-3.201,1.948-4.951
			c0.087-0.421,0.169-0.84,0.253-1.259c0.196-1.018,0.398-2.059,0.678-2.95c0.239-0.763,0.507-1.326,0.819-1.727
			c0.155-0.198,0.317-0.352,0.497-0.473c0.296-0.203,0.671-0.336,1.126-0.404l0.268-0.4c0.424-0.634,0.846-1.391,1.291-2.195
			c0.104-0.189,0.207-0.373,0.308-0.551c-2.047-0.175-3.529,0.123-4.747,0.945c-0.454,0.305-0.863,0.688-1.215,1.141
			c-1,1.275-1.467,2.969-1.795,4.457c-0.109,0.502-0.209,1.016-0.311,1.541c-0.178,0.914-0.364,1.856-0.601,2.698
			c-0.285,0.993-0.598,1.69-0.992,2.192C128.738,68.037,128.511,68.261,128.231,68.487"/>
		<path fill="#F15A29" d="M118.026,75.321c-0.203,0.552-0.316,1.147-0.338,1.765c-0.06,1.629,0.506,3.252,1.203,4.842
			c0.212,0.484,0.437,0.967,0.656,1.442c0.394,0.843,0.793,1.696,1.087,2.502c0.294,0.804,0.485,1.558,0.463,2.196
			c-0.014,0.326-0.085,0.68-0.195,1.051l0.381,0.521c0.529,0.73,1.275,1.523,1.994,2.291c0.179,0.188,0.353,0.377,0.528,0.566
			c0.682-1.382,1.214-2.805,1.268-4.287c0.062-1.82-0.596-3.6-1.374-5.336c-0.176-0.396-0.362-0.793-0.542-1.184
			c-0.435-0.93-0.873-1.874-1.164-2.732c-0.213-0.638-0.348-1.23-0.329-1.729c0.007-0.205,0.036-0.385,0.097-0.547
			c0.124-0.34,0.374-0.657,0.708-0.957l-0.027-0.672c-0.028-0.78-0.137-1.65-0.248-2.569c-0.055-0.438-0.102-0.847-0.147-1.256
			C120.297,72.196,118.719,73.425,118.026,75.321"/>
		<path fill="#F15A29" d="M123.911,93.226l-0.549-0.592c-0.131-0.14-0.258-0.279-0.389-0.416c-0.728-0.775-1.482-1.578-2.027-2.332
			l-0.502-0.689l0.055-0.199c0.111-0.355,0.17-0.672,0.179-0.943c0.019-0.52-0.125-1.186-0.439-2.039
			c-0.285-0.785-0.68-1.637-1.065-2.461c-0.244-0.521-0.458-0.984-0.666-1.457c-0.648-1.482-1.304-3.237-1.24-5.026
			c0.025-0.663,0.145-1.302,0.365-1.894c0.815-2.232,2.793-3.531,4.211-4.316l0.553-0.305l0.065,0.627
			c0.044,0.408,0.093,0.813,0.147,1.25c0.113,0.93,0.22,1.809,0.252,2.605l0.034,0.865l-0.144,0.132
			c-0.303,0.272-0.504,0.54-0.598,0.79c-0.043,0.122-0.066,0.26-0.073,0.419c-0.015,0.401,0.088,0.921,0.309,1.581
			c0.286,0.841,0.721,1.779,1.143,2.688l0.019,0.039c0.179,0.383,0.358,0.766,0.532,1.151c0.772,1.726,1.478,3.589,1.406,5.522
			c-0.048,1.346-0.451,2.719-1.311,4.455L123.911,93.226z M121.362,89.037l0.259,0.356c0.514,0.709,1.253,1.494,1.964,2.25
			c0.035,0.039,0.07,0.078,0.109,0.117c0.621-1.369,0.919-2.486,0.959-3.565c0.063-1.763-0.603-3.517-1.336-5.151
			c-0.17-0.382-0.346-0.761-0.522-1.138l-0.019-0.04c-0.432-0.928-0.879-1.889-1.178-2.773c-0.257-0.759-0.372-1.371-0.355-1.88
			c0.012-0.247,0.05-0.469,0.127-0.673c0.123-0.34,0.344-0.666,0.673-0.988l-0.019-0.481c-0.029-0.765-0.133-1.624-0.244-2.536
			c-0.027-0.214-0.053-0.422-0.078-0.625c-1.757,1.061-2.779,2.173-3.283,3.555c-0.188,0.51-0.293,1.061-0.314,1.637
			c-0.057,1.621,0.558,3.265,1.169,4.66c0.204,0.463,0.418,0.922,0.656,1.433c0.393,0.848,0.796,1.714,1.098,2.532
			c0.354,0.973,0.508,1.72,0.486,2.357C121.503,88.376,121.454,88.689,121.362,89.037"/>
		<path fill="#F15A29" d="M117.117,100.565c0.161,0.565,0.419,1.112,0.765,1.626c0.91,1.354,2.324,2.332,3.818,3.209
			c0.459,0.268,0.922,0.523,1.382,0.779c0.811,0.451,1.638,0.908,2.348,1.387c0.711,0.479,1.307,0.976,1.666,1.505
			c0.182,0.272,0.334,0.601,0.461,0.965l0.614,0.198c0.857,0.279,1.927,0.484,2.962,0.682c0.252,0.047,0.505,0.098,0.758,0.146
			c-0.261-1.519-0.668-2.981-1.496-4.212c-1.017-1.511-2.597-2.562-4.246-3.511c-0.378-0.217-0.759-0.429-1.136-0.639
			c-0.895-0.496-1.808-1.002-2.545-1.525c-0.551-0.39-1.006-0.791-1.284-1.205c-0.115-0.17-0.195-0.334-0.241-0.5
			c-0.1-0.348-0.085-0.752,0.009-1.191l-0.415-0.525c-0.485-0.615-1.08-1.256-1.713-1.936c-0.302-0.322-0.581-0.623-0.856-0.928
			C117.119,96.7,116.562,98.622,117.117,100.565"/>
		<path fill="#F15A29" d="M127.23,110.368l-0.069-0.195c-0.121-0.35-0.259-0.643-0.413-0.868c-0.288-0.43-0.797-0.886-1.552-1.391
			c-0.697-0.469-1.521-0.927-2.315-1.368c-0.433-0.24-0.923-0.51-1.39-0.785c-1.395-0.818-2.957-1.852-3.956-3.336
			c-0.37-0.551-0.645-1.139-0.818-1.747c-0.653-2.284,0.183-4.499,0.872-5.968l0.268-0.568l0.422,0.466
			c0.273,0.304,0.551,0.603,0.851,0.927c0.639,0.686,1.242,1.332,1.734,1.959l0.539,0.681l-0.041,0.192
			c-0.085,0.398-0.09,0.73-0.015,0.988c0.033,0.125,0.096,0.249,0.182,0.383c0.228,0.336,0.613,0.693,1.179,1.096
			c0.724,0.514,1.631,1.017,2.507,1.502l0.062,0.033c0.36,0.201,0.722,0.402,1.081,0.607c1.637,0.941,3.305,2.037,4.385,3.641
			c0.751,1.116,1.233,2.465,1.559,4.376l0.103,0.598l-0.816-0.161c-0.178-0.035-0.357-0.07-0.535-0.104
			c-1.042-0.2-2.123-0.405-3.012-0.692L127.23,110.368z M118.089,95.642c-0.799,1.891-0.975,3.395-0.569,4.807
			c0.151,0.523,0.389,1.031,0.712,1.51c0.904,1.344,2.369,2.311,3.683,3.08c0.459,0.271,0.922,0.525,1.369,0.775
			c0.813,0.45,1.651,0.916,2.38,1.405c0.857,0.576,1.421,1.09,1.778,1.618c0.165,0.243,0.308,0.527,0.438,0.863l0.418,0.136
			c0.841,0.272,1.895,0.473,2.914,0.667c0.051,0.01,0.102,0.02,0.154,0.03c-0.299-1.475-0.715-2.555-1.317-3.45
			c-0.983-1.463-2.558-2.49-4.108-3.381c-0.356-0.205-0.713-0.404-1.07-0.602l-0.061-0.033c-0.896-0.498-1.823-1.012-2.582-1.551
			c-0.655-0.463-1.106-0.892-1.392-1.312c-0.142-0.209-0.235-0.41-0.296-0.619c-0.097-0.346-0.11-0.74-0.034-1.195l-0.3-0.379
			c-0.469-0.6-1.06-1.234-1.687-1.904C118.37,95.946,118.228,95.792,118.089,95.642"/>
		<path fill="#F15A29" d="M131.222,121.521c0.465,0.361,0.994,0.653,1.576,0.866c1.529,0.558,3.248,0.521,4.978,0.35
			c0.525-0.052,1.05-0.116,1.574-0.181c0.92-0.112,1.856-0.227,2.715-0.258c0.853-0.033,1.63,0.02,2.23,0.238
			c0.308,0.113,0.62,0.289,0.939,0.509l0.614-0.198c0.86-0.28,1.845-0.743,2.797-1.19c0.231-0.109,0.466-0.22,0.699-0.326
			c-1.102-1.075-2.29-2.021-3.686-2.529c-1.707-0.625-3.605-0.548-5.498-0.345c-0.432,0.047-0.864,0.1-1.294,0.151
			c-1.015,0.126-2.05,0.251-2.956,0.262c-0.676,0.007-1.281-0.048-1.748-0.22c-0.191-0.07-0.352-0.155-0.488-0.264
			c-0.286-0.222-0.511-0.559-0.694-0.969l-0.645-0.183c-0.752-0.211-1.611-0.378-2.521-0.556c-0.436-0.087-0.839-0.165-1.241-0.25
			C128.951,118.394,129.632,120.275,131.222,121.521"/>
		<path fill="#F15A29" d="M132.657,122.78C132.654,122.78,132.657,122.78,132.657,122.78h-0.003
			c-0.622-0.229-1.192-0.542-1.69-0.931c-1.87-1.464-2.496-3.749-2.801-5.342l-0.119-0.617l0.617,0.13
			c0.398,0.084,0.799,0.163,1.23,0.247c0.918,0.176,1.784,0.347,2.558,0.565l0.834,0.235l0.079,0.179
			c0.166,0.372,0.359,0.645,0.57,0.811c0.352,0.276,0.998,0.404,1.972,0.394c0.885-0.011,1.915-0.137,2.91-0.259
			c0.439-0.054,0.87-0.105,1.301-0.152c1.88-0.2,3.871-0.295,5.687,0.367c1.265,0.463,2.447,1.271,3.834,2.623l0.434,0.424
			l-0.715,0.332c-0.177,0.082-0.356,0.164-0.531,0.248c-0.965,0.454-1.961,0.922-2.846,1.21l-0.813,0.264l-0.169-0.118
			c-0.303-0.211-0.587-0.365-0.843-0.458c-0.487-0.179-1.167-0.248-2.073-0.216c-0.84,0.03-1.775,0.147-2.679,0.257
			c-0.46,0.056-1.033,0.126-1.585,0.181C136.208,123.313,134.335,123.393,132.657,122.78 M129.114,116.967
			c0.466,1.999,1.207,3.315,2.365,4.224c0.43,0.336,0.922,0.605,1.461,0.804h0.003c1.519,0.555,3.276,0.478,4.791,0.327
			c0.499-0.053,0.984-0.11,1.565-0.18c0.92-0.113,1.871-0.23,2.749-0.261c1.033-0.04,1.793,0.044,2.388,0.263
			c0.278,0.102,0.561,0.247,0.86,0.441l0.422-0.137c0.835-0.272,1.808-0.729,2.748-1.172c0.046-0.022,0.095-0.044,0.143-0.067
			c-1.108-1.015-2.079-1.645-3.095-2.015c-1.656-0.604-3.531-0.514-5.31-0.322c-0.429,0.045-0.855,0.099-1.279,0.151
			c-1.026,0.126-2.081,0.253-3.011,0.263c-1.195,0.015-1.982-0.168-2.498-0.571c-0.284-0.222-0.527-0.532-0.732-0.946l-0.463-0.13
			c-0.739-0.209-1.589-0.375-2.49-0.55C129.519,117.046,129.314,117.005,129.114,116.967"/>
		<path fill="#F15A29" d="M154.952,130.183c0.586,0.02,1.186-0.055,1.781-0.225c1.567-0.449,2.935-1.488,4.234-2.642
			c0.395-0.351,0.781-0.712,1.166-1.071c0.678-0.633,1.37-1.275,2.045-1.804c0.674-0.53,1.332-0.942,1.945-1.119
			c0.314-0.09,0.674-0.132,1.057-0.14l0.381-0.524c0.531-0.729,1.057-1.685,1.562-2.606c0.123-0.225,0.25-0.449,0.377-0.675
			c-1.527-0.222-3.043-0.287-4.471,0.119c-1.75,0.5-3.238,1.681-4.65,2.955c-0.322,0.292-0.643,0.588-0.958,0.884
			c-0.749,0.699-1.512,1.408-2.237,1.949c-0.543,0.401-1.064,0.711-1.543,0.849c-0.197,0.056-0.377,0.081-0.55,0.073
			c-0.362-0.012-0.741-0.15-1.131-0.376l-0.63,0.232c-0.732,0.269-1.525,0.642-2.367,1.031c-0.4,0.188-0.773,0.358-1.15,0.528
			C151.276,128.989,152.931,130.11,154.952,130.183"/>
		<path fill="#F15A29" d="M152.985,130.214L152.985,130.214c-1.132-0.412-2.231-1.14-3.456-2.286l-0.46-0.432l0.576-0.256
			c0.372-0.167,0.742-0.34,1.142-0.526c0.848-0.395,1.649-0.767,2.399-1.044l0.812-0.299l0.17,0.097
			c0.354,0.203,0.67,0.312,0.939,0.321c0.126,0.004,0.265-0.015,0.419-0.06c0.388-0.108,0.85-0.365,1.41-0.781
			c0.709-0.527,1.468-1.234,2.201-1.919c0.318-0.297,0.639-0.594,0.963-0.887c1.402-1.269,2.956-2.516,4.816-3.046
			c1.293-0.371,2.726-0.412,4.641-0.134l0.604,0.089l-0.412,0.738c-0.084,0.155-0.174,0.31-0.258,0.466
			c-0.513,0.932-1.042,1.896-1.59,2.65l-0.501,0.689l-0.208,0.005c-0.372,0.007-0.691,0.051-0.951,0.124
			c-0.5,0.143-1.09,0.483-1.805,1.047c-0.66,0.515-1.348,1.156-2.012,1.775c-0.344,0.32-0.766,0.714-1.18,1.083
			c-1.209,1.075-2.676,2.239-4.395,2.731c-0.64,0.182-1.282,0.263-1.915,0.241C154.28,130.576,153.624,130.447,152.985,130.214
			 M150.568,127.738c0.954,0.826,1.824,1.368,2.703,1.69c0.558,0.204,1.127,0.316,1.694,0.337c0.545,0.02,1.099-0.051,1.653-0.209
			c1.559-0.444,2.931-1.54,4.069-2.553c0.406-0.36,0.824-0.751,1.16-1.064c0.684-0.637,1.385-1.29,2.073-1.828
			c0.812-0.637,1.476-1.016,2.089-1.19c0.28-0.081,0.594-0.13,0.953-0.149l0.258-0.357c0.518-0.71,1.037-1.651,1.535-2.562
			c0.026-0.046,0.053-0.092,0.078-0.138c-1.496-0.171-2.648-0.109-3.689,0.186c-1.694,0.486-3.156,1.663-4.484,2.862
			c-0.32,0.291-0.638,0.587-0.955,0.879c-0.747,0.701-1.525,1.422-2.273,1.979c-0.639,0.479-1.188,0.777-1.676,0.916
			c-0.242,0.069-0.464,0.099-0.68,0.089c-0.359-0.012-0.738-0.121-1.148-0.335l-0.453,0.167c-0.719,0.264-1.502,0.63-2.334,1.016
			C150.946,127.566,150.754,127.652,150.568,127.738"/>
		<path fill="#F15A29" d="M179.239,123.244c0.486-0.329,0.928-0.743,1.311-1.231c1.004-1.281,1.5-2.928,1.871-4.623
			c0.113-0.517,0.215-1.037,0.314-1.554c0.178-0.911,0.359-1.839,0.594-2.663c0.235-0.824,0.524-1.543,0.918-2.048
			c0.202-0.257,0.465-0.499,0.771-0.737v-0.644c0-0.902-0.135-1.981-0.268-3.026c-0.031-0.254-0.062-0.512-0.092-0.768
			c-1.365,0.717-2.631,1.557-3.546,2.723c-1.121,1.435-1.635,3.264-2.025,5.125c-0.091,0.425-0.175,0.852-0.257,1.277
			c-0.195,1.004-0.394,2.027-0.665,2.893c-0.2,0.644-0.441,1.2-0.747,1.594c-0.129,0.16-0.258,0.286-0.4,0.383
			c-0.302,0.203-0.689,0.312-1.139,0.359l-0.372,0.559c-0.433,0.649-0.858,1.415-1.31,2.227c-0.216,0.387-0.416,0.747-0.619,1.101
			C175.564,124.438,177.563,124.372,179.239,123.244"/>
		<path fill="#F15A29" d="M172.903,124.529l0.312-0.546c0.205-0.355,0.402-0.713,0.617-1.098c0.453-0.816,0.881-1.589,1.328-2.256
			l0.48-0.719l0.193-0.021c0.406-0.044,0.727-0.142,0.947-0.292c0.105-0.071,0.207-0.167,0.305-0.294
			c0.25-0.317,0.471-0.795,0.682-1.461c0.265-0.848,0.461-1.864,0.65-2.848c0.084-0.428,0.168-0.856,0.26-1.283
			c0.389-1.85,0.912-3.772,2.104-5.296c0.831-1.06,1.966-1.934,3.681-2.837l0.536-0.281l0.105,0.873
			c0.021,0.166,0.041,0.33,0.06,0.494c0.133,1.055,0.272,2.146,0.273,3.079v0.853l-0.164,0.128
			c-0.303,0.227-0.529,0.443-0.699,0.659c-0.32,0.408-0.596,1.031-0.842,1.905c-0.232,0.804-0.412,1.728-0.584,2.618
			c-0.092,0.464-0.201,1.029-0.319,1.57c-0.345,1.58-0.848,3.386-1.95,4.795c-0.409,0.521-0.884,0.966-1.408,1.319
			c-1.969,1.327-4.336,1.214-5.945,1.014L172.903,124.529z M176.124,120.696l-0.268,0.398c-0.426,0.639-0.847,1.396-1.295,2.195
			c-0.103,0.19-0.203,0.373-0.305,0.552c2.051,0.175,3.529-0.124,4.747-0.944c0.452-0.305,0.862-0.687,1.216-1.143
			c0.998-1.276,1.467-2.969,1.792-4.454c0.118-0.534,0.227-1.095,0.315-1.544c0.178-0.918,0.361-1.859,0.601-2.698
			c0.282-0.992,0.597-1.688,0.989-2.19c0.18-0.23,0.404-0.453,0.684-0.682v-0.442c0-0.88-0.135-1.943-0.265-2.974
			c-0.007-0.053-0.015-0.105-0.017-0.158c-1.31,0.741-2.209,1.469-2.875,2.318c-1.087,1.391-1.578,3.203-1.947,4.953
			c-0.09,0.424-0.173,0.85-0.255,1.272c-0.196,1.004-0.399,2.043-0.677,2.937c-0.238,0.765-0.507,1.327-0.818,1.727
			c-0.157,0.199-0.318,0.354-0.498,0.473C176.95,120.493,176.581,120.627,176.124,120.696"/>
		<path fill="#F15A29" d="M194.811,103.355c0.201-0.552,0.314-1.148,0.334-1.766c0.059-1.629-0.507-3.252-1.201-4.842
			c-0.213-0.484-0.437-0.963-0.658-1.441c-0.395-0.842-0.791-1.697-1.086-2.503c-0.293-0.802-0.484-1.556-0.461-2.195
			c0.01-0.327,0.08-0.681,0.193-1.051l-0.381-0.522c-0.529-0.729-1.276-1.523-1.994-2.289c-0.178-0.188-0.352-0.377-0.529-0.568
			c-0.68,1.383-1.211,2.806-1.266,4.287c-0.066,1.82,0.595,3.6,1.371,5.336c0.179,0.396,0.363,0.793,0.545,1.186
			c0.432,0.928,0.871,1.873,1.162,2.73c0.216,0.64,0.349,1.231,0.333,1.729c-0.01,0.206-0.041,0.382-0.102,0.546
			c-0.122,0.34-0.372,0.657-0.706,0.959l0.026,0.672c0.03,0.778,0.138,1.648,0.249,2.569c0.055,0.438,0.104,0.847,0.146,1.255
			C192.54,106.48,194.118,105.253,194.811,103.355"/>
		<path fill="#F15A29" d="M190.438,108.116l-0.065-0.625c-0.046-0.406-0.094-0.811-0.149-1.25c-0.111-0.926-0.217-1.801-0.25-2.604
			l-0.033-0.867l0.145-0.129c0.303-0.275,0.503-0.541,0.595-0.793c0.043-0.121,0.067-0.256,0.075-0.418
			c0.014-0.403-0.088-0.92-0.311-1.58c-0.283-0.847-0.723-1.783-1.145-2.688l-0.019-0.038c-0.18-0.384-0.356-0.768-0.528-1.152
			c-0.771-1.726-1.479-3.588-1.409-5.523c0.05-1.344,0.454-2.717,1.31-4.454l0.268-0.545l0.601,0.644
			c0.113,0.123,0.227,0.245,0.338,0.365c0.73,0.775,1.482,1.578,2.029,2.33l0.504,0.69l-0.062,0.201
			c-0.106,0.359-0.165,0.668-0.177,0.943c-0.017,0.518,0.125,1.186,0.439,2.036c0.287,0.788,0.685,1.642,1.068,2.467
			c0.231,0.491,0.453,0.97,0.664,1.454c0.648,1.483,1.304,3.234,1.239,5.024c-0.023,0.664-0.146,1.303-0.36,1.896
			c-0.817,2.232-2.797,3.53-4.214,4.315L190.438,108.116z M190.79,103.122l0.02,0.482c0.03,0.768,0.133,1.627,0.247,2.535
			c0.025,0.215,0.051,0.422,0.073,0.627c1.758-1.062,2.783-2.174,3.287-3.555c0.186-0.512,0.293-1.062,0.313-1.639
			c0.058-1.618-0.558-3.264-1.172-4.658c-0.205-0.477-0.425-0.949-0.651-1.434c-0.392-0.844-0.802-1.713-1.099-2.534
			c-0.354-0.97-0.511-1.718-0.486-2.354c0.01-0.293,0.059-0.605,0.154-0.955l-0.261-0.357c-0.517-0.711-1.254-1.492-1.964-2.251
			c-0.035-0.037-0.072-0.077-0.107-0.114c-0.625,1.367-0.922,2.484-0.962,3.564c-0.064,1.763,0.604,3.518,1.335,5.151
			c0.17,0.382,0.348,0.761,0.522,1.138l0.019,0.041c0.434,0.927,0.879,1.884,1.179,2.773c0.259,0.758,0.374,1.372,0.355,1.878
			c-0.01,0.251-0.051,0.474-0.125,0.675C191.343,102.474,191.12,102.8,190.79,103.122"/>
		<path fill="#F15A29" d="M195.716,78.11c-0.161-0.563-0.419-1.11-0.764-1.625c-0.912-1.353-2.324-2.333-3.822-3.21
			c-0.455-0.266-0.916-0.523-1.379-0.779c-0.811-0.449-1.635-0.906-2.349-1.386c-0.708-0.478-1.306-0.976-1.663-1.506
			c-0.184-0.273-0.334-0.599-0.462-0.964l-0.612-0.199c-0.859-0.277-1.928-0.48-2.962-0.682c-0.252-0.047-0.507-0.096-0.759-0.146
			c0.261,1.519,0.668,2.981,1.494,4.211c1.018,1.513,2.6,2.565,4.246,3.511c0.379,0.217,0.76,0.428,1.139,0.639
			c0.894,0.496,1.805,1.003,2.543,1.527c0.552,0.391,1.006,0.791,1.285,1.205c0.117,0.17,0.193,0.332,0.24,0.498
			c0.101,0.348,0.082,0.752-0.007,1.193l0.415,0.525c0.482,0.615,1.08,1.254,1.712,1.935c0.302,0.323,0.581,0.623,0.856,0.929
			C195.716,81.974,196.27,80.052,195.716,78.11"/>
		<path fill="#F15A29" d="M194.981,84.534l-0.423-0.467c-0.275-0.303-0.556-0.604-0.853-0.926c-0.64-0.684-1.242-1.332-1.736-1.959
			l-0.536-0.682l0.042-0.191c0.083-0.397,0.088-0.731,0.014-0.989c-0.033-0.123-0.097-0.247-0.185-0.382
			c-0.225-0.334-0.612-0.693-1.179-1.096c-0.728-0.518-1.632-1.019-2.505-1.502l-0.039-0.021c-0.366-0.205-0.735-0.411-1.104-0.621
			c-1.637-0.941-3.304-2.035-4.386-3.641c-0.75-1.117-1.232-2.463-1.56-4.375l-0.102-0.597l0.85,0.167
			c0.169,0.033,0.336,0.066,0.502,0.096c1.044,0.201,2.127,0.408,3.012,0.695l0.813,0.262l0.069,0.195
			c0.123,0.355,0.259,0.641,0.411,0.867c0.291,0.432,0.799,0.889,1.552,1.393c0.698,0.469,1.521,0.926,2.318,1.368
			c0.472,0.263,0.935,0.519,1.388,0.785c1.395,0.817,2.955,1.853,3.955,3.337c0.373,0.551,0.646,1.137,0.818,1.745
			c0.658,2.284-0.184,4.499-0.87,5.968L194.981,84.534z M192.33,80.287l0.296,0.376c0.476,0.604,1.064,1.236,1.691,1.908
			c0.147,0.158,0.289,0.311,0.43,0.462c0.798-1.892,0.972-3.394,0.566-4.808c-0.146-0.523-0.386-1.029-0.709-1.506
			c-0.906-1.347-2.37-2.314-3.687-3.084c-0.446-0.262-0.901-0.515-1.369-0.773c-0.812-0.451-1.65-0.916-2.378-1.407
			c-0.857-0.573-1.422-1.09-1.779-1.618c-0.165-0.242-0.307-0.525-0.434-0.861l-0.422-0.137c-0.837-0.271-1.893-0.473-2.912-0.668
			c-0.054-0.008-0.105-0.02-0.154-0.029c0.298,1.474,0.713,2.554,1.314,3.449c0.983,1.465,2.557,2.491,4.108,3.383
			c0.366,0.209,0.731,0.412,1.097,0.613l0.035,0.02c0.895,0.496,1.818,1.01,2.585,1.553c0.651,0.462,1.107,0.893,1.39,1.312
			c0.142,0.209,0.235,0.412,0.296,0.619C192.392,79.439,192.405,79.83,192.33,80.287"/>
		<path fill="#FFCB1F" d="M126.553,38.762c0.742-2.453,2.137-4.701,3.939-6.673c1.821-1.946,4.25-3.54,7.063-4.246
			c2.807-0.726,5.843-0.46,8.51,0.431c2.688,0.885,5.061,2.323,7.18,3.948l-3.968,1.433c0.304-1.26,0.654-2.293,1.065-3.406
			c0.431-1.08,0.903-2.149,1.464-3.184c1.127-2.058,2.537-4.048,4.437-5.65c1.87-1.602,4.347-2.75,6.843-2.774
			c2.491-0.026,4.745,0.874,6.501,2.228c-2.196-0.338-4.329-0.426-6.14,0.209c-1.81,0.584-3.256,1.718-4.445,3.15
			c-1.185,1.439-2.146,3.137-2.938,4.943c-0.398,0.902-0.768,1.828-1.08,2.777c-0.326,0.918-0.633,1.947-0.83,2.791l-3.969,1.433
			c-1.816-1.419-3.735-2.632-5.735-3.457c-2-0.822-4.08-1.228-6.186-1.025c-2.106,0.185-4.226,1.009-6.206,2.265
			C130.06,35.201,128.239,36.867,126.553,38.762"/>
		<path fill="#F15A29" d="M131.241,24.307c-0.145-1.521,0.166-3.074,0.829-4.547c0.671-1.461,1.814-2.861,3.394-3.785
			c1.57-0.939,3.478-1.29,5.219-1.189c1.755,0.097,3.378,0.58,4.849,1.213l-3.502,2.356c-0.005-0.832,0.055-1.455,0.135-2.173
			c0.105-0.691,0.232-1.384,0.427-2.07c0.394-1.365,0.976-2.746,1.944-3.968c0.945-1.216,2.37-2.252,3.92-2.532
			c1.545-0.291,2.992,0.092,4.109,0.819c-1.305,0.339-2.421,0.783-3.165,1.456c-0.749,0.654-1.177,1.426-1.503,2.312
			c-0.315,0.891-0.535,1.879-0.663,2.918c-0.067,0.519-0.13,1.047-0.152,1.582c-0.047,0.508-0.064,1.117-0.055,1.518l-3.502,2.357
			c-1.128-0.509-2.251-0.883-3.325-1.09c-1.077-0.195-2.095-0.214-3.112,0.049c-1.021,0.246-2.055,0.821-3.043,1.657
			C133.049,22.026,132.126,23.086,131.241,24.307"/>
		<path fill="#F15A29" d="M150.529,42.501c1-0.927,2.266-1.533,3.68-1.84c1.406-0.291,3.066-0.187,4.592,0.584
			c1.53,0.756,2.712,2.14,3.409,3.552c0.713,1.426,1.039,2.896,1.193,4.307l-4.083-1.672c0.64-0.511,1.158-0.846,1.763-1.22
			c0.601-0.34,1.215-0.663,1.867-0.931c1.302-0.525,2.74-0.92,4.306-0.885c1.545,0.012,3.267,0.586,4.354,1.727
			c1.09,1.13,1.532,2.525,1.542,3.84c-0.507-0.434-0.985-0.831-1.474-1.143c-0.497-0.303-0.975-0.532-1.441-0.65
			c-0.931-0.236-1.738-0.121-2.596,0.146c-0.854,0.281-1.739,0.705-2.615,1.235c-0.438,0.263-0.883,0.534-1.308,0.841
			c-0.42,0.273-0.899,0.631-1.205,0.881l-4.083-1.672c-0.095-1.061-0.278-2.057-0.553-2.918c-0.286-0.863-0.645-1.568-1.216-2.164
			c-0.562-0.604-1.423-1.095-2.494-1.42C153.093,42.766,151.87,42.592,150.529,42.501"/>
		<path fill="#F15A29" d="M168.599,25.196c1.284-0.431,2.657-0.497,4.046-0.301c1.381,0.214,2.825,0.764,4.069,1.841
			c1.25,1.064,2.133,2.726,2.387,4.37c0.281,1.653,0.055,3.22-0.33,4.622l-2.93-3.131c0.809-0.153,1.377-0.188,2.062-0.217
			c0.66,0.002,1.322,0.03,1.988,0.133c1.322,0.211,2.688,0.647,3.883,1.475c1.197,0.809,2.158,2.027,2.574,3.331
			c0.42,1.308,0.385,2.616-0.012,3.781c-0.68-1.031-1.342-1.902-2.088-2.492c-0.736-0.597-1.482-0.924-2.268-1.113
			c-0.787-0.185-1.621-0.266-2.504-0.25c-0.441,0.007-0.891,0.018-1.338,0.073c-0.424,0.025-0.963,0.105-1.244,0.164l-2.928-3.131
			c0.285-0.967,0.443-1.893,0.44-2.703c-0.008-0.815-0.162-1.525-0.59-2.285c-0.424-0.756-1.157-1.511-2.067-2.2
			C170.837,26.463,169.776,25.834,168.599,25.196"/>
	</g>
</g>
</svg>
