<?xml version="1.0" encoding="UTF-8"?>
<svg width="24px" height="24px" viewBox="0 0 24 24" version="1.1" xmlns="http://www.w3.org/2000/svg" xmlns:xlink="http://www.w3.org/1999/xlink">
    <!-- Generator: Sketch 45.2 (43514) - http://www.bohemiancoding.com/sketch -->
    <title>user</title>
    <desc>Created with Sketch.</desc>
    <defs></defs>
    <g id="Page-1" stroke="none" stroke-width="1" fill="none" fill-rule="evenodd">
        <g id="user">
            <g id="Group-3">
                <rect id="Rectangle-2" x="0" y="0" width="24" height="24"></rect>
                <path d="M5.6,15.9923874 L5.6,17.077408 C5.87998281,17.2482721 8.11694296,18.3976242 11.9999998,18.3976238 C15.8830566,18.3976233 18.1203102,17.2494936 18.4,17.0787229 L18.4,15.9923874 C18.4,14.6194824 15.3543652,13.5517757 15.1372632,13.4700438 C14.4560158,14.692681 13.4488607,15.5999998 12,15.6 C10.5519071,15.6000002 9.54505176,14.6936429 8.86382016,13.4719877 C8.64892116,13.5527505 5.6,14.6166992 5.6,15.9923874 Z M7.6,8.14291892 C7.6,5.85484798 9.56994712,4 12,4 C14.4300529,4 16.4,5.85484798 16.4,8.14291892 C16.4,9.11386624 16.2304062,10.6035973 15.770895,11.9969755 C17.3732222,12.6091112 20,13.6005859 20,15.9923874 L20,17.5981076 C20,18.4821522 16.5479492,19.9999994 12,20 C7.4520508,20.0000006 4,18.4791362 4,17.5981076 L4,15.9923874 C4,13.592334 6.62824796,12.6099711 8.22978416,11.9990345 C7.76976092,10.605065 7.6,9.11434444 7.6,8.14291892 Z M11.9999997,14 C13.575663,13.9999998 14.8,11.1061068 14.8,8.14291892 C14.8,6.76075656 13.5672149,5.6 12,5.6 C10.4327851,5.6 9.2,6.76075656 9.2,8.14291892 C9.2,11.1061071 10.424337,14.0000002 11.9999997,14 Z" id="Combined-Shape" fill="#000000" fill-rule="nonzero"></path>
            </g>
        </g>
    </g>
</svg>