<svg xmlns="http://www.w3.org/2000/svg" width="684" height="142" viewBox="0 0 684 142" xmlns:xlink="http://www.w3.org/1999/xlink"><defs><path id="a" d="M38.482.476v56.55H.2V.476h38.282z"/></defs><g fill="none" fill-rule="evenodd"><path fill="#1D1C1B" d="M45.072 99.351c0 5.036-1.844 9.125-5.528 12.271-3.69 3.147-9.162 4.72-16.426 4.72-4.064 0-7.678-.368-10.842-1.104-3.166-.737-6.62-1.79-10.358-3.158V98.272c3.272 1.87 6.113 3.292 8.52 4.261 2.412.971 5.053 1.457 7.934 1.457 4.853 0 7.283-1.329 7.283-3.993 0-.898-.354-1.699-1.053-2.4-.701-.7-1.925-1.49-3.67-2.374-1.743-.88-4.072-1.932-6.985-3.155-3.597-1.58-6.654-3.7-9.17-6.365C2.259 83.043 1 79.79 1 75.941c0-2.734.839-5.36 2.509-7.876 1.672-2.517 4.198-4.576 7.579-6.179 3.38-1.597 7.462-2.398 12.245-2.398 1.15 0 2.615.08 4.397.242 1.779.163 4.026.586 6.742 1.268a36.2 36.2 0 0 1 7.74 2.913v13.432a370.322 370.322 0 0 1-2.884-1.726c-.775-.468-1.808-.99-3.1-1.567-1.297-.573-2.817-1.086-4.562-1.535a21.44 21.44 0 0 0-5.367-.675c-2.228 0-3.756.432-4.585 1.296-.826.861-1.24 1.725-1.24 2.588 0 .9.43 1.736 1.296 2.51.863.772 2.787 1.732 5.77 2.886 4.317 1.655 7.769 3.352 10.358 5.095 2.588 1.746 4.43 3.662 5.529 5.746 1.096 2.087 1.645 4.55 1.645 7.39m53.833 12.838c-2.013.971-4.792 1.907-8.333 2.806-3.542.898-6.93 1.347-10.168 1.347-13.99 0-20.984-6.83-20.984-20.497v-21.9h-8.792v-3.4l26.054-26.54h2.212V60.46H97.45v13.485H78.894v17.587c0 2.05.124 3.702.375 4.962.252 1.258.964 2.31 2.133 3.155 1.168.845 2.94 1.267 5.312 1.267 3.092 0 7.156-1.295 12.191-3.882v15.156zm163.231-48.763l-7.177 19.476c-2.947-2.81-5.93-4.21-8.952-4.21-2.734 0-5.099.924-7.093 2.779-1.997 1.853-3.91 5.275-5.745 10.275v23.626h-19.42V60.46h19.42v13.27c1.224-3.275 3.38-6.463 6.473-9.575 3.092-3.111 6.725-4.667 10.898-4.667 2.192 0 4.106.324 5.744.972 1.637.647 3.587 1.638 5.852 2.966M331.389 60.459l-37.329 79.887h-19.634l15.104-32.148-21.74-47.739h20.874l11.168 27.294 12.676-27.294zM419.625 59.907l-23.976 56.552h-2.829l-17.054-45.038-17.216 45.038h-2.661l-23.742-56.552h5.819l18.93 45.216 17.415-45.216h3.218l16.866 45.216 19.366-45.216zM429.695 80.827h35.93c-2.089-10.812-7.938-16.217-17.545-16.217-4.54 0-8.47 1.415-11.784 4.25-3.317 2.832-5.517 6.822-6.6 11.967m42.921 4.764h-43.706a23.181 23.181 0 0 0-.183 2.893c0 6.191 2.211 11.436 6.631 15.735 4.422 4.3 9.65 6.45 15.676 6.45 7.033 0 13.905-2.752 20.62-8.259v6.69c-6.355 4.906-13.467 7.357-21.343 7.357-7.999 0-14.609-2.775-19.833-8.319-5.228-5.548-7.839-12.601-7.839-21.161 0-8.119 2.411-14.84 7.233-20.168 4.823-5.324 10.892-7.987 18.207-7.987 6.874 0 12.682 2.401 17.424 7.203 4.743 4.804 7.113 11.326 7.113 19.566m40.998 18.808V87.096c-7.597-.28-13.897 1.056-18.899 4.01-5.005 2.954-7.508 6.723-7.508 11.304 0 2.573 1.046 4.743 3.136 6.51 2.088 1.771 4.703 2.655 7.836 2.655 5.065 0 10.21-2.393 15.435-7.176m15.191 1.326v4.944c-5.102 3.86-8.84 5.79-11.213 5.79-1.367 0-2.31-.455-2.833-1.359-.523-.903-.904-2.74-1.145-5.515-5.829 4.581-11.616 6.874-17.366 6.874-4.178 0-7.714-1.369-10.61-4.1-2.89-2.732-4.338-6.049-4.338-9.949 0-6.028 2.793-10.783 8.38-14.258 5.584-3.477 13.564-5.477 23.934-5.997V75.1c0-7.557-4.102-11.336-12.3-11.336-5.227 0-10.873 2.353-16.94 7.054v-6.087c6.27-3.939 12.237-5.91 17.906-5.91 5.022 0 9.164 1.235 12.418 3.71 3.257 2.47 4.885 6.057 4.885 10.762v34.543c0 1.89.44 2.833 1.326 2.833 1.124 0 3.757-1.649 7.896-4.944M579.208 59.907l-23.881 56.552h-3.561l-25.31-56.552h6.006l20.913 46.723 20.057-46.723zM589.276 80.827h35.931c-2.089-10.812-7.939-16.217-17.542-16.217-4.542 0-8.472 1.415-11.787 4.25-3.318 2.832-5.517 6.822-6.602 11.967m42.925 4.764h-43.708a23.179 23.179 0 0 0-.18 2.893c0 6.191 2.208 11.436 6.63 15.735 4.42 4.3 9.645 6.45 15.674 6.45 7.032 0 13.905-2.752 20.62-8.259v6.69c-6.353 4.906-13.466 7.357-21.342 7.357-7.998 0-14.61-2.775-19.837-8.319-5.224-5.548-7.836-12.601-7.836-21.161 0-8.119 2.41-14.84 7.235-20.168 4.823-5.324 10.892-7.987 18.208-7.987 6.87 0 12.68 2.401 17.421 7.203 4.742 4.804 7.115 11.326 7.115 19.566"/><g transform="translate(644 58.346)"><mask id="b" fill="#fff"><use xlink:href="#a"/></mask><path fill="#1D1C1B" d="M38.483 7.047l-3.438 5.548c-4.623-4.223-8.34-6.33-11.153-6.33-5.547 0-11.474 5.303-17.784 15.914v34.847H.2V1.563h5.907V16.15h.241C12.98 5.701 19.453.476 25.76.476c3.618 0 7.857 2.188 12.723 6.571" mask="url(#b)"/></g><path fill="#1D1C1B" d="M480.092 24.49h-2.428v5.121h2.568c.952 0 1.687-.223 2.203-.675.515-.448.774-1.09.774-1.925 0-1.679-1.04-2.522-3.117-2.522zM475.31 38.8V22.404h5.19c1.566 0 2.81.422 3.74 1.266.93.843 1.395 1.978 1.395 3.398 0 .952-.24 1.797-.714 2.532a4.11 4.11 0 0 1-1.958 1.6c-.828.332-2.017.498-3.562.498h-1.737v7.103h-2.354zm15.482-14.38h-.704v5.168h.891c1.188 0 2.002-.102 2.443-.306a2.282 2.282 0 0 0 1.032-.92 2.67 2.67 0 0 0 .37-1.4 2.49 2.49 0 0 0-.41-1.4 2.203 2.203 0 0 0-1.155-.885c-.496-.17-1.32-.257-2.467-.257zM487.744 38.8V22.428h4.103c1.655 0 2.971.412 3.945 1.23.972.824 1.456 1.929 1.456 3.329 0 .953-.236 1.778-.713 2.472-.476.695-1.16 1.216-2.05 1.56.523.342 1.033.813 1.534 1.407.501.593 1.203 1.629 2.111 3.105.57.928 1.025 1.629 1.371 2.097l.865 1.172h-2.788l-.715-1.077a2.037 2.037 0 0 0-.14-.201l-.457-.643-.726-1.197-.782-1.277c-.487-.672-.928-1.21-1.33-1.607-.405-.397-.767-.685-1.09-.86-.327-.175-.872-.262-1.64-.262h-.61V38.8h-2.344zm23.104-6.937l-2.642-5.93-2.45 5.93h5.092zm-3.444-9.53h1.648l7.34 16.468h-2.398l-2.183-4.852h-6.983l-2.047 4.852h-2.41l7.033-16.468zM514.414 22.404h13.677v2.085h-5.707v14.312h-2.355V24.489h-5.615zM541.851 22.428h2.344v16.373h-2.344v-7.125h-9.201v7.125h-2.343V22.428h2.343v7.079h9.201zM556.477 31.863l-2.642-5.93-2.451 5.93h5.093zm-3.444-9.53h1.647l7.342 16.468h-2.401l-2.182-4.852h-6.983l-2.048 4.852h-2.41l7.035-16.468zM576.835 22.428h2.191v16.373h-2.356V26.062l-5.034 6.329h-.433l-5.093-6.329v12.739h-2.343V22.428h2.218l5.44 6.724zM593.758 31.522h-2.191v5.192h2.309c1.28 0 2.15-.099 2.606-.299.458-.2.826-.509 1.104-.933.277-.42.415-.873.415-1.358 0-.5-.145-.956-.44-1.37-.293-.417-.708-.724-1.248-.928-.538-.203-1.392-.304-2.555-.304m-.176-7.009h-2.015v4.923h1.559c1.248 0 2.138-.239 2.667-.715.527-.475.79-1.094.79-1.85 0-1.573-1.001-2.358-3.001-2.358m1.185 14.288h-5.543V22.426h4.287c1.353 0 2.407.183 3.165.546.758.363 1.337.864 1.734 1.5.399.637.598 1.372.598 2.211 0 1.61-.831 2.76-2.496 3.456 1.195.228 2.145.72 2.854 1.477.707.757 1.06 1.664 1.06 2.72 0 .834-.215 1.58-.644 2.236-.43.66-1.062 1.193-1.892 1.606-.833.414-1.872.623-3.123.623m16.097-14.38c-1.876 0-3.415.585-4.62 1.758-1.207 1.17-1.81 2.669-1.81 4.488 0 1.767.604 3.235 1.815 4.408 1.211 1.17 2.722 1.757 4.543 1.757 1.827 0 3.35-.6 4.574-1.795 1.22-1.194 1.83-2.684 1.83-4.464 0-1.734-.61-3.195-1.83-4.378-1.224-1.183-2.725-1.774-4.502-1.774m-.095-2.228c2.53 0 4.636.803 6.318 2.405 1.683 1.6 2.526 3.607 2.526 6.022s-.852 4.413-2.549 5.995c-1.698 1.58-3.84 2.372-6.425 2.372-2.467 0-4.522-.792-6.167-2.372-1.642-1.582-2.463-3.566-2.463-5.948 0-2.446.826-4.47 2.481-6.07 1.656-1.601 3.748-2.404 6.28-2.404m19.853 2.228c-1.874 0-3.414.585-4.62 1.758-1.207 1.17-1.81 2.669-1.81 4.488 0 1.767.605 3.235 1.814 4.408 1.212 1.17 2.725 1.757 4.545 1.757 1.827 0 3.35-.6 4.573-1.795 1.222-1.194 1.831-2.684 1.831-4.464 0-1.734-.609-3.195-1.83-4.378-1.225-1.183-2.725-1.774-4.503-1.774m-.096-2.228c2.53 0 4.636.803 6.318 2.405 1.683 1.6 2.526 3.607 2.526 6.022s-.849 4.413-2.549 5.995c-1.697 1.58-3.839 2.372-6.423 2.372-2.467 0-4.523-.792-6.167-2.372-1.643-1.582-2.465-3.566-2.465-5.948 0-2.446.827-4.47 2.484-6.07 1.655-1.601 3.746-2.404 6.276-2.404M651.514 22.428h2.928l-7.102 7.771 8.85 8.602h-3.201l-8.368-8.088v8.088h-2.342V22.428h2.342v7.489zM662.049 31.941l-1.782-1.084c-1.117-.68-1.911-1.352-2.385-2.012-.473-.662-.71-1.42-.71-2.28 0-1.29.448-2.336 1.344-3.14.893-.806 2.056-1.208 3.487-1.208 1.365 0 2.62.382 3.76 1.152v2.66c-1.18-1.136-2.45-1.702-3.81-1.702-.762 0-1.393.176-1.883.53-.495.355-.74.808-.74 1.36 0 .491.18.951.543 1.377.363.43.947.876 1.749 1.35l1.79 1.058c1.996 1.194 2.997 2.712 2.997 4.554 0 1.314-.44 2.381-1.32 3.201-.878.82-2.02 1.23-3.427 1.23-1.617 0-3.092-.498-4.42-1.493v-2.976c1.268 1.606 2.733 2.406 4.398 2.406.733 0 1.344-.204 1.834-.61.486-.41.73-.922.73-1.537 0-.997-.718-1.945-2.155-2.836"/><path fill="#FCE900" d="M137.52 59.318c1.683-1.13 2.823-2.868 3.803-4.578.227-.395.448-.792.665-1.188.503-.907 1.025-1.842 1.554-2.59.41-.58.778-.973 1.119-1.2.127-.09.247-.148.37-.182.252-.074.584-.068.985.017l.236.05.74-.579c.655-.516 1.325-1.142 2.04-1.806.333-.31.643-.6.957-.883l.579-.525-.71-.333a15.684 15.684 0 0 0-1.312-.55c-1.83-.67-3.444-.787-4.937-.359a6.51 6.51 0 0 0-1.837.861c-1.555 1.046-2.635 2.676-3.485 4.133-.272.46-.532.924-.824 1.452-.455.821-.924 1.672-1.41 2.387-.518.775-.982 1.293-1.418 1.585a3.807 3.807 0 0 1-.88.42l-.245.084-.285.883c-.3.918-.512 2.037-.723 3.137-.04.223-.086.444-.131.666l-.167.858.744-.13c1.995-.339 3.405-.843 4.572-1.63m-16.12 18.72c.093.19.18.38.266.571l.389.838.526-.542c1.413-1.448 2.257-2.684 2.742-4.008.694-1.9.594-3.976.385-5.938-.046-.453-.105-.903-.16-1.352-.124-1.028-.257-2.094-.266-3.007-.007-.712.056-1.243.197-1.629.055-.147.117-.266.192-.364.165-.206.436-.397.81-.565l.224-.099.254-.904c.225-.798.4-1.697.59-2.658.086-.448.168-.863.254-1.279l.162-.765-.77.146c-1.664.322-4.055.974-5.593 2.94a6.51 6.51 0 0 0-.978 1.776c-.64 1.759-.557 3.712-.39 5.394.05.534.116 1.059.186 1.645.114.934.233 1.903.261 2.77.038.931-.031 1.624-.212 2.117-.094.26-.253.547-.468.857l-.148.211.288.883c.297.918.782 1.95 1.26 2.962m-1.633 19.018l.006.262.749.544c.784.566 1.782 1.117 2.76 1.654.235.13.464.262.697.39l.663.368.107-.75c.29-2 .248-3.499-.14-4.85-.557-1.947-1.856-3.572-3.176-5.033-.308-.336-.614-.669-.922-1-.708-.757-1.44-1.545-1.983-2.278-.43-.57-.69-1.038-.8-1.433a1.223 1.223 0 0 1-.057-.407c.008-.263.116-.579.32-.934l.123-.21-.324-.882c-.293-.784-.678-1.615-1.088-2.495-.195-.415-.372-.8-.544-1.186l-.322-.714-.532.572c-1.16 1.237-2.712 3.171-2.801 5.665a6.501 6.501 0 0 0 .255 2.012c.513 1.801 1.732 3.331 2.853 4.593.372.422.767.846 1.117 1.22.643.69 1.309 1.405 1.844 2.086.577.734.924 1.335 1.07 1.842.072.264.118.591.125.964m18.4 18.644l.81-.099-.353-.669c-.941-1.789-1.857-2.975-2.965-3.843-.73-.573-1.595-1.036-2.636-1.416-1.02-.372-2.084-.615-2.895-.786a82.399 82.399 0 0 0-1.331-.266c-1.02-.199-2.074-.404-2.943-.677a10.585 10.585 0 0 1-.405-.137c-.47-.172-.831-.356-1.084-.553a1.277 1.277 0 0 1-.286-.297c-.15-.22-.245-.535-.29-.944l-.025-.24-.78-.522c-.698-.467-1.5-.912-2.348-1.383a82.728 82.728 0 0 1-1.137-.639l-.678-.389-.097.777c-.21 1.682-.326 4.158 1.067 6.227.37.551.839 1.05 1.386 1.48.689.537 1.507.978 2.504 1.34.7.256 1.497.48 2.504.7a66.37 66.37 0 0 0 1.624.328c.926.181 1.883.365 2.719.604.905.26 1.53.537 1.945.86.216.17.444.41.67.711l.157.204h.927c.968 0 2.096-.143 3.206-.283.246-.03.49-.06.734-.088m19.005 2.792c-1.043-.383-2.001-.585-2.926-.615-2.026-.075-3.97.66-5.768 1.467-.412.186-.83.377-1.236.567-.94.44-1.914.893-2.778 1.184-.676.226-1.203.332-1.608.316a1.399 1.399 0 0 1-.412-.07c-.247-.092-.508-.292-.784-.595l-.16-.18-.941.034c-.84.036-1.747.146-2.71.263-.452.057-.874.108-1.294.152l-.78.083.378.686c.817 1.483 2.178 3.555 4.52 4.411a6.48 6.48 0 0 0 1.995.382c1.874.066 3.707-.616 5.249-1.294.52-.229 1.046-.473 1.52-.692.852-.397 1.73-.807 2.542-1.104.876-.32 1.556-.465 2.08-.448.277.014.599.071.958.181l.248.075.75-.546c.784-.569 1.617-1.353 2.428-2.113.167-.159.338-.315.506-.472l.632-.585-.677-.336a16.76 16.76 0 0 0-1.732-.75m16.098-6.052c-1.678 1.13-2.819 2.867-3.8 4.578-.227.394-.448.791-.665 1.186-.507.907-1.025 1.843-1.556 2.591-.411.58-.777.972-1.114 1.201a1.36 1.36 0 0 1-.372.181c-.252.073-.585.067-.987-.016l-.235-.05-.739.582c-.659.516-1.328 1.142-2.038 1.802-.335.312-.645.6-.958.883l-.583.525.711.333c.462.218.892.4 1.311.553 1.832.667 3.449.785 4.94.358a6.525 6.525 0 0 0 1.835-.865c1.555-1.044 2.636-2.675 3.486-4.13.273-.467.533-.928.821-1.45.457-.823.928-1.672 1.411-2.389.519-.774.983-1.294 1.42-1.586a3.73 3.73 0 0 1 .88-.417l.243-.086.287-.885c.298-.92.513-2.04.722-3.132.04-.228.087-.456.131-.682l.169-.846-.746.13c-1.993.342-3.407.845-4.574 1.631m16.125-18.72a35.002 35.002 0 0 1-.277-.59l-.38-.82-.526.543c-1.414 1.447-2.26 2.682-2.74 4.006-.697 1.903-.597 3.98-.39 5.938.05.454.105.905.16 1.352.128 1.027.257 2.092.268 3.01.007.71-.054 1.243-.198 1.627a1.29 1.29 0 0 1-.191.365c-.163.207-.436.396-.81.566l-.22.098-.257.904c-.227.805-.401 1.704-.59 2.657-.085.45-.167.865-.253 1.28l-.162.767.768-.149c1.665-.32 4.056-.974 5.593-2.938.41-.522.738-1.123.977-1.777.645-1.76.56-3.715.395-5.392-.057-.574-.133-1.169-.19-1.654-.117-.935-.233-1.898-.262-2.766-.038-.928.035-1.62.215-2.115.095-.258.25-.546.468-.855l.145-.213-.287-.882c-.298-.92-.786-1.957-1.256-2.962m8.639-8.312c-.517-1.804-1.73-3.333-2.851-4.593-.38-.427-.774-.849-1.13-1.23-.64-.689-1.302-1.399-1.831-2.078-.58-.734-.928-1.336-1.072-1.841a3.857 3.857 0 0 1-.125-.966l-.005-.259-.753-.545c-.78-.567-1.782-1.118-2.758-1.656a41.777 41.777 0 0 1-.554-.308l-.805-.448-.107.748c-.293 2.002-.25 3.499.137 4.853.559 1.947 1.856 3.57 3.183 5.033.3.335.61.668.92.998.705.761 1.439 1.544 1.983 2.276.425.573.685 1.04.798 1.434.045.15.062.284.057.409-.008.262-.118.578-.32.933l-.12.21.322.882c.29.784.678 1.615 1.089 2.496.19.413.37.798.543 1.185l.319.714.536-.571c1.158-1.239 2.709-3.172 2.798-5.664a6.44 6.44 0 0 0-.254-2.012m-12.69-21.456c.469.17.832.356 1.084.553.125.097.215.192.284.296.15.218.245.537.29.944l.027.241.782.522c.69.465 1.496.911 2.344 1.381.4.222.77.427 1.136.638l.677.392.099-.778c.21-1.682.325-4.159-1.065-6.227a6.427 6.427 0 0 0-1.388-1.48c-.69-.54-1.51-.977-2.503-1.34-.701-.256-1.495-.479-2.503-.698-.525-.115-1.044-.216-1.638-.332-.924-.18-1.874-.367-2.705-.603-.901-.258-1.531-.536-1.945-.862a3.81 3.81 0 0 1-.67-.707l-.16-.207-.924.002c-.966-.002-2.1.142-3.207.282-.191.025-.382.047-.572.071l-.97.118.35.668c.942 1.789 1.856 2.976 2.969 3.843.726.57 1.588 1.034 2.63 1.415 1.02.373 2.085.618 2.896.787.444.095.89.182 1.334.269 1.017.198 2.073.403 2.944.674.138.042.275.089.405.138"/><path fill="#FECC00" d="M162.313 12.54c-2.59.026-5.158 1.218-7.099 2.879-1.97 1.663-3.433 3.727-4.602 5.862a31.165 31.165 0 0 0-1.518 3.302l-.005.013c-1.382-.822-2.85-1.54-4.431-2.061-2.767-.924-5.916-1.2-8.828-.447-2.919.732-5.439 2.386-7.328 4.405-1.869 2.045-3.315 4.377-4.085 6.922 1.75-1.965 3.638-3.693 5.71-4.988 2.053-1.303 4.252-2.157 6.438-2.35 2.185-.21 4.341.21 6.417 1.065 2.075.855 4.065 2.114 5.948 3.586l4.118-1.487c.203-.875.523-1.943.86-2.895.325-.985.708-1.945 1.12-2.881.822-1.874 1.82-3.635 3.049-5.128 1.233-1.486 2.733-2.662 4.61-3.268 1.878-.66 4.091-.567 6.37-.216-1.822-1.405-4.16-2.34-6.744-2.312"/><path fill="#E84E1B" d="M176.674 55.679c1.009-.011 1.679.119 2.048.409.218.17.418.453.592.84l.084.186.863.244c.8.227 1.698.399 2.65.586.449.087.867.17 1.282.257l.636.134-.121-.641c-.321-1.651-.967-4.021-2.908-5.54a6.358 6.358 0 0 0-1.751-.963c-1.744-.64-3.687-.555-5.354-.39-.563.056-1.14.124-1.646.188-.937.117-1.906.234-2.78.266-.941.033-1.643-.04-2.15-.224a3.934 3.934 0 0 1-.872-.474l-.178-.125-.843.273c-.916.3-1.951.786-2.951 1.259-.226.105-.452.212-.682.315l-.614.284.453.44c1.439 1.404 2.665 2.242 3.975 2.72 1.886.689 3.952.592 5.9.382.45-.048.9-.104 1.348-.156 1.035-.128 2.099-.26 3.019-.27m-51.1 12.224l.075.612.096.81.559-.295c1.778-.936 2.956-1.842 3.813-2.94 1.239-1.583 1.785-3.576 2.187-5.495.093-.439.18-.879.268-1.333.197-1.02.405-2.072.677-2.952.217-.688.448-1.185.704-1.515.107-.132.207-.23.317-.307.233-.153.562-.257.986-.3l.198-.023.502-.746c.458-.689.906-1.489 1.374-2.34.22-.4.43-.77.643-1.138l.323-.565-.65-.083c-1.668-.207-4.118-.326-6.165 1.054a6.335 6.335 0 0 0-1.46 1.37c-1.144 1.458-1.665 3.332-2.022 4.971-.117.53-.223 1.07-.33 1.62-.18.928-.367 1.888-.607 2.725-.258.908-.544 1.552-.876 1.977a3.793 3.793 0 0 1-.723.685l-.172.13v.886c.002.962.142 2.095.283 3.192m-8.811 11.977c.399.855.809 1.738 1.104 2.553.326.885.476 1.576.456 2.115-.01.282-.071.61-.186.978l-.057.208.52.714c.566.783 1.348 1.616 2.103 2.419.137.143.268.287.404.432l.57.614.276-.565c.893-1.801 1.31-3.226 1.36-4.621.075-2.006-.658-3.94-1.458-5.73-.18-.4-.366-.797-.552-1.193l-.02-.041c-.437-.943-.89-1.916-1.186-2.788-.23-.685-.335-1.224-.32-1.64.007-.165.03-.31.076-.434.098-.26.306-.538.62-.82l.15-.137-.036-.898c-.033-.826-.144-1.738-.261-2.702a75.271 75.271 0 0 1-.152-1.297l-.068-.65-.573.316c-1.472.814-3.523 2.16-4.37 4.478a6.342 6.342 0 0 0-.378 1.963c-.066 1.857.615 3.677 1.287 5.214.215.49.438.97.69 1.512m12.879 28.916l.846.167-.106-.62c-.34-1.983-.84-3.381-1.618-4.54-1.12-1.662-2.851-2.8-4.548-3.776-.373-.212-.748-.421-1.122-.63l-.064-.035c-.908-.503-1.85-1.024-2.6-1.557-.588-.417-.987-.788-1.224-1.137a1.42 1.42 0 0 1-.188-.397c-.078-.267-.073-.612.015-1.025l.043-.2-.56-.706c-.51-.65-1.136-1.32-1.798-2.032-.312-.336-.6-.647-.883-.961l-.438-.484-.278.59c-.714 1.524-1.581 3.822-.904 6.19.179.632.465 1.242.848 1.813 1.037 1.54 2.657 2.61 4.104 3.46.485.286.993.566 1.442.815.824.458 1.679.933 2.4 1.419.784.524 1.313.998 1.612 1.443.159.234.302.538.427.9l.073.203.842.275c.922.298 2.043.51 3.124.718.185.035.37.07.555.107m19.17 10.4l-.45-.44c-1.438-1.402-2.663-2.24-3.976-2.72-1.884-.688-3.95-.59-5.9-.382-.446.05-.893.103-1.348.158-1.033.127-2.101.257-3.02.27-1.01.01-1.68-.123-2.045-.409-.22-.173-.42-.456-.591-.84l-.082-.187-.865-.244c-.803-.227-1.702-.404-2.654-.587a84.385 84.385 0 0 1-1.276-.256l-.64-.134.123.64c.317 1.652.966 4.023 2.906 5.541a6.472 6.472 0 0 0 1.754.965h.003c1.74.636 3.683.553 5.35.388.572-.057 1.167-.13 1.645-.188.937-.114 1.907-.235 2.778-.266.94-.034 1.645.038 2.15.223.266.097.56.257.875.476l.175.122.844-.274c.918-.298 1.952-.784 2.952-1.254.183-.087.367-.172.55-.258l.743-.344zm15.403-2.447c-1.93.55-3.542 1.844-4.997 3.16-.336.304-.668.61-.998.92-.761.71-1.548 1.443-2.284 1.99-.581.432-1.06.699-1.463.81-.16.049-.303.068-.434.063-.28-.01-.607-.122-.974-.333l-.176-.1-.843.31c-.778.287-1.608.674-2.488 1.083-.415.194-.8.373-1.185.546l-.598.266.477.447c1.27 1.19 2.41 1.944 3.586 2.372a6.624 6.624 0 0 0 2.022.402 6.479 6.479 0 0 0 1.986-.25c1.784-.511 3.306-1.718 4.56-2.833.429-.383.867-.791 1.224-1.124.689-.642 1.4-1.308 2.086-1.842.742-.584 1.353-.938 1.873-1.086.269-.075.6-.121.986-.128l.216-.005.52-.716c.568-.783 1.117-1.783 1.649-2.75.087-.161.18-.321.267-.482l.428-.766-.627-.093c-1.986-.288-3.472-.246-4.813.139m20.941-13.407l-.108-.905-.557.29c-1.778.938-2.956 1.844-3.818 2.944-1.237 1.58-1.78 3.575-2.183 5.494-.095.443-.182.887-.27 1.33-.196 1.02-.399 2.076-.674 2.955-.219.69-.448 1.186-.707 1.515a1.39 1.39 0 0 1-.316.306c-.229.155-.56.257-.983.302l-.2.023-.499.745c-.464.692-.908 1.493-1.377 2.34-.224.399-.428.77-.64 1.139l-.325.566.646.079c1.67.208 4.125.325 6.168-1.052a6.4 6.4 0 0 0 1.46-1.368c1.144-1.462 1.666-3.335 2.024-4.974.122-.561.235-1.148.331-1.628.178-.925.364-1.883.606-2.717.255-.906.54-1.553.873-1.977a3.84 3.84 0 0 1 .725-.683l.17-.133v-.884c-.002-.968-.146-2.101-.284-3.194-.02-.17-.04-.34-.062-.513m8.877-11.458c-.398-.856-.81-1.742-1.108-2.56-.326-.881-.473-1.575-.455-2.112.012-.285.073-.605.183-.978l.064-.208-.522-.716c-.568-.78-1.348-1.613-2.106-2.417-.115-.124-.233-.251-.35-.38l-.623-.666-.279.564c-.887 1.803-1.306 3.227-1.358 4.62-.072 2.009.661 3.94 1.462 5.73.178.4.361.798.548 1.196l.02.04c.437.939.892 1.91 1.186 2.788.231.686.337 1.22.322 1.64a1.481 1.481 0 0 1-.078.434c-.095.26-.302.537-.616.822l-.15.134.034.899c.034.833.144 1.74.26 2.7.057.457.107.876.154 1.298l.068.648.573-.313c1.47-.814 3.524-2.161 4.372-4.476a6.5 6.5 0 0 0 .374-1.968c.067-1.856-.613-3.673-1.286-5.211a56.589 56.589 0 0 0-.689-1.508m-6.267-19.487c.906.502 1.844 1.021 2.599 1.56.587.416.989.79 1.222 1.135.092.14.158.268.193.396.077.267.07.614-.014 1.026l-.044.198.556.707c.512.651 1.138 1.323 1.8 2.033.309.335.6.646.886.961l.438.484.275-.592c.712-1.523 1.585-3.82.902-6.19a6.23 6.23 0 0 0-.85-1.81c-1.036-1.54-2.654-2.615-4.101-3.463-.47-.276-.95-.542-1.44-.814-.826-.459-1.68-.933-2.405-1.419-.781-.523-1.308-.997-1.61-1.444a3.89 3.89 0 0 1-.426-.9l-.072-.203-.843-.27c-.918-.299-2.041-.514-3.124-.723-.172-.03-.345-.065-.521-.099l-.881-.174.106.62c.34 1.983.84 3.38 1.618 4.538 1.123 1.666 2.852 2.8 4.549 3.777.384.218.767.432 1.146.644l.04.022zm-55.578-57.21c1.025-.867 2.098-1.464 3.157-1.72 1.054-.27 2.111-.253 3.228-.05 1.115.215 2.28.603 3.45 1.13l3.632-2.444c-.009-.416.01-1.048.057-1.575.023-.555.088-1.104.158-1.64.134-1.079.361-2.104.688-3.028.338-.92.783-1.72 1.56-2.399.772-.698 1.93-1.159 3.283-1.51a5.81 5.81 0 0 0-4.263-.85c-1.607.29-3.085 1.365-4.066 2.626-1.004 1.268-1.608 2.7-2.016 4.116-.089.311-.159.622-.224.935a12.879 12.879 0 0 0-1.757-.236c-1.805-.104-3.785.26-5.414 1.234-1.639.96-2.825 2.411-3.52 3.927-.688 1.528-1.01 3.138-.86 4.716.918-1.266 1.875-2.366 2.907-3.232m20.875 22.728c1.111.337 2.004.846 2.587 1.473.594.618.965 1.349 1.262 2.245.285.893.476 1.927.573 3.027l4.236 1.734c.317-.26.815-.63 1.25-.914.44-.318.901-.6 1.357-.872.909-.55 1.828-.99 2.713-1.282.889-.277 1.727-.396 2.692-.151.484.122.98.36 1.495.675.506.323 1.004.735 1.529 1.184-.01-1.363-.469-2.81-1.6-3.982-1.129-1.184-2.913-1.78-4.517-1.792-1.624-.036-3.115.373-4.466.918-.157.064-.306.14-.46.212-.097-.24-.19-.478-.308-.714-.724-1.465-1.948-2.901-3.536-3.685-1.583-.8-3.305-.907-4.764-.605-1.466.317-2.78.947-3.816 1.908 1.39.094 2.66.274 3.774.62m20.383-14.25c.444.79.604 1.527.612 2.372.004.84-.16 1.8-.456 2.804l3.037 3.248c.292-.061.851-.144 1.291-.17.464-.057.93-.07 1.388-.076.916-.017 1.78.067 2.597.26a5.749 5.749 0 0 1 2.352 1.154c.774.612 1.461 1.515 2.166 2.585a6.212 6.212 0 0 0 .013-3.922c-.432-1.353-1.429-2.617-2.67-3.456-1.24-.86-2.657-1.311-4.029-1.53-.233-.036-.466-.052-.698-.073a9.18 9.18 0 0 0-.123-1.386c-.263-1.705-1.179-3.43-2.475-4.534-1.29-1.117-2.788-1.687-4.22-1.91-1.442-.203-2.866-.134-4.198.313 1.221.662 2.322 1.314 3.27 2.04.943.716 1.703 1.499 2.143 2.282"/></g></svg>