<?xml version="1.0" encoding="utf-8"?>
<!-- Generator: Adobe Illustrator 17.1.0, SVG Export Plug-In . SVG Version: 6.00 Build 0)  -->
<!DOCTYPE svg PUBLIC "-//W3C//DTD SVG 1.1//EN" "http://www.w3.org/Graphics/SVG/1.1/DTD/svg11.dtd">
<svg version="1.1" id="Layer_1" xmlns="http://www.w3.org/2000/svg" xmlns:xlink="http://www.w3.org/1999/xlink" x="0px" y="0px"
	 viewBox="0 0 72 72" enable-background="new 0 0 72 72" xml:space="preserve">
<g>
	<circle fill="#6D6E71" cx="36" cy="36" r="36"/>
	<g>
		<path fill="#FFFFFF" d="M59.202,17.833c-1.582-3.06-5.345-4.258-8.405-2.676c-2.526,1.306-3.781,4.098-3.253,6.754L26.328,32.88
			c-1.471-1.796-3.705-2.942-6.208-2.942c-4.429,0-8.02,3.591-8.02,8.02s3.591,8.02,8.02,8.02c2.289,0,4.352-0.96,5.813-2.498
			l18.04,7.541c-0.282,2.524,1.108,5.035,3.571,6.065c2.99,1.25,6.43-0.162,7.68-3.152c1.25-2.992-0.16-6.431-3.152-7.682
			c-2.409-1.006-5.106-0.286-6.719,1.593l-17.619-7.363c0.262-0.795,0.407-1.642,0.407-2.524c0-0.687-0.086-1.353-0.25-1.989
			l21.242-10.983c1.862,1.966,4.866,2.557,7.393,1.252C59.585,24.656,60.783,20.893,59.202,17.833z"/>
	</g>
</g>
</svg>
