<?xml version="1.0" encoding="utf-8"?>
<!-- Generator: Adobe Illustrator 16.0.0, SVG Export Plug-In . SVG Version: 6.00 Build 0)  -->
<!DOCTYPE svg PUBLIC "-//W3C//DTD SVG 1.1//EN" "http://www.w3.org/Graphics/SVG/1.1/DTD/svg11.dtd">
<svg version="1.1" id="Layer_1" xmlns="http://www.w3.org/2000/svg" xmlns:xlink="http://www.w3.org/1999/xlink" x="0px" y="0px"
	 width="841.889px" height="595.281px" viewBox="0 0 841.889 595.281" enable-background="new 0 0 841.889 595.281"
	 xml:space="preserve">
<g>
	<g>
		<path d="M420.945,0.75c163.61,0,296.25,132.64,296.25,296.25s-132.64,296.25-296.25,296.25S124.695,460.61,124.695,297
			S257.334,0.75,420.945,0.75z"/>
	</g>
	<g>
		<path fill="#F7941E" d="M511.375,401.76H319.992c-4.881,0-8.829-3.973-8.829-8.841V201.51c0-4.879,3.948-8.853,8.829-8.853h95.704
			c4.867,0,8.829,3.973,8.829,8.853c0,4.868-3.962,8.829-8.829,8.829h-86.875v173.727h173.75V297.19
			c0-4.867,3.937-8.815,8.828-8.815s8.829,3.949,8.829,8.815v95.705C520.216,397.787,516.29,401.76,511.375,401.76z"/>
	</g>
	<g>
		<path fill="#F7941E" d="M555.684,185.142l-27.511-27.51c-3.461-3.46-9.044-3.46-12.479,0l-24.909,24.911l-96.157,96.18
			c-0.812,0.789-1.456,1.742-1.91,2.769L372.15,329.58c-1.431,3.305-0.679,7.185,1.839,9.713c1.729,1.705,3.958,2.589,6.262,2.589
			c1.182,0,2.351-0.239,3.508-0.705l48.091-20.603c1.025-0.406,1.956-1.086,2.781-1.837l96.167-96.206l24.887-24.886
			C559.144,194.173,559.144,188.578,555.684,185.142z M397.061,316.279l8.04-18.755l10.689,10.69L397.061,316.279z M426.29,302.082
			l-15.033-15.032l86.625-86.613l15.021,15.009L426.29,302.082z M521.24,207.094l-15.019-15.008l15.7-15.7l15.02,14.984
			L521.24,207.094z"/>
	</g>
</g>
</svg>
