<?xml version="1.0" encoding="utf-8"?>
<!-- Generator: Adobe Illustrator 17.1.0, SVG Export Plug-In . SVG Version: 6.00 Build 0)  -->
<!DOCTYPE svg PUBLIC "-//W3C//DTD SVG 1.1//EN" "http://www.w3.org/Graphics/SVG/1.1/DTD/svg11.dtd">
<svg version="1.1" id="Layer_1" xmlns="http://www.w3.org/2000/svg" xmlns:xlink="http://www.w3.org/1999/xlink" x="0px" y="0px"
	 viewBox="0 0 72 72" enable-background="new 0 0 72 72" xml:space="preserve">
<g>
	<circle cx="36" cy="36" r="36"/>
	<g>
		<path fill="#F7941E" d="M56.75,51.29V16.342c0,0,0,0-2.184,0c-8.92,0-13.562,1.45-17.474,4.368v34.948
			c3.912-2.918,8.554-4.368,17.474-4.368C56.75,51.29,56.75,51.29,56.75,51.29z"/>
		<path fill="#F7941E" d="M15.25,16.342V51.29c0,0,0,0,2.184,0c8.92,0,13.562,1.45,17.474,4.368V20.71
			c-3.912-2.918-8.554-4.368-17.474-4.368C15.25,16.342,15.25,16.342,15.25,16.342z"/>
	</g>
</g>
</svg>
