<?xml version="1.0" encoding="utf-8"?>
<!-- Generator: Adobe Illustrator 18.1.1, SVG Export Plug-In . SVG Version: 6.00 Build 0)  -->
<svg version="1.1" id="Layer_1" xmlns="http://www.w3.org/2000/svg" xmlns:xlink="http://www.w3.org/1999/xlink" x="0px" y="0px"
	 viewBox="0 0 401.8 578.2" enable-background="new 0 0 401.8 578.2" xml:space="preserve">
<circle cx="200.9" cy="289.1" r="200.9"/>
<g>
	<path fill="#BCBEC0" d="M208,169.6V191h-21.5v99.6h-4.4l-18.6-19.8V240c-5.2,1.6-11.8,2.4-19.9,2.4c0.2,1.7,0.3,3.3,0.3,4.8
		c0,8.4-2.5,15-7.4,19.9s-11,7.4-18.4,7.4c-10.3-0.1-19.2-4.8-26.8-14.1c-7.6-9.3-12.1-21.9-13.6-37.8h8.7c1.6,9.1,4.9,16.4,10,22
		c5.1,5.6,10.8,8.4,17.1,8.4c4.3,0,7.9-1.3,10.9-3.8s4.6-5.4,4.6-8.6c0-4.9-1.9-8.9-5.7-12c-3.8-3.1-8.6-4.6-14.4-4.5
		c-1.7,0-3.3,0.1-5,0.4l-14.4-16.7c10.8-0.8,19.3-2.7,25.6-5.9c6.3-3.2,9.4-6.9,9.4-11c0-2.4-1.1-4.5-3.2-6.3
		c-2.2-1.8-5-2.7-8.7-2.7c-6.6,0-15,2.5-25.1,7.4l-10.9-17.1c5.1-1.8,12.7-2.8,22.8-2.8c11.9,0,21.1,2.4,27.8,7.1
		c6.7,4.8,10,11.1,10,19.1c0,10-5.4,17.2-16.2,21.7c11.3,5,19.4,7.5,24.2,7.5c5.7,0,10.2-1.4,13.4-4.3c3.2-2.9,4.8-6.8,4.8-11.6V191
		h-9.1L140,169.6H208L208,169.6z"/>
</g>
<g>
	<path fill="#F7941E" d="M221.3,389.7l-11.2,40.5h-37l48.3-157.9h46.9l49,157.9h-38.4l-12.2-40.5H221.3z M261.4,362.9l-9.8-33.5
		c-2.8-9.4-5.6-21.1-8-30.5h-0.5c-2.3,9.4-4.7,21.3-7.3,30.5l-9.4,33.5H261.4z"/>
</g>
</svg>
