<?xml version="1.0" encoding="utf-8"?>
<!-- Generator: Adobe Illustrator 17.1.0, SVG Export Plug-In . SVG Version: 6.00 Build 0)  -->
<!DOCTYPE svg PUBLIC "-//W3C//DTD SVG 1.1//EN" "http://www.w3.org/Graphics/SVG/1.1/DTD/svg11.dtd">
<svg version="1.1" id="Layer_1" xmlns="http://www.w3.org/2000/svg" xmlns:xlink="http://www.w3.org/1999/xlink" x="0px" y="0px"
	 viewBox="0 0 72 72" enable-background="new 0 0 72 72" xml:space="preserve">
<circle fill="#6D6E71" cx="36" cy="36" r="36"/>
<g>
	<path fill="#BCBEC0" d="M37.274,14.587v3.836h-3.853v17.85h-0.784l-3.342-3.555v-5.515c-0.932,0.284-2.12,0.426-3.563,0.426
		c0.034,0.296,0.051,0.585,0.051,0.869c0,1.5-0.44,2.691-1.321,3.572c-0.881,0.881-1.98,1.321-3.299,1.321
		c-1.841-0.011-3.441-0.852-4.799-2.523c-1.358-1.671-2.168-3.927-2.429-6.768h1.568c0.284,1.625,0.881,2.941,1.79,3.947
		s1.932,1.509,3.069,1.509c0.762,0,1.415-0.227,1.961-0.679c0.546-0.455,0.818-0.969,0.818-1.546c0-0.872-0.341-1.588-1.023-2.142
		c-0.682-0.554-1.54-0.827-2.574-0.815c-0.296,0-0.597,0.023-0.904,0.068l-2.574-2.984c1.932-0.136,3.464-0.489,4.595-1.057
		c1.131-0.568,1.691-1.228,1.679-1.978c0-0.432-0.193-0.807-0.58-1.125c-0.386-0.318-0.904-0.477-1.551-0.477
		c-1.182,0-2.682,0.443-4.501,1.33l-1.961-3.069c0.909-0.33,2.273-0.494,4.092-0.494c2.125,0,3.785,0.426,4.978,1.279
		c1.193,0.852,1.79,1.995,1.79,3.427c0,1.784-0.966,3.08-2.898,3.887c2.034,0.898,3.478,1.347,4.33,1.347
		c1.023,0,1.821-0.259,2.395-0.773c0.574-0.517,0.861-1.21,0.861-2.083v-3.248h-1.637l-2.557-3.836H37.274z"/>
</g>
<g>
	<path fill="#FFFFFF" d="M39.665,54.024l-2.016,7.266h-6.633l8.649-28.304h8.399l8.775,28.304h-6.886l-2.183-7.266H39.665z
		 M46.847,49.237l-1.764-6.004c-0.504-1.679-1.007-3.778-1.428-5.46h-0.084c-0.421,1.682-0.839,3.823-1.303,5.46l-1.679,6.004
		H46.847z"/>
</g>
</svg>
