<?xml version="1.0" encoding="utf-8"?>
<!-- Generator: Adobe Illustrator 17.1.0, SVG Export Plug-In . SVG Version: 6.00 Build 0)  -->
<!DOCTYPE svg PUBLIC "-//W3C//DTD SVG 1.1//EN" "http://www.w3.org/Graphics/SVG/1.1/DTD/svg11.dtd">
<svg version="1.1" id="Layer_1" xmlns="http://www.w3.org/2000/svg" xmlns:xlink="http://www.w3.org/1999/xlink" x="0px" y="0px"
	 viewBox="0 0 144 72" enable-background="new 0 0 144 72" xml:space="preserve">
<g>
	<polygon fill="#F15A29" points="124.942,45.453 4.681,53.096 3.449,34.702 117.448,27.681 	"/>
	<g>
		<g>
			<g>
				<g>
					<path fill="#FECE63" d="M9.585,42.674c0.072,0.014,0.13,0.034,0.175,0.063c0.045,0.028,0.08,0.073,0.106,0.134
						c0.026,0.061,0.045,0.139,0.059,0.237c0.013,0.097,0.024,0.221,0.033,0.371c0.01,0.168,0.015,0.303,0.013,0.406
						c-0.001,0.102-0.011,0.184-0.03,0.244c-0.019,0.06-0.048,0.105-0.09,0.134c-0.041,0.029-0.097,0.053-0.167,0.072L6.11,45.469
						l0.001,0.009l3.683,0.649c0.069,0.011,0.125,0.028,0.17,0.052c0.045,0.024,0.08,0.064,0.107,0.12
						c0.027,0.056,0.047,0.133,0.061,0.232c0.013,0.099,0.025,0.229,0.035,0.391c0.01,0.171,0.015,0.308,0.014,0.41
						c-0.001,0.102-0.011,0.184-0.03,0.244c-0.019,0.06-0.048,0.105-0.09,0.134c-0.041,0.029-0.097,0.055-0.166,0.077L4.972,49.39
						c-0.104,0.033-0.187,0.053-0.248,0.059c-0.06,0.007-0.108-0.007-0.143-0.042c-0.035-0.035-0.058-0.094-0.071-0.178
						c-0.013-0.083-0.023-0.201-0.032-0.351c-0.008-0.139-0.013-0.249-0.013-0.33c0-0.081,0.006-0.143,0.02-0.186
						C4.5,48.32,4.522,48.29,4.552,48.274c0.03-0.017,0.073-0.031,0.129-0.043l4.327-1.269l0-0.004l-4.42-0.783
						c-0.057-0.008-0.104-0.021-0.14-0.038c-0.037-0.017-0.066-0.048-0.088-0.092c-0.022-0.045-0.039-0.107-0.051-0.186
						c-0.012-0.079-0.022-0.185-0.03-0.318C4.27,45.398,4.266,45.285,4.267,45.2c0.001-0.085,0.01-0.15,0.026-0.197
						c0.017-0.047,0.042-0.082,0.076-0.104c0.034-0.023,0.08-0.042,0.139-0.057L8.8,43.499L8.799,43.49l-4.435-0.742
						c-0.048-0.006-0.089-0.015-0.124-0.028s-0.063-0.039-0.085-0.079c-0.022-0.04-0.038-0.098-0.05-0.175
						c-0.012-0.076-0.022-0.184-0.031-0.323c-0.008-0.13-0.01-0.231-0.007-0.304c0.003-0.073,0.02-0.126,0.05-0.161
						c0.03-0.034,0.078-0.051,0.141-0.051c0.064,0.001,0.151,0.011,0.262,0.031L9.585,42.674z"/>
					<path fill="#FECE63" d="M9.09,37.1c0.086-0.005,0.157-0.006,0.215-0.002c0.058,0.004,0.105,0.012,0.142,0.025
						c0.036,0.013,0.063,0.029,0.081,0.051s0.027,0.045,0.029,0.072l0.173,2.878c0.006,0.097-0.018,0.181-0.072,0.251
						c-0.053,0.07-0.145,0.109-0.275,0.117l-4.995,0.301c-0.13,0.008-0.225-0.02-0.287-0.083C4.04,40.645,4.006,40.565,4,40.468
						l-0.172-2.861c-0.002-0.027,0.004-0.05,0.018-0.072c0.014-0.021,0.038-0.041,0.074-0.058c0.036-0.017,0.082-0.031,0.14-0.042
						c0.057-0.011,0.13-0.019,0.218-0.024c0.083-0.005,0.153-0.005,0.211-0.001c0.058,0.004,0.105,0.012,0.141,0.025
						c0.036,0.013,0.063,0.029,0.081,0.048c0.017,0.02,0.027,0.043,0.029,0.069l0.123,2.046l1.399-0.084l-0.104-1.731
						c-0.002-0.027,0.005-0.051,0.02-0.074c0.015-0.023,0.039-0.043,0.072-0.06c0.033-0.017,0.078-0.031,0.135-0.042
						c0.057-0.011,0.127-0.019,0.21-0.024c0.086-0.005,0.157-0.006,0.213-0.002c0.057,0.004,0.102,0.012,0.137,0.025
						c0.035,0.013,0.06,0.03,0.076,0.051c0.016,0.021,0.025,0.045,0.027,0.072l0.104,1.731l1.616-0.097L8.644,37.3
						c-0.002-0.027,0.005-0.052,0.02-0.075s0.04-0.043,0.074-0.06c0.034-0.017,0.08-0.031,0.137-0.041
						C8.933,37.113,9.004,37.105,9.09,37.1z"/>
				</g>
			</g>
			<g>
				<path fill="#FECE63" d="M20.781,48.327c0.004,0.068-0.005,0.127-0.027,0.175c-0.021,0.049-0.079,0.092-0.17,0.128
					c-0.092,0.037-0.228,0.067-0.408,0.091c-0.18,0.023-0.426,0.044-0.737,0.062c-0.262,0.016-0.471,0.022-0.628,0.02
					c-0.156-0.004-0.28-0.02-0.373-0.048c-0.093-0.029-0.159-0.068-0.199-0.12c-0.041-0.05-0.076-0.112-0.105-0.187l-1.247-2.637
					c-0.15-0.297-0.294-0.561-0.434-0.789c-0.139-0.23-0.289-0.419-0.451-0.569c-0.163-0.15-0.346-0.26-0.55-0.328
					c-0.204-0.069-0.438-0.095-0.699-0.079l-0.767,0.046l0.277,4.609c0.004,0.062-0.014,0.119-0.051,0.172s-0.103,0.097-0.193,0.134
					c-0.092,0.037-0.215,0.07-0.37,0.098c-0.155,0.028-0.354,0.049-0.597,0.063c-0.236,0.015-0.436,0.018-0.596,0.009
					c-0.159-0.01-0.287-0.027-0.383-0.053s-0.163-0.062-0.204-0.11c-0.04-0.048-0.062-0.102-0.066-0.164l-0.661-10.987
					c-0.017-0.274,0.042-0.478,0.175-0.606c0.133-0.13,0.302-0.202,0.509-0.214l3.132-0.189c0.318-0.019,0.58-0.027,0.786-0.028
					c0.206,0,0.395,0.005,0.564,0.013c0.49,0.04,0.936,0.132,1.335,0.276c0.399,0.146,0.743,0.346,1.031,0.6
					c0.287,0.256,0.514,0.564,0.68,0.926c0.165,0.363,0.263,0.784,0.291,1.265c0.024,0.404-0.004,0.776-0.087,1.116
					s-0.216,0.647-0.399,0.92c-0.185,0.275-0.417,0.518-0.698,0.729s-0.605,0.386-0.972,0.526c0.186,0.077,0.361,0.174,0.528,0.287
					c0.167,0.115,0.325,0.258,0.477,0.428c0.15,0.169,0.296,0.364,0.434,0.583c0.139,0.221,0.275,0.471,0.411,0.75l1.163,2.324
					c0.107,0.23,0.18,0.399,0.218,0.507C20.757,48.179,20.777,48.264,20.781,48.327z M17.117,40.308
					c-0.024-0.399-0.135-0.73-0.332-0.994s-0.505-0.438-0.924-0.526c-0.126-0.023-0.27-0.041-0.43-0.05
					c-0.16-0.008-0.381-0.004-0.661,0.013l-1.104,0.066l0.207,3.432l1.254-0.075c0.349-0.021,0.651-0.082,0.908-0.183
					c0.257-0.099,0.467-0.229,0.633-0.394c0.165-0.164,0.285-0.354,0.359-0.57C17.104,40.808,17.133,40.57,17.117,40.308z"/>
				<path fill="#FECE63" d="M29.719,47.141c0.011,0.182,0.013,0.333,0.004,0.455c-0.008,0.122-0.025,0.222-0.053,0.298
					c-0.026,0.077-0.062,0.135-0.106,0.172c-0.045,0.037-0.095,0.058-0.151,0.061l-6.077,0.366c-0.207,0.013-0.383-0.038-0.53-0.151
					c-0.148-0.113-0.23-0.307-0.247-0.581l-0.635-10.548c-0.017-0.274,0.042-0.477,0.175-0.606s0.302-0.201,0.509-0.214l6.04-0.364
					c0.056-0.003,0.106,0.01,0.152,0.038c0.045,0.029,0.086,0.081,0.122,0.157c0.035,0.075,0.065,0.174,0.088,0.295
					s0.04,0.275,0.052,0.462c0.01,0.175,0.011,0.323,0.003,0.444c-0.009,0.123-0.026,0.223-0.053,0.3
					c-0.026,0.076-0.061,0.134-0.102,0.171c-0.042,0.036-0.091,0.056-0.147,0.059l-4.319,0.261l0.178,2.956l3.656-0.221
					c0.057-0.003,0.108,0.011,0.157,0.042c0.049,0.032,0.091,0.083,0.126,0.152c0.036,0.069,0.065,0.164,0.088,0.285
					c0.022,0.12,0.039,0.269,0.05,0.442c0.011,0.182,0.013,0.331,0.004,0.45c-0.008,0.119-0.025,0.217-0.053,0.29
					c-0.027,0.074-0.062,0.128-0.107,0.162s-0.096,0.052-0.151,0.055l-3.656,0.221l0.205,3.413l4.357-0.263
					c0.057-0.003,0.108,0.012,0.157,0.043s0.092,0.083,0.127,0.156c0.036,0.073,0.065,0.169,0.088,0.29
					C29.692,46.809,29.708,46.961,29.719,47.141z"/>
				<path fill="#FECE63" d="M39.925,45.654c0.01,0.156,0.013,0.289,0.01,0.398c-0.003,0.11-0.011,0.203-0.025,0.283
					c-0.014,0.079-0.035,0.146-0.062,0.205c-0.028,0.058-0.073,0.125-0.138,0.201s-0.191,0.176-0.381,0.299
					c-0.189,0.124-0.424,0.247-0.701,0.366c-0.277,0.121-0.596,0.226-0.957,0.315c-0.36,0.091-0.753,0.148-1.177,0.174
					c-0.829,0.05-1.585-0.032-2.267-0.247c-0.683-0.216-1.272-0.563-1.771-1.043c-0.498-0.48-0.895-1.093-1.189-1.838
					c-0.295-0.746-0.473-1.623-0.534-2.633c-0.062-1.029,0.021-1.951,0.246-2.765c0.227-0.814,0.569-1.509,1.03-2.08
					c0.459-0.573,1.025-1.02,1.697-1.342c0.672-0.321,1.422-0.508,2.252-0.558c0.336-0.021,0.662-0.012,0.978,0.025
					c0.314,0.038,0.607,0.094,0.878,0.169c0.27,0.073,0.515,0.163,0.734,0.27c0.219,0.105,0.373,0.197,0.462,0.277
					c0.089,0.079,0.151,0.146,0.186,0.199c0.034,0.055,0.064,0.125,0.088,0.211c0.023,0.087,0.044,0.188,0.061,0.306
					c0.017,0.118,0.03,0.265,0.041,0.44c0.011,0.186,0.014,0.345,0.01,0.478c-0.005,0.13-0.021,0.238-0.047,0.321
					s-0.061,0.145-0.101,0.185c-0.042,0.04-0.091,0.062-0.146,0.065c-0.094,0.006-0.216-0.042-0.365-0.143
					c-0.15-0.101-0.343-0.212-0.578-0.331c-0.236-0.121-0.515-0.226-0.836-0.316c-0.321-0.09-0.7-0.121-1.137-0.095
					c-0.479,0.028-0.903,0.151-1.268,0.371c-0.365,0.219-0.67,0.519-0.913,0.898c-0.243,0.382-0.417,0.835-0.523,1.361
					c-0.105,0.524-0.14,1.111-0.101,1.76c0.043,0.71,0.153,1.322,0.331,1.834s0.413,0.929,0.704,1.248
					c0.292,0.319,0.634,0.552,1.027,0.693c0.394,0.143,0.83,0.198,1.311,0.17c0.436-0.026,0.811-0.1,1.121-0.223
					c0.312-0.121,0.578-0.252,0.798-0.391s0.401-0.262,0.541-0.369c0.141-0.109,0.251-0.166,0.332-0.171
					c0.062-0.004,0.113,0.006,0.151,0.028c0.039,0.022,0.074,0.07,0.104,0.145c0.029,0.072,0.055,0.176,0.074,0.309
					C39.895,45.252,39.911,45.429,39.925,45.654z"/>
				<path fill="#FECE63" d="M52.174,40.544c0.061,1.003-0.01,1.909-0.212,2.715c-0.202,0.808-0.532,1.501-0.991,2.083
					c-0.459,0.581-1.044,1.038-1.752,1.372c-0.71,0.333-1.541,0.529-2.494,0.587c-0.941,0.057-1.77-0.019-2.486-0.222
					c-0.716-0.204-1.323-0.544-1.82-1.021c-0.499-0.478-0.888-1.099-1.169-1.863c-0.28-0.766-0.453-1.681-0.517-2.747
					c-0.06-0.979,0.013-1.867,0.214-2.664c0.203-0.797,0.534-1.485,0.993-2.064c0.459-0.577,1.043-1.035,1.752-1.371
					c0.709-0.337,1.543-0.534,2.503-0.592c0.917-0.056,1.732,0.017,2.448,0.219c0.717,0.2,1.324,0.54,1.826,1.017
					c0.501,0.477,0.895,1.093,1.181,1.847C51.936,38.594,52.11,39.496,52.174,40.544z M49.601,40.83
					c-0.038-0.636-0.123-1.211-0.253-1.726c-0.132-0.515-0.329-0.95-0.591-1.306c-0.263-0.358-0.6-0.625-1.011-0.804
					s-0.916-0.249-1.514-0.213c-0.605,0.036-1.104,0.179-1.495,0.432c-0.392,0.252-0.7,0.575-0.927,0.971
					c-0.226,0.396-0.376,0.851-0.448,1.364c-0.072,0.515-0.091,1.056-0.057,1.623c0.039,0.661,0.125,1.252,0.257,1.772
					c0.131,0.521,0.327,0.96,0.586,1.32c0.26,0.359,0.595,0.625,1.006,0.799c0.41,0.171,0.918,0.239,1.523,0.203
					c0.604-0.036,1.103-0.179,1.494-0.427c0.392-0.25,0.7-0.575,0.926-0.977c0.227-0.401,0.376-0.862,0.448-1.383
					C49.617,41.96,49.636,41.41,49.601,40.83z"/>
				<path fill="#FECE63" d="M68.694,45.423c0.004,0.062-0.01,0.119-0.041,0.171c-0.031,0.053-0.092,0.097-0.18,0.134
					c-0.089,0.036-0.207,0.069-0.355,0.097c-0.149,0.027-0.338,0.048-0.568,0.062c-0.225,0.014-0.413,0.016-0.563,0.007
					c-0.15-0.01-0.271-0.028-0.359-0.054c-0.09-0.026-0.154-0.062-0.194-0.111c-0.04-0.048-0.062-0.102-0.066-0.164l-0.593-9.847
					l-0.019,0.001l-2.915,10.048c-0.02,0.083-0.057,0.152-0.108,0.208c-0.054,0.058-0.127,0.104-0.223,0.142
					c-0.095,0.037-0.216,0.064-0.365,0.082c-0.149,0.019-0.329,0.034-0.541,0.047s-0.394,0.016-0.544,0.01
					c-0.15-0.007-0.275-0.024-0.374-0.053s-0.178-0.065-0.236-0.113c-0.06-0.046-0.101-0.103-0.123-0.171l-3.978-9.633l-0.019,0.001
					l0.593,9.847c0.004,0.062-0.01,0.119-0.041,0.171c-0.032,0.053-0.093,0.097-0.185,0.134s-0.21,0.069-0.355,0.097
					s-0.333,0.048-0.564,0.062c-0.224,0.014-0.412,0.016-0.562,0.007c-0.15-0.01-0.272-0.028-0.364-0.054
					c-0.093-0.026-0.157-0.062-0.194-0.111c-0.037-0.048-0.058-0.103-0.062-0.165L53.944,35.49c-0.02-0.317,0.051-0.565,0.209-0.743
					c0.157-0.179,0.377-0.276,0.657-0.294l1.608-0.097c0.287-0.017,0.535-0.009,0.743,0.026c0.209,0.034,0.391,0.102,0.547,0.201
					c0.156,0.101,0.29,0.236,0.4,0.408s0.211,0.386,0.302,0.644l3.052,7.051l0.037-0.002l2.279-7.354
					c0.065-0.267,0.141-0.494,0.227-0.68c0.086-0.188,0.188-0.341,0.311-0.461c0.121-0.118,0.267-0.208,0.438-0.265
					c0.172-0.058,0.373-0.094,0.604-0.107l1.655-0.1c0.168-0.01,0.314,0.004,0.438,0.039c0.125,0.037,0.229,0.096,0.311,0.175
					c0.084,0.078,0.148,0.178,0.197,0.298c0.047,0.118,0.076,0.257,0.085,0.411L68.694,45.423z"/>
				<path fill="#FECE63" d="M85.431,44.416c0.004,0.062-0.01,0.119-0.04,0.171c-0.032,0.053-0.092,0.097-0.181,0.134
					c-0.088,0.036-0.207,0.069-0.355,0.097s-0.338,0.048-0.568,0.062c-0.224,0.014-0.412,0.017-0.562,0.007
					c-0.151-0.01-0.271-0.028-0.36-0.054c-0.089-0.026-0.153-0.062-0.194-0.111c-0.04-0.048-0.062-0.102-0.066-0.164L82.51,34.71
					l-0.019,0.001l-2.914,10.048c-0.021,0.083-0.057,0.152-0.109,0.208c-0.053,0.058-0.127,0.104-0.222,0.142
					s-0.217,0.064-0.365,0.082c-0.149,0.019-0.33,0.034-0.542,0.047s-0.394,0.016-0.543,0.01c-0.151-0.007-0.275-0.024-0.374-0.053
					c-0.1-0.028-0.178-0.065-0.237-0.113c-0.059-0.046-0.101-0.103-0.123-0.171l-3.977-9.633l-0.02,0.001l0.593,9.847
					c0.004,0.062-0.01,0.119-0.041,0.171c-0.031,0.053-0.093,0.097-0.185,0.134c-0.091,0.037-0.21,0.069-0.355,0.097
					s-0.333,0.048-0.563,0.062c-0.225,0.014-0.412,0.016-0.563,0.007c-0.15-0.01-0.271-0.028-0.364-0.054
					c-0.092-0.026-0.157-0.062-0.194-0.111c-0.037-0.048-0.058-0.103-0.062-0.165l-0.648-10.782c-0.02-0.317,0.05-0.565,0.208-0.743
					s0.378-0.276,0.658-0.294l1.608-0.097c0.286-0.017,0.534-0.009,0.743,0.026c0.208,0.034,0.391,0.102,0.547,0.201
					c0.156,0.101,0.289,0.236,0.399,0.408s0.211,0.386,0.302,0.644l3.052,7.051l0.038-0.002l2.278-7.354
					c0.065-0.267,0.142-0.494,0.227-0.68c0.086-0.188,0.189-0.341,0.311-0.46s0.268-0.209,0.438-0.266
					c0.173-0.058,0.374-0.094,0.604-0.107l1.655-0.1c0.168-0.01,0.314,0.004,0.438,0.039c0.124,0.037,0.228,0.096,0.311,0.175
					c0.083,0.078,0.148,0.178,0.197,0.298c0.047,0.118,0.075,0.257,0.085,0.411L85.431,44.416z"/>
				<path fill="#FECE63" d="M95.203,43.198c0.011,0.182,0.012,0.334,0.004,0.456c-0.009,0.122-0.026,0.222-0.053,0.298
					c-0.027,0.077-0.062,0.134-0.107,0.171s-0.095,0.058-0.15,0.062l-6.078,0.366c-0.206,0.012-0.383-0.038-0.53-0.151
					c-0.147-0.114-0.229-0.308-0.246-0.581l-0.635-10.549c-0.017-0.273,0.041-0.477,0.175-0.605c0.133-0.13,0.302-0.202,0.508-0.214
					l6.04-0.364c0.057-0.003,0.106,0.01,0.152,0.038s0.087,0.081,0.122,0.157c0.036,0.075,0.065,0.174,0.088,0.295
					c0.023,0.121,0.041,0.274,0.052,0.461c0.011,0.175,0.012,0.324,0.003,0.445c-0.008,0.123-0.025,0.223-0.052,0.3
					c-0.026,0.076-0.062,0.133-0.103,0.171c-0.042,0.036-0.091,0.056-0.146,0.059l-4.32,0.26l0.179,2.956l3.656-0.22
					c0.056-0.003,0.108,0.01,0.157,0.041c0.048,0.033,0.091,0.083,0.126,0.152s0.064,0.165,0.088,0.286
					c0.022,0.12,0.039,0.269,0.05,0.442c0.011,0.182,0.013,0.331,0.004,0.45s-0.026,0.216-0.053,0.289
					c-0.027,0.074-0.063,0.129-0.107,0.163c-0.045,0.033-0.096,0.052-0.152,0.055l-3.656,0.22l0.206,3.413l4.357-0.262
					c0.056-0.004,0.108,0.011,0.157,0.042s0.091,0.084,0.127,0.157c0.035,0.072,0.064,0.169,0.088,0.29
					C95.175,42.867,95.193,43.018,95.203,43.198z"/>
				<path fill="#FECE63" d="M107.356,42.569c0.009,0.145-0.009,0.274-0.052,0.389c-0.043,0.115-0.104,0.213-0.184,0.293
					c-0.08,0.08-0.177,0.141-0.289,0.182c-0.114,0.041-0.229,0.065-0.349,0.073l-1.047,0.062c-0.218,0.014-0.408,0.003-0.569-0.031
					s-0.313-0.104-0.454-0.213c-0.142-0.107-0.279-0.255-0.416-0.443c-0.137-0.189-0.293-0.435-0.467-0.737l-3.352-5.475
					c-0.194-0.327-0.395-0.68-0.599-1.059c-0.204-0.378-0.39-0.747-0.555-1.107l-0.019,0.002c0.052,0.447,0.098,0.894,0.137,1.339
					c0.039,0.444,0.073,0.904,0.102,1.378l0.382,6.33c0.004,0.062-0.01,0.12-0.042,0.172c-0.031,0.052-0.088,0.098-0.17,0.137
					s-0.194,0.073-0.336,0.101c-0.144,0.027-0.326,0.047-0.55,0.061c-0.219,0.014-0.4,0.016-0.545,0.006
					c-0.145-0.011-0.259-0.031-0.342-0.061s-0.141-0.067-0.175-0.115s-0.054-0.104-0.058-0.166L96.755,32.81
					c-0.018-0.293,0.055-0.519,0.218-0.674c0.162-0.158,0.368-0.244,0.618-0.259l1.318-0.079c0.236-0.015,0.437-0.006,0.602,0.025
					c0.164,0.03,0.312,0.089,0.447,0.175c0.133,0.085,0.261,0.208,0.383,0.366s0.25,0.355,0.383,0.591l2.623,4.281
					c0.153,0.261,0.305,0.516,0.454,0.766c0.149,0.252,0.295,0.502,0.436,0.753c0.14,0.251,0.276,0.498,0.41,0.74
					c0.133,0.242,0.263,0.484,0.391,0.727h0.01c-0.046-0.435-0.087-0.89-0.124-1.363c-0.039-0.473-0.07-0.925-0.097-1.354
					l-0.341-5.677c-0.004-0.062,0.011-0.118,0.046-0.17c0.034-0.053,0.094-0.101,0.179-0.144c0.085-0.042,0.198-0.075,0.341-0.1
					s0.326-0.043,0.551-0.057c0.212-0.013,0.39-0.016,0.534-0.009s0.257,0.026,0.337,0.059c0.08,0.034,0.138,0.074,0.172,0.122
					s0.053,0.102,0.057,0.164L107.356,42.569z"/>
				<path fill="#FECE63" d="M119.722,36.438c0.066,1.11-0.021,2.067-0.264,2.874c-0.242,0.806-0.62,1.475-1.132,2.006
					c-0.513,0.531-1.15,0.938-1.912,1.218c-0.762,0.281-1.679,0.454-2.751,0.519l-2.89,0.174c-0.206,0.013-0.382-0.038-0.53-0.151
					c-0.147-0.113-0.229-0.307-0.246-0.581l-0.635-10.548c-0.017-0.274,0.042-0.477,0.175-0.606s0.302-0.201,0.508-0.214
					l3.104-0.187c1.079-0.065,2.001,0.007,2.768,0.213c0.767,0.208,1.421,0.543,1.966,1.008c0.544,0.465,0.972,1.054,1.283,1.768
					C119.479,34.641,119.663,35.479,119.722,36.438z M117.183,36.676c-0.034-0.574-0.133-1.103-0.297-1.588
					c-0.164-0.483-0.404-0.897-0.723-1.242c-0.317-0.344-0.715-0.602-1.191-0.777c-0.477-0.175-1.092-0.239-1.847-0.194
					l-1.243,0.075l0.495,8.229l1.281-0.077c0.673-0.041,1.235-0.163,1.686-0.364c0.451-0.203,0.82-0.489,1.107-0.859
					c0.288-0.371,0.492-0.823,0.613-1.355S117.225,37.375,117.183,36.676z"/>
			</g>
			<g>
				<g>
					<path fill="#F15A29" d="M142.537,16.954c-1.681,2.026-3.574,4.056-5.272,6.3c-4.504,5.951-7.726,11.755-9.665,17.414
						l-1.204,0.828c-1.04,0.705-1.932,1.407-2.676,2.105c-0.143-0.662-0.525-1.727-1.145-3.194l-0.669-1.568
						c-1.454-3.391-2.671-5.756-3.649-7.096c-0.979-1.339-2.023-2.054-3.134-2.143c1.47-1.397,2.759-2.107,3.868-2.129
						c1.534-0.03,3.257,1.997,5.168,6.081l1.042,2.198c3.155-5.923,6.998-11.398,11.529-16.424c1.294-1.436,2.141-2.553,3.952-4.082
						C141.274,14.744,143.146,16.22,142.537,16.954z"/>
				</g>
			</g>
			<g>
				<path fill="#FECE63" d="M124.376,43.96L4.618,51.17l0.115,1.917l120.398-7.249C124.958,45.333,124.707,44.708,124.376,43.96z"/>
			</g>
			<path fill="#FECE63" d="M117.916,27.518L3.608,34.4l0.115,1.917l111.281-6.7C116.4,28.039,117.916,27.518,117.916,27.518z"/>
		</g>
	</g>
</g>
</svg>
