<?xml version="1.0" encoding="utf-8"?>
<!-- Generator: Adobe Illustrator 16.0.0, SVG Export Plug-In . SVG Version: 6.00 Build 0)  -->
<!DOCTYPE svg PUBLIC "-//W3C//DTD SVG 1.1//EN" "http://www.w3.org/Graphics/SVG/1.1/DTD/svg11.dtd">
<svg version="1.1" id="Layer_1" xmlns="http://www.w3.org/2000/svg" xmlns:xlink="http://www.w3.org/1999/xlink" x="0px" y="0px"
	 width="841.889px" height="595.281px" viewBox="0 0 841.889 595.281" enable-background="new 0 0 841.889 595.281"
	 xml:space="preserve">
<g>
	<g>
		<path fill="#6D6E71" d="M415.25,0C579.413,0,712.5,133.088,712.5,297.25c0,164.163-133.087,297.25-297.25,297.25
			C251.081,594.5,118,461.413,118,297.25C118,133.088,251.081,0,415.25,0z"/>
	</g>
	<g id="Your_Icon">
		<path fill="#FFFFFF" d="M587.948,258.178c-2.862-3.423-6.907-5.852-11.024-6.058l0.024-0.623H263.142l0.054,0.647
			c-4.231,0.119-8.373,2.238-11.294,5.733c-5.405,6.453-4.531,16.268,1.951,21.655l156.298,130.359
			c2.831,2.369,6.314,3.615,9.779,3.615c3.471,0,6.956-1.174,9.782-3.544l156.284-130.286
			C592.472,274.279,593.347,264.643,587.948,258.178z"/>
	</g>
</g>
</svg>
