<?xml version="1.0" encoding="utf-8"?>
<!-- Generator: Adobe Illustrator 18.1.1, SVG Export Plug-In . SVG Version: 6.00 Build 0)  -->
<svg version="1.1" id="Layer_1" xmlns="http://www.w3.org/2000/svg" xmlns:xlink="http://www.w3.org/1999/xlink" x="0px" y="0px"
	 viewBox="0 0 401.8 578.2" enable-background="new 0 0 401.8 578.2" xml:space="preserve">
<circle cx="200.9" cy="289.1" r="200.9"/>
<g>
	<path fill="#F7941E" d="M280.6,255.4v128.8c0,2.7-2.4,4.9-5.3,4.9H100.6c-2.9,0-5.3-2.2-5.3-4.9V217.6c0-2.7,2.4-4.9,5.3-4.9h134
		l10.2-9.5H100.6c-8.4,0-15.5,6.3-15.5,14.4v166.8c0,7.8,6.8,14.4,15.5,14.4h174.8c8.4,0,15.5-6.3,15.5-14.4V245.9L280.6,255.4z"/>
	<path fill="#F7941E" d="M315.1,199.8l-20.5-19c-2.1-1.9-5.3-1.9-7.4,0L168.9,290.4c-0.3,0.5-0.5,0.7-1.1,1.2L152.6,325
		c-1.1,1.9-0.5,4.1,1.1,5.6s3.7,1.9,6,1l36-14.1c0.5-0.2,0.8-0.5,1.3-1l118.3-109.6C317.2,204.7,317.2,201.8,315.1,199.8z
		 M165.3,319.9l11-23.9l14.7,13.6L165.3,319.9z M294,214.2l-14.7-13.6l11.8-11l14.7,13.6L294,214.2z"/>
</g>
</svg>
