<?xml version="1.0" encoding="utf-8"?>
<!-- Generator: Adobe Illustrator 18.1.1, SVG Export Plug-In . SVG Version: 6.00 Build 0)  -->
<svg version="1.1" id="Layer_1" xmlns="http://www.w3.org/2000/svg" xmlns:xlink="http://www.w3.org/1999/xlink" x="0px" y="0px"
	 viewBox="0 0 401.8 578.2" enable-background="new 0 0 401.8 578.2" xml:space="preserve">
<circle cx="200.9" cy="289.1" r="200.9"/>
<path fill="#F7941E" d="M116.1,418.1V167.6c-2.3-0.9-3.5-2-3.5-3.3c0-2.9,3.3-4.3,9.8-4.3c6.7,0,10,1.4,10,4.3
	c0,1.1-1.1,2.2-3.2,3.3v9c16.8-6.9,34.8-10.4,54-10.4c27.3,0,41,5.6,41,16.8v13.6c27.8,2.2,52.4-0.3,73.8-7.7v55.8
	c-15.3,5.7-33.2,8.6-53.6,8.6c-13.9,0-26-1-36.1-2.9c-10.2-1.9-15.2-4.2-15.2-6.9v-21c-4.4-0.3-7.6-0.4-9.5-0.4
	c-20.3,0-38.4,3.6-54.3,10.9v184.8L116.1,418.1L116.1,418.1z"/>
</svg>
