<?xml version="1.0" encoding="utf-8"?>
<!-- Generator: Adobe Illustrator 17.1.0, SVG Export Plug-In . SVG Version: 6.00 Build 0)  -->
<!DOCTYPE svg PUBLIC "-//W3C//DTD SVG 1.1//EN" "http://www.w3.org/Graphics/SVG/1.1/DTD/svg11.dtd">
<svg version="1.1" id="Layer_1" xmlns="http://www.w3.org/2000/svg" xmlns:xlink="http://www.w3.org/1999/xlink" x="0px" y="0px"
	 viewBox="0 0 144 72" enable-background="new 0 0 144 72" xml:space="preserve">
<g>
	<g>
		<path fill="#F7941E" d="M87.28,15.392h43.462c3.118,0,5.669,2.551,5.669,5.669v43.871c0,3.118-2.551,5.669-5.669,5.669H13.259
			c-3.118,0-5.669-2.551-5.669-5.669V21.062c0-3.118,2.551-5.669,5.669-5.669h56.645"/>
		
			<path fill="none" stroke="#E56020" stroke-width="2" stroke-linecap="round" stroke-linejoin="round" stroke-miterlimit="10" stroke-dasharray="0,2.2" d="
			M87.28,15.392h43.462c3.118,0,5.669,2.551,5.669,5.669v43.871c0,3.118-2.551,5.669-5.669,5.669H13.259
			c-3.118,0-5.669-2.551-5.669-5.669V21.062c0-3.118,2.551-5.669,5.669-5.669h56.645"/>
	</g>
	<path fill="#E23E21" d="M62.725,1.924c2.142-0.66,4.465-0.68,6.778-0.162c2.298,0.522,4.652,1.753,6.448,3.747
		c1.819,1.977,2.886,4.61,3.263,7.149c0.383,2.552,0.171,5.021-0.301,7.317l-4.428-4.33c1.194-0.249,2.106-0.349,3.161-0.444
		c1.024-0.057,2.057-0.088,3.102-0.003c2.079,0.156,4.237,0.581,6.279,1.605c2.028,1.003,3.941,2.735,4.805,4.88
		c0.877,2.136,0.758,4.333,0.043,6.15c-0.876-1.772-1.845-3.239-3.031-4.107c-1.166-0.891-2.397-1.278-3.771-1.473
		c-1.374-0.19-2.857-0.217-4.391-0.092c-0.765,0.061-1.541,0.12-2.318,0.253c-0.742,0.08-1.622,0.239-2.195,0.371l-4.425-4.328
		c0.392-1.778,0.591-3.497,0.571-5.103c-0.038-1.598-0.312-3.072-0.997-4.462C70.662,7.5,69.532,6.19,68.035,5.02
		C66.54,3.845,64.742,2.834,62.725,1.924"/>
</g>
</svg>
