<?xml version="1.0" encoding="utf-8"?>
<!-- Generator: Adobe Illustrator 16.0.0, SVG Export Plug-In . SVG Version: 6.00 Build 0)  -->
<!DOCTYPE svg PUBLIC "-//W3C//DTD SVG 1.1//EN" "http://www.w3.org/Graphics/SVG/1.1/DTD/svg11.dtd">
<svg version="1.1" id="Layer_1" xmlns="http://www.w3.org/2000/svg" xmlns:xlink="http://www.w3.org/1999/xlink" x="0px" y="0px"
	 width="841.889px" height="595.281px" viewBox="0 0 841.889 595.281" enable-background="new 0 0 841.889 595.281"
	 xml:space="preserve">
<g>
	<path fill="#6D6E71" d="M421.071,1.75c163.65,0,296.32,132.671,296.32,296.32s-132.67,296.32-296.32,296.32
		c-163.649,0-296.32-132.671-296.32-296.32S257.422,1.75,421.071,1.75z"/>
</g>
<g>
	<path fill="#FFFFFF" d="M511.524,402.853h-191.43c-4.881,0-8.831-3.974-8.831-8.841V202.557c0-4.879,3.95-8.853,8.831-8.853h95.727
		c4.869,0,8.83,3.974,8.83,8.853c0,4.87-3.961,8.831-8.83,8.831h-86.897v173.769h173.793V298.26c0-4.869,3.937-8.818,8.83-8.818
		c4.892,0,8.83,3.95,8.83,8.818v95.727C520.365,398.88,516.439,402.853,511.524,402.853z"/>
</g>
<g>
	<path fill="#FFFFFF" d="M555.842,186.186l-27.517-27.517c-3.461-3.46-9.046-3.46-12.483,0l-24.915,24.916l-96.18,96.204
		c-0.811,0.788-1.457,1.743-1.91,2.769l-20.572,48.102c-1.433,3.306-0.681,7.184,1.837,9.713c1.73,1.707,3.962,2.59,6.265,2.59
		c1.181,0,2.351-0.239,3.508-0.704l48.102-20.608c1.025-0.405,1.956-1.085,2.78-1.838l96.192-96.227l24.892-24.893
		C559.302,195.219,559.302,189.622,555.842,186.186z M397.182,317.354l8.041-18.759l10.692,10.692L397.182,317.354z
		 M426.416,303.153l-15.035-15.035l86.646-86.634l15.023,15.012L426.416,303.153z M521.392,208.142l-15.023-15.011l15.703-15.704
		l15.023,14.988L521.392,208.142z"/>
</g>
</svg>
