<?xml version="1.0" encoding="utf-8"?>
<!-- Generator: Adobe Illustrator 17.1.0, SVG Export Plug-In . SVG Version: 6.00 Build 0)  -->
<!DOCTYPE svg PUBLIC "-//W3C//DTD SVG 1.1//EN" "http://www.w3.org/Graphics/SVG/1.1/DTD/svg11.dtd">
<svg version="1.1" id="Layer_1" xmlns="http://www.w3.org/2000/svg" xmlns:xlink="http://www.w3.org/1999/xlink" x="0px" y="0px"
	 viewBox="0 0 72 72" enable-background="new 0 0 72 72" xml:space="preserve">
<g>
	<circle fill="#6D6E71" cx="36" cy="36" r="36"/>
	<path fill="#FFFFFF" d="M19.925,31.131c-1.439,0-2.669,0.507-3.695,1.524c-1.026,1.009-1.541,2.23-1.549,3.661
		c-0.009,1.447,0.494,2.682,1.511,3.707l11.957,12.127c0.617,0.626,1.234,1.251,1.852,1.877c0.238,0.255,0.477,0.485,0.715,0.69
		c0.46,0.434,0.902,0.86,1.332,1.273c0.413,0.268,0.843,0.519,1.277,0.758c0.417,0.221,0.851,0.392,1.307,0.507
		c0.6,0.106,1.196,0.132,1.783,0.081c0.511-0.06,1.009-0.183,1.494-0.37c0.63-0.238,1.226-0.553,1.796-0.945
		c0.285-0.175,0.545-0.392,0.77-0.66c0.251-0.243,0.502-0.485,0.753-0.728c0.787-0.796,1.583-1.583,2.392-2.358l12.135-11.974
		c1.03-1.022,1.554-2.26,1.562-3.707c0.026-1.43-0.46-2.665-1.464-3.695c-1.022-1.03-2.26-1.554-3.707-1.562
		c-1.443-0.013-2.682,0.485-3.72,1.498l-7.496,7.385l0.123-20.308c0.009-1.439-0.494-2.673-1.511-3.707
		c-1.009-1.026-2.239-1.549-3.682-1.562c-1.443-0.004-2.677,0.498-3.703,1.507c-1.034,1.017-1.554,2.243-1.566,3.686l-0.123,19.78
		l-6.849-6.934C22.602,31.654,21.372,31.139,19.925,31.131L19.925,31.131z"/>
</g>
</svg>
