<?xml version="1.0" encoding="utf-8"?>
<!-- Generator: Adobe Illustrator 17.1.0, SVG Export Plug-In . SVG Version: 6.00 Build 0)  -->
<!DOCTYPE svg PUBLIC "-//W3C//DTD SVG 1.1//EN" "http://www.w3.org/Graphics/SVG/1.1/DTD/svg11.dtd">
<svg version="1.1" id="Layer_1" xmlns="http://www.w3.org/2000/svg" xmlns:xlink="http://www.w3.org/1999/xlink" x="0px" y="0px"
	 viewBox="0 0 144 72" enable-background="new 0 0 144 72" xml:space="preserve">
<g>
	<g>
		<path fill="#FFCD62" d="M89.791,10.057h46.54c3.118,0,5.669,2.551,5.669,5.669v48.661c0,3.118-2.551,5.669-5.669,5.669H7.669
			C4.551,70.057,2,67.506,2,64.388V15.727c0-3.118,2.551-5.669,5.669-5.669h66.228"/>
		
			<path fill="none" stroke="#F7941E" stroke-width="2" stroke-linecap="round" stroke-linejoin="round" stroke-miterlimit="10" stroke-dasharray="0,2.2" d="
			M89.791,10.057h46.54c3.118,0,5.669,2.551,5.669,5.669v48.661c0,3.118-2.551,5.669-5.669,5.669H7.669
			C4.551,70.057,2,67.506,2,64.388V15.727c0-3.118,2.551-5.669,5.669-5.669h66.228"/>
	</g>
	<path fill="#F37021" d="M72.035,18.602c-0.144-1.509,0.162-3.05,0.822-4.51c0.661-1.45,1.799-2.84,3.365-3.756
		c1.558-0.933,3.448-1.279,5.181-1.18c1.742,0.096,3.348,0.575,4.803,1.203l-3.474,2.338c-0.001-0.824,0.058-1.442,0.139-2.154
		c0.103-0.686,0.224-1.374,0.424-2.054c0.388-1.355,0.966-2.725,1.924-3.937c0.942-1.205,2.352-2.234,3.89-2.512
		c1.534-0.288,2.973,0.092,4.078,0.815c-1.294,0.337-2.398,0.777-3.135,1.444c-0.75,0.65-1.175,1.412-1.492,2.295
		c-0.315,0.884-0.536,1.862-0.663,2.894c-0.065,0.515-0.132,1.037-0.15,1.57c-0.049,0.502-0.064,1.107-0.055,1.504l-3.473,2.336
		c-1.124-0.503-2.234-0.871-3.3-1.078c-1.063-0.194-2.077-0.215-3.091,0.048c-1.012,0.244-2.034,0.813-3.015,1.643
		C73.83,16.339,72.914,17.391,72.035,18.602"/>
</g>
</svg>
