<?xml version="1.0" encoding="utf-8"?>
<!-- Generator: Adobe Illustrator 17.1.0, SVG Export Plug-In . SVG Version: 6.00 Build 0)  -->
<!DOCTYPE svg PUBLIC "-//W3C//DTD SVG 1.1//EN" "http://www.w3.org/Graphics/SVG/1.1/DTD/svg11.dtd">
<svg version="1.1" id="Layer_1" xmlns="http://www.w3.org/2000/svg" xmlns:xlink="http://www.w3.org/1999/xlink" x="0px" y="0px"
	 viewBox="0 0 72 72" enable-background="new 0 0 72 72" xml:space="preserve">
<circle fill="#6D6E71" cx="36" cy="36" r="36"/>
<path fill="#FFFFFF" d="M20.802,59.124V14.234c-0.413-0.166-0.62-0.362-0.62-0.588c0-0.513,0.584-0.77,1.752-0.77
	c1.2,0,1.799,0.257,1.799,0.77c0,0.204-0.191,0.4-0.572,0.588v1.62c3.011-1.239,6.237-1.858,9.673-1.858
	c4.898,0,7.345,1.005,7.345,3.014v2.446c4.989,0.402,9.398-0.057,13.228-1.371v10c-2.749,1.026-5.95,1.539-9.605,1.539
	c-2.495,0-4.652-0.174-6.471-0.521c-1.819-0.347-2.729-0.758-2.729-1.233v-3.757c-0.79-0.045-1.362-0.068-1.708-0.068
	c-3.639,0-6.884,0.653-9.732,1.958v33.12H20.802z"/>
</svg>
