<?xml version="1.0" encoding="utf-8"?>
<!-- Generator: Adobe Illustrator 17.1.0, SVG Export Plug-In . SVG Version: 6.00 Build 0)  -->
<!DOCTYPE svg PUBLIC "-//W3C//DTD SVG 1.1//EN" "http://www.w3.org/Graphics/SVG/1.1/DTD/svg11.dtd">
<svg version="1.1" id="Layer_1" xmlns="http://www.w3.org/2000/svg" xmlns:xlink="http://www.w3.org/1999/xlink" x="0px" y="0px"
	 viewBox="0 0 72 72" enable-background="new 0 0 72 72" xml:space="preserve">
<g>
	<g>
		<g>
			<circle fill="#F58220" cx="42.556" cy="27.584" r="2.022"/>
		</g>
		<g>
			<path fill="#F58220" d="M44.752,25.012c-0.526-1.067-1.815-1.509-2.884-0.985l0,0c-0.428,0.21-0.945,0.033-1.156-0.395l0,0
				c-0.21-0.428-0.034-0.945,0.395-1.156l0,0c1.924-0.944,4.249-0.15,5.195,1.775l0,0c0.209,0.428,0.032,0.946-0.396,1.156l0,0
				C45.479,25.616,44.961,25.44,44.752,25.012L44.752,25.012z"/>
		</g>
		<g>
			<circle fill="#F58220" cx="30.195" cy="27.584" r="2.022"/>
		</g>
		<g>
			<path fill="#F58220" d="M28,25.012c0.526-1.067,1.815-1.509,2.883-0.985l0,0c0.429,0.21,0.946,0.033,1.156-0.395l0,0
				c0.21-0.428,0.034-0.945-0.394-1.156l0,0c-1.926-0.944-4.249-0.15-5.195,1.775l0,0c-0.21,0.428-0.033,0.946,0.395,1.156l0,0
				C27.273,25.616,27.789,25.44,28,25.012L28,25.012z"/>
		</g>
	</g>
	<g>
		<path fill="#F58220" d="M68.545,45.059c0-4.483-2.524-8.202-5.84-8.931v-5.643c0-0.334-0.158-0.654-0.424-0.858
			c-0.266-0.203-0.616-0.272-0.94-0.183l-3.631,0.993v-5.132c0-0.388-0.208-0.745-0.546-0.938c-0.338-0.192-0.752-0.188-1.086,0.012
			l-5.488,3.274c0.082-0.464,0.144-0.934,0.181-1.411c0.459-1.447,0.711-2.986,0.711-4.583c0-8.343-6.763-15.107-15.107-15.107
			S21.269,13.316,21.269,21.66c0,1.597,0.251,3.137,0.711,4.583c0.037,0.478,0.099,0.948,0.181,1.411l-5.488-3.274
			c-0.334-0.2-0.747-0.204-1.086-0.012c-0.338,0.193-0.546,0.55-0.546,0.938v5.133l-3.631-0.994
			c-0.324-0.089-0.674-0.021-0.94,0.183c-0.266,0.204-0.424,0.523-0.424,0.858v5.643c-3.316,0.729-5.84,4.448-5.84,8.931
			s2.524,8.203,5.84,8.93v5.523c0,0.486,0.325,0.913,0.793,1.041c0,0,25.359,6.929,25.372,6.93c0.054,0.008,0.107,0.013,0.162,0.013
			h0.002h0.001c0.055,0,0.108-0.005,0.162-0.013l25.372-6.93c0.468-0.128,0.793-0.556,0.793-1.041v-5.523
			C66.02,53.262,68.545,49.542,68.545,45.059z M55.55,27.207v3.822l-11.826,3.235L55.55,27.207z M17.2,27.207l11.827,7.057
			L17.2,31.029V27.207z M6.364,45.059c0-3.742,2.23-6.904,4.87-6.904c1.759,0,3.335,1.406,4.192,3.45h-5.215
			c-0.595,0-1.079,0.484-1.079,1.079c0,0.597,0.483,1.079,1.079,1.079h5.802c0.059,0.421,0.09,0.854,0.09,1.295
			c0,0.441-0.032,0.873-0.09,1.295h-5.802c-0.595,0-1.079,0.483-1.079,1.079c0,0.595,0.483,1.08,1.079,1.08h5.215
			c-0.857,2.045-2.433,3.45-4.192,3.45C8.593,51.963,6.364,48.802,6.364,45.059z M35.297,65.006L12.205,58.69v-4.657
			c3.421-0.61,6.056-4.393,6.056-8.973s-2.635-8.364-6.056-8.973v-4.187l23.092,6.316V65.006z M36.376,36.136l-11.578-6.909
			c-0.457-1.286-0.708-2.669-0.708-4.115c0-1.903,0.432-3.702,1.204-5.309c1.913,0.396,6.822,0.926,6.772-4.111
			c0,0,1.514,7.097,15.24,3.811c0.866,1.682,1.357,3.586,1.357,5.609c0,1.446-0.251,2.829-0.708,4.115L36.376,36.136z
			 M37.454,65.006V38.215l23.091-6.317v4.187c-3.42,0.61-6.055,4.394-6.055,8.973c0,4.58,2.635,8.363,6.055,8.973v4.657
			L37.454,65.006z M61.517,51.963c-1.758,0-3.336-1.406-4.192-3.45h5.215c0.596,0,1.079-0.485,1.079-1.08
			c0-0.596-0.483-1.079-1.079-1.079h-5.802c-0.058-0.421-0.09-0.854-0.09-1.295c0-0.44,0.032-0.874,0.09-1.295h5.802
			c0.596,0,1.079-0.482,1.079-1.079c0-0.596-0.483-1.079-1.079-1.079h-5.215c0.856-2.045,2.433-3.45,4.192-3.45
			c2.64,0,4.87,3.162,4.87,6.904C66.387,48.802,64.158,51.963,61.517,51.963z"/>
	</g>
	<g>
		<path fill="#F58220" d="M60.686,11.005c0,0,3.978,2.684,7.408-1.838c1.071-1.412,2.893-1.68,3.275-1.45
			C71.368,7.716,62.95,2.157,60.686,11.005z"/>
		<path fill="#F58220" d="M63.477,12.427c-1.792,0-3.09-0.862-3.144-0.899c-0.222-0.149-0.326-0.421-0.259-0.68
			c1.161-4.536,3.892-5.488,5.979-5.488c2.862,0,5.549,1.754,5.663,1.829c0.287,0.189,0.37,0.574,0.186,0.865
			c-0.18,0.282-0.549,0.371-0.833,0.218c0.005,0.007-0.033,0.002-0.096,0.002c-0.545,0-1.673,0.345-2.377,1.274
			C66.792,11.927,64.817,12.427,63.477,12.427z M61.429,10.691c0.426,0.2,1.166,0.472,2.049,0.472c1.532,0,2.915-0.801,4.112-2.378
			c0.49-0.646,1.135-1.105,1.78-1.395c-0.919-0.39-2.117-0.767-3.317-0.767C63.796,6.623,62.242,7.991,61.429,10.691z"/>
	</g>
	<g>
		<path fill="#F58220" d="M11.336,10.147c0,0-3.978,2.684-7.408-1.838c-1.071-1.412-2.893-1.68-3.275-1.45
			C0.653,6.859,9.071,1.3,11.336,10.147z"/>
		<path fill="#F58220" d="M8.544,11.57c-1.34,0-3.314-0.5-5.119-2.88C2.722,7.763,1.594,7.416,1.049,7.416
			c-0.09,0-0.127,0.01-0.127,0.01C0.627,7.606,0.275,7.5,0.09,7.21c-0.184-0.291-0.072-0.69,0.216-0.878
			c0.113-0.075,2.801-1.829,5.663-1.829c2.087,0,4.818,0.952,5.979,5.488c0.067,0.259-0.037,0.53-0.259,0.68
			C11.634,10.707,10.336,11.57,8.544,11.57z M2.653,6.533c0.644,0.289,1.289,0.747,1.779,1.393c1.198,1.58,2.58,2.381,4.112,2.381
			c0.883,0,1.622-0.273,2.049-0.474C9.78,7.134,8.226,5.766,5.968,5.766C4.769,5.766,3.572,6.144,2.653,6.533z"/>
	</g>
	<g>
		<circle fill="#F58220" cx="52.091" cy="14.966" r="3.399"/>
	</g>
	<g>
		<circle fill="#F58220" cx="58.091" cy="12.278" r="3.399"/>
	</g>
	<g>
		<circle fill="#F58220" cx="20.132" cy="14.337" r="3.399"/>
	</g>
	<g>
		<circle fill="#F58220" cx="14.132" cy="11.648" r="3.399"/>
	</g>
</g>
</svg>
