<?xml version="1.0" encoding="utf-8"?>
<!-- Generator: Adobe Illustrator 16.0.0, SVG Export Plug-In . SVG Version: 6.00 Build 0)  -->
<!DOCTYPE svg PUBLIC "-//W3C//DTD SVG 1.1//EN" "http://www.w3.org/Graphics/SVG/1.1/DTD/svg11.dtd">
<svg version="1.1" id="Layer_1" xmlns="http://www.w3.org/2000/svg" xmlns:xlink="http://www.w3.org/1999/xlink" x="0px" y="0px"
	 width="841.889px" height="595.281px" viewBox="0 0 841.889 595.281" enable-background="new 0 0 841.889 595.281"
	 xml:space="preserve">
<g>
	<path fill="#010101" d="M439.75,2C603.084,2,735.5,134.41,735.5,297.75c0,163.334-132.416,295.75-295.75,295.75
		C276.41,593.5,144,461.084,144,297.75C144,134.41,276.41,2,439.75,2z"/>
</g>
<g id="Your_Icon">
	<path fill="#F89521" d="M611.576,258.882c-2.846-3.412-6.872-5.83-10.969-6.026l0.023-0.631H288.409l0.054,0.643
		c-4.21,0.125-8.331,2.234-11.237,5.711c-5.378,6.426-4.508,16.18,1.941,21.552l155.51,129.693c2.816,2.358,6.282,3.597,9.73,3.597
		c3.454,0,6.92-1.167,9.73-3.525l155.497-129.622C616.078,274.894,616.948,265.306,611.576,258.882z"/>
</g>
</svg>
